<?xml version="1.0" encoding="utf-8"?>
<!-- Generator: Adobe Illustrator 23.1.1, SVG Export Plug-In . SVG Version: 6.00 Build 0)  -->
<svg version="1.1" id="katman_1" xmlns="http://www.w3.org/2000/svg" xmlns:xlink="http://www.w3.org/1999/xlink" x="0px" y="0px"
	 viewBox="0 0 800 800" style="enable-background:new 0 0 800 800;" xml:space="preserve">
<style type="text/css">
	.st0{fill:#FFFFFF;}
	.st1{fill:#D32F1E;}
</style>
<g>
	<g>
		<path class="st0" d="M705.43,391.21c-4.06-2.05-3.55-5.72-0.63-7.89c34.53-25.55,57.84-58.33,57.84-108.93
			c0-59.92-42.91-144.01-210.71-144.01H119.4l-97.96,170.4h71.93c8.04,0,14.52,6.48,14.52,14.47v170.1c0,8-6.49,14.49-14.52,14.49
			H16.23l99,169.78l457.19-0.05c147.55,0,211.34-76.85,211.34-159.35C783.77,455.58,744.91,411.31,705.43,391.21"/>
		<path class="st1" d="M449.24,362.36h-71.05v-68.29c0.07-7.16,5.87-12.93,13.05-12.93h58c34.04,0,46.68,17.32,46.68,39.94
			C495.92,345.07,483.28,362.36,449.24,362.36L449.24,362.36z M449.24,519.45h-58c-7.21,0-13.05-5.82-13.05-13.02v-68.18h71.05
			c34.04,0,46.68,16.66,46.68,39.95C495.92,502.15,483.28,519.45,449.24,519.45L449.24,519.45z M652.04,395.06
			c-5.21-1.23-4.35-7.6-0.55-9.02c46.91-17.72,74.28-49.28,74.28-104.89c0.65-74.56-65.34-125.8-172.67-125.8H146.34L74.97,281.23
			h49.12c9.72,0,17.57,7.84,17.57,17.53v203.12c0,9.69-7.85,17.53-17.57,17.53H75.51l71.91,125.26l425.01-0.05
			c121.35,0,171.35-80.53,171.35-139.78C743.78,452.75,705.34,407.8,652.04,395.06L652.04,395.06z"/>
		<path d="M284.72,609.1c-75.42-141.54-95.24-304.28-67.14-453.76h-71.24L74.97,281.23h49.12c9.72,0,17.57,7.84,17.57,17.53v155.86
			C178.25,513.91,231.26,570.71,284.72,609.1L284.72,609.1z M640.4,169.35c-86.32,127.82-133.09,290.72-112.1,439.1
			c25.72-124.82,92.82-240.09,197.33-323.6c0.03-1.24,0.13-2.44,0.13-3.71C726.21,229.76,695,189.43,640.4,169.35L640.4,169.35z
			 M495.69,155.34c-13.54,35.4-27.75,78.11-39.71,126.06c-2.14-0.16-4.39-0.25-6.74-0.25h-58c-7.18,0-12.99,5.77-13.05,12.93v68.29
			h61c-4.03,24.48-7.29,49.84-9.45,75.9h-51.55v68.18c0,7.2,5.85,13.02,13.05,13.02h35.61c0.53,40.87,4.18,82.81,11.84,125.15
			h-53.02c-41.83-100.86-99.4-271.49-42.14-489.26L495.69,155.34z"/>
	</g>
</g>
</svg>
