<?xml version="1.0" encoding="utf-8"?>
<!-- Generator: Adobe Illustrator 27.9.0, SVG Export Plug-In . SVG Version: 6.00 Build 0)  -->
<svg version="1.1" id="Layer_1" xmlns="http://www.w3.org/2000/svg" xmlns:xlink="http://www.w3.org/1999/xlink" x="0px" y="0px"
	 viewBox="0 0 800 800" style="enable-background:new 0 0 800 800;" xml:space="preserve">
<style type="text/css">
	.st0{fill-rule:evenodd;clip-rule:evenodd;fill:#002244;}
	.st1{fill-rule:evenodd;clip-rule:evenodd;fill:#FFFFFF;}
	.st2{fill-rule:evenodd;clip-rule:evenodd;fill:#FB4F14;}
</style>
<g>
	<path class="st0" d="M13,294.53c14.31,18.3,29.45,29.88,46.07,29.79c22.92-0.13,23.32-13.97,48.49-15.24
		c-31.92-29.79-25.92-104.49,8.66-135.78c-3.41,78.32,20.23,100.39,65.29,96.29c-26.5-15.24-34.64-46.99-30.65-86.25
		c17.06,22.37,36.71,34.98,51.26,34.55c25.73-0.76,62.93-42.59,124.69-41.82c65.41,0.81,117.14,37.22,157.6,100.79
		c40.64-0.93,77.24,9.12,104.95,43.3l85.9,38.1l-10.39,6.58c30.8,18.56,61.34,39.74,92.13,62l22.86,10.39
		c-11.92,23.93-7.73,37.96,7.14,46.19l-19.61,51.14c-22.34-30.54-45.55-51.54-70.66-51.61c-26.21-0.07-14.66,28.29,45.03,29.44
		l-29.79,28.4l-56.99-3.71c2.13-4.96,0.82-10.15-0.5-15.34c-4.04-11.55-20.55-24.02-49.53-37.41
		c-38.85,20.2-75.68,16.16-110.84-7.97c-76.43,35.78-84.76,59.55-90.4,149.98l-7.97,0.35c-26.17-83.29-42.89-144.15-161.06-168.34
		C117.63,434.41,27.15,414.26,13,294.53L13,294.53z"/>
	<path class="st1" d="M492.83,290.13c6.85,3.29,18.37,8.65,22.1,19.47c-29.44-8.63-65.03-15.39-101.4-16.36
		c-92.95-2.47-205.74,24.74-324.06,105.47c35.46,18.58,68.75,26.05,102.72,34.45c69.83-46.34,132.23-61.03,211.42-64.11
		c-4.13-8.56-12.69-17.75-16.67-26.31c34.1,3.69,76.01,23.32,107.6,38.97c0.29,0.44,1.84,1.24,2.28,1.53
		c2.18,38.12,16.89,64.76,57.74,72.2c15.38-1.71,34.14-4.35,48.4-15.43c9.16,3.62,41.68,21.11,46.95,29.49
		c-15.02-5.59-25.8-13.91-43.67-15.9c-11.53,7.38-34.54,14.38-55.95,14.38c-52.25-6.94-63.56-34.16-80.09-75.93
		c-14.35-3.82-34.72-5.82-56.31-5.24c-51.37,1.38-110.74,21.68-150.38,63.26c26.03,10.87,50.4,19.73,71.91,35.87
		c6.82-8.04,44.99-44,102.63-43.01c-42.36,14.19-58.54,27.11-80.62,63.79c9.65,3.7,23.69,36.21,34.85,62.55
		c17.95-74.42,64.94-94.55,102.28-109.65c16.8,9.66,34.26,22.99,56.49,21.69c20.44-1.19,37.38-5.73,51.76-12.99
		c26.89,13.33,56.47,25.3,67.19,56.31c14.2,0.81,27.09,3.3,35.45,4.48c0.03-0.02,10.27-10.3,9.98-11.92
		c-29.29-2.77-46.35-14.54-45.52-30.47c0.58-11.07,11.12-18.05,24.91-16.64c16.16,1.65,40.84,14.41,64.87,38.29
		c1.18,0.15,2.51,0.3,3.84,0.3c2.66-6.64,6.85-14.41,5.66-22.67c-20.8-16.28-8.17-37.01-9.09-42.7
		c-42.06-23.56-80.92-57.93-123.12-77.67c2.99-2.81,6.23-5.36,7.88-7.41c-18.84-9.92-35.4-16.34-67.8-27.72
		C567.1,305.03,519.97,288.19,492.83,290.13L492.83,290.13z M565.01,327.94c-10.9-14.16-17.51-20.14-33.72-25.21
		c4.37,4.07,7.87,6.8,9.47,10.79c-8.04-1.17-11.02-0.65-15.95-0.39C542.84,318.84,550.23,320.27,565.01,327.94L565.01,327.94z
		 M702.16,424.79c-22.34-23.06-117.49-76.5-128.92-76.31c16.3,14.56,37.93,32.19,41.34,37.34c4.45-1.48,7.85-4.3,9.19-5.63
		C637.85,387.49,675.75,412.06,702.16,424.79L702.16,424.79z M726.27,443.11c1.06,14.71,15.42,21.66,24.25,27.94
		c-3.86-3.87-12.25-16-11.7-19.97c0.44-3.19,4.42-4.39,7.12-7.92C739.26,441.99,732.43,440.87,726.27,443.11L726.27,443.11z"/>
	<path class="st2" d="M156.39,209.61c9.69,27.23,16.66,52.02,47.66,52.91c21.58,0.62,72.92-23.46,111.75-24.46
		c15.09-0.39,41.01,11.14,57.62,41.27c36.29-3.3,71.18,4.25,98.33,4.99c-28.44-53.53-92.11-94.82-142.55-93.86
		c-78.02,1.48-92.48,41.86-131.26,38.22C182.22,227.2,168.28,219.51,156.39,209.61L156.39,209.61z"/>
	<path class="st2" d="M102.82,208.72c-5.16,16.64-7.38,34.12-5.73,47.93c5.16,43.23,41.75,70.44,80.09,71.74
		c53.12-20.26,104.32-40.11,161.36-45.43c-3.29-14.22-28.99-22.91-48.69-23.27c-32.32-0.59-88.42,24.95-125.51,22.47
		C127.18,279.67,109.55,267.03,102.82,208.72L102.82,208.72z"/>
	<path class="st2" d="M31.5,328.4c10.99,28.75,26.65,38.56,53.36,38.37c34.33-0.25,54.02-13.22,70.13-24.56
		c-11.6-5.5-31.21-21.84-48.05-20.16C77.32,324.99,74.96,345.93,31.5,328.4L31.5,328.4z"/>
	<path class="st2" d="M622.86,371.8c-1.38-0.77-2.74-1.53-4.1-2.28c0.08,0.31,0.12,0.63,0.12,0.96c-0.37,2.68-4.22,5.87-6.05,5.21
		c-2.11-0.77-2.03-7.57,0.88-8.93c-1.55-0.84-3.09-1.66-4.59-2.47c-4.5,4.15-3,12.53,1.83,14.77
		C616.02,380.92,622.09,377.25,622.86,371.8L622.86,371.8z"/>
</g>
</svg>
