<?xml version="1.0" encoding="utf-8"?>
<!-- Generator: Adobe Illustrator 23.1.1, SVG Export Plug-In . SVG Version: 6.00 Build 0)  -->
<svg version="1.1" id="Layer_1" xmlns="http://www.w3.org/2000/svg" xmlns:xlink="http://www.w3.org/1999/xlink" x="0px" y="0px"
	 viewBox="0 0 800 800" style="enable-background:new 0 0 800 800;" xml:space="preserve">
<style type="text/css">
	.st0{fill:#E93825;}
	.st1{fill:#2E1B00;}
	.st2{fill:#FFFFFF;}
	.st3{clip-path:url(#SVGID_2_);fill:#FFFFFF;}
	.st4{clip-path:url(#SVGID_4_);fill:#2E1B00;}
	.st5{clip-path:url(#SVGID_6_);fill:#FF3C00;}
	.st6{clip-path:url(#SVGID_8_);fill:#2E1B00;}
</style>
<g id="XMLID_1_">
	<path id="XMLID_2_" class="st0" d="M363.7,441.29c9.77,10.4,24.41,25.48,35.45,35.88c-2.55-15.71-3.18-32.06,0.21-47.13
		c2.12-10.19,5.94-19.11,10.4-26.54l-9.34-20.59c-2.12,3.18-5.94,8.92-9.55,14.65C391.08,397.56,377.71,419,363.7,441.29"/>
	<path id="XMLID_3_" class="st0" d="M407.64,512.62c-9.34-5.31-18.47-12.74-27.6-22.5c-0.21-0.21-15.5-14.65-28.87-28.02
		c-6.79,10.83-11.25,18.05-13.8,22.5l29.72,19.53c6.37,4.25,13.59,9.13,13.8,18.47c0.21,9.55-8.07,20.8-10.61,24.41
		c-3.4,4.67-14.44,17.62-28.66,8.7c0,0-20.8-12.95-35.24-21.65l-11.25,16.56c10.61,1.7,69,11.04,116.76,18.68
		c-2.55-18.47-8.7-35.24-12.31-50.1c6.37,13.8,13.16,31.42,16.98,50.74c3.18,0.42,6.37,1.06,9.55,1.49
		c-1.06-4.88-2.12-9.34-2.97-13.16C421.02,550.2,413.8,533.21,407.64,512.62"/>
	<path id="XMLID_4_" class="st0" d="M447.77,366.78c16.98-9.13,27.6-14.22,54.56-17.62l6.79-0.85c4.67-0.64,13.37-2.55,15.92-7.01
		c1.49-2.55,1.91-6.16,1.91-10.19c-28.87,5.94-59.02,13.16-84.92,23.78c-8.92,3.18-16.13,7.85-23.14,12.31
		c2.12,4.46,4.46,9.98,7.22,16.13c6.79-6.58,13.59-11.25,18.68-14.44C445.64,368.26,447.77,366.78,447.77,366.78"/>
	<path id="XMLID_5_" class="st1" d="M294.07,670.78c-28.66-1.27-62.41-13.16-86.62-25.48c-11.68-6.79-39.91-21.44-51.16-22.08
		c12.95,2.76,39.91,18.04,49.46,24.41c20.8,11.25,55.62,27.17,88.1,28.45c78.34,4.88,122.07-37.58,124.19-81.73
		c-2.12-0.42-4.25-0.64-6.37-1.06C405.52,648.91,346.29,675.66,294.07,670.78"/>
	<path id="XMLID_6_" class="st1" d="M411.46,569.09c1.49,0.21,3.18,0.42,4.67,0.64c-3.82-19.32-10.4-36.94-16.98-50.74
		C402.76,533.64,408.92,550.62,411.46,569.09"/>
	<path id="XMLID_7_" class="st1" d="M235.05,490.33c-8.49,0-16.13,3.18-21.87,8.92c-12.74,12.95-11.89,35.24,2.12,49.68
		c7.01,7.43,16.56,11.68,26.11,11.68c3.4,0,6.79-0.42,9.98-1.49l20.8-30.99c-0.21-9.34-3.82-18.89-11.04-26.32
		C253.94,494.79,244.39,490.54,235.05,490.33"/>
	<path id="XMLID_8_" class="st1" d="M191.1,581.83c29.3,37.58,80.88,37.79,107,10.19C287.06,597.54,240.78,627.9,191.1,581.83"/>
	<path id="XMLID_9_" class="st1" d="M344.38,587.56c10.19,0,17.2,12.95,8.7,21.65c3.61-7.85,0.64-17.83-8.92-18.26
		c-9.98-0.42-13.37,9.55-11.68,14.86C329.09,602.63,330.16,587.56,344.38,587.56 M349.26,598.81c-2.12-2.34-7.64-3.61-10.83-1.49
		c-1.49,0.85-2.97-0.21-1.06-2.12c3.61-3.18,10.19-2.97,13.16,1.49C352.23,599.03,350.54,600.51,349.26,598.81 M342.68,616.01
		c-4.67,0-8.49-3.82-8.49-8.49c0-4.67,3.82-8.49,8.49-8.49c4.67,0,8.49,3.82,8.49,8.49S347.35,616.01,342.68,616.01 M333.55,611.76
		c1.7,3.61,5.1,5.94,9.13,5.94c2.97,0,5.52-1.27,7.43-3.18c5.52-2.34,9.34-7.85,9.34-14.22c0-8.7-6.79-15.5-15.5-15.71
		c-8.49,0-15.5,7.01-15.5,15.5C328.46,604.76,330.37,609,333.55,611.76"/>
	<path id="XMLID_14_" class="st2" d="M337.37,595.2c-1.91,1.91-0.42,2.97,1.06,2.12c3.18-2.12,8.7-1.06,10.83,1.49
		c1.27,1.91,2.76,0.21,1.27-2.12C347.56,592.23,340.98,592.02,337.37,595.2"/>
	<path id="XMLID_15_" class="st2" d="M343.95,590.96c9.55,0.42,12.74,10.4,8.92,18.26c8.49-8.7,1.27-21.65-8.7-21.65
		c-14.22,0-15.29,15.07-11.89,18.26C330.58,600.51,333.98,590.53,343.95,590.96"/>
	<path id="XMLID_16_" class="st2" d="M342.47,614.1c-3.82,0-6.79-2.97-6.79-6.79c0-3.82,2.97-6.79,6.79-6.79
		c3.82,0,6.79,2.97,6.79,6.79C349.26,611.13,346.29,614.1,342.47,614.1 M351.17,607.31c0-4.67-3.82-8.49-8.49-8.49
		c-4.67,0-8.49,3.82-8.49,8.49c0,4.67,3.82,8.49,8.49,8.49C347.35,616.01,351.17,612.19,351.17,607.31"/>
	<path id="XMLID_19_" class="st1" d="M337.59,607.52l0.85,0.21c1.91,2.97,7.01,3.18,8.49,0.85c0.85-1.06,0.85,0.42,0.85,0.42
		C344.38,615.58,336.95,611.55,337.59,607.52 M342.47,600.51c-3.82,0-6.79,2.97-6.79,6.79c0,3.82,2.97,6.79,6.79,6.79
		c3.82,0,6.79-2.97,6.79-6.79C349.26,603.7,346.29,600.51,342.47,600.51"/>
	<path id="XMLID_22_" class="st2" d="M346.93,608.79c-1.49,2.34-6.58,2.12-8.49-0.85l-0.85-0.21c-0.42,3.82,6.79,7.85,10.19,1.49
		C347.56,609.22,347.56,607.52,346.93,608.79"/>
	<path id="XMLID_23_" class="st1" d="M218.06,633.2c10.4-13.59-9.77-29.3-17.83-16.77C206.81,596.05,233.56,621.74,218.06,633.2
		 M215.52,622.59c-1.06-2.12-4.46-5.09-6.16-5.31c-1.91-0.42-1.27-3.4,1.06-2.55c2.12,0.64,5.31,3.4,6.16,4.88
		C218.49,622.8,216.37,624.5,215.52,622.59 M201.5,631.72c-3.61-3.82-4.25-9.13-1.49-11.89c2.97-2.76,8.07-1.91,11.68,2.12
		c3.61,3.82,4.25,9.13,1.49,11.89C210.42,636.6,205.11,635.54,201.5,631.72 M202.35,607.09c-3.82,2.76-5.52,8.28-4.88,13.8
		c-1.7,3.4-0.64,8.49,2.97,12.1c3.82,4.03,9.34,5.31,12.74,3.18c3.18,0.21,6.16-0.42,8.49-2.34c5.52-4.67,5.73-13.8,0.64-21.02
		C217.21,605.61,208.3,603.06,202.35,607.09"/>
	<path id="XMLID_28_" class="st2" d="M210.21,614.52c-2.34-0.85-2.97,2.34-1.06,2.55c1.91,0.42,5.1,3.18,6.16,5.31
		c0.85,1.91,3.18,0.21,1.06-3.18C215.73,617.92,212.33,615.16,210.21,614.52"/>
	<path id="XMLID_29_" class="st2" d="M200.23,616.43c8.07-12.53,28.24,3.18,17.83,16.77C233.56,621.74,206.81,596.05,200.23,616.43"
		/>
	<path id="XMLID_30_" class="st2" d="M211.7,632.99c-2.34,1.7-6.37,0.21-9.34-2.34c-3.18-2.97-3.4-7.43-1.27-9.55
		c2.34-2.34,6.79-0.85,9.34,2.12C212.54,625.56,214.46,630.87,211.7,632.99 M211.91,621.95c-3.61-3.82-8.92-4.67-11.68-2.12
		c-2.76,2.76-2.12,8.07,1.49,11.89c3.61,3.82,8.92,4.67,11.68,2.12C216.15,631.08,215.52,625.77,211.91,621.95"/>
	<path id="XMLID_33_" class="st1" d="M209.78,631.93c-4.88,0.42-9.13-5.52-7.43-8.07c0,0,1.27-1.91,1.49-0.21
		c0.42,2.97,3.4,5.94,6.37,6.79C210.85,630.45,211.27,631.51,209.78,631.93 M201.08,621.1c-2.12,2.12-1.91,6.58,1.27,9.55
		c2.97,2.76,7.01,4.25,9.34,2.34c2.76-2.12,0.85-7.43-1.27-9.77C207.87,620.26,203.63,618.77,201.08,621.1"/>
	<path id="XMLID_36_" class="st2" d="M203.84,623.65c-0.21-1.7-1.49,0.21-1.49,0.21c-1.91,2.55,2.55,8.49,7.43,8.07
		c1.49-0.21,1.27-1.27,0.42-1.49C207.45,629.6,204.26,626.62,203.84,623.65"/>
	<path id="XMLID_37_" class="st2" d="M179.43,648.7c1.06-0.64,1.91-1.49,2.76-1.91c-13.37-8.49-29.72-14.01-56.68-5.1l-1.27,0.42
		c6.37-1.27,15.29-2.76,21.02-2.34c7.01,0.42,17.41,1.49,27.39,7.85l-4.88,2.76c-23.35,11.25-43.1,14.44-54.35,15.29
		c-11.04,0.85-8.92-5.52-1.7-9.34c4.03-2.12,7.43-5.94,8.92-12.95c-1.27,0.64-1.27,0.42-2.97,0.64h-0.21
		c-2.34,17.2-36.09,15.5-32.27-8.07c0,0-4.88-9.98-7.64-15.71l-0.21-3.61c0,0,8.28,13.37,11.68,17.62
		c-4.46,15.92,18.89,22.72,25.05,10.61c-20.59,3.82-21.44-6.79-21.02-10.19l-0.42-1.7c-3.61-3.61-15.29-19.11-28.66-43.52
		c-1.7,14.22,14.22,47.13,15.71,50.31l1.27,3.4c-4.88,13.37,9.13,30.99,34.18,26.96C139.94,667.6,167.75,657.19,179.43,648.7"/>
	<path id="XMLID_38_" class="st1" d="M530.56,604.97c0,0-1.49,0.21-4.03,0.42l1.7,3.18c1.06,2.12,2.12,4.03,3.4,5.94
		c2.76-3.4,5.31-6.79,7.64-10.61C536.29,604.55,533.32,604.76,530.56,604.97"/>
	<path id="XMLID_39_" class="st1" d="M542.87,524.3c2.34,18.68,1.7,38-3.61,55.2c3.61-0.42,7.22-0.64,10.61-1.06
		c2.34-8.28,3.61-17.2,4.03-26.32v-2.55l80.25,13.59c0,0-5.31-11.89-6.58-15.92l-73.67-12.74v-2.34c-0.21-2.97-0.42-5.94-0.85-9.13
		C549.67,523.45,546.27,523.87,542.87,524.3"/>
	<path id="XMLID_40_" class="st1" d="M407.64,512.62c6.16,20.59,13.37,37.58,15.07,45.64c0.85,3.82,1.91,8.28,2.97,13.16
		c4.25,0.64,8.28,1.27,12.31,1.91l-0.21-2.34c13.59-9.77,23.99-25.69,29.51-40.76l-0.85-2.12l-1.91-0.21
		c-14.22-0.85-29.51-2.97-45.43-9.77c4.03,15.07,8.07,29.93,10.4,43.52c-2.76-11.89-9.13-27.81-15.07-45.86
		C412.1,514.96,409.77,513.9,407.64,512.62"/>
	<path id="XMLID_41_" class="st1" d="M399.36,477.38c1.7,1.7,3.18,3.18,4.67,4.46l1.27,0.85c-4.67-24.41-4.88-50.1,7.43-73.03
		l-2.76-5.94c-4.46,7.64-8.28,16.35-10.4,26.54C396.18,445.32,396.82,461.46,399.36,477.38"/>
	<path id="XMLID_42_" class="st2" d="M534.38,459.12c-4.88-22.72,0.21-64.75,16.77-76.64C527.59,385.25,521.22,444.26,534.38,459.12
		"/>
	<path id="XMLID_43_" class="st1" d="M455.41,504.13l-40.55-89.38c-9.34,23.56-7.85,48.4-3.18,72.82
		C424.63,496.49,436.73,502.01,455.41,504.13"/>
	<g id="XMLID_44_">
		<g>
			<defs>
				<rect id="SVGID_1_" x="12.56" y="105.23" width="774.87" height="589.54"/>
			</defs>
			<clipPath id="SVGID_2_">
				<use xlink:href="#SVGID_1_"  style="overflow:visible;"/>
			</clipPath>
			<path id="XMLID_46_" class="st3" d="M727.36,675.88c1.49-6.16,1.06-16.13,1.06-16.13c49.89-10.61,2.55-15.07,2.55-15.07
				c11.04,3.4,10.61,7.22,10.61,7.22c-4.67,0.21-13.16-2.34-13.16-2.34c0.21-3.18-0.64-15.71-0.64-15.71
				c12.95,5.52,15.07,4.03,28.45,7.01c13.8,3.18,7.01,8.7,7.01,8.7c-7.01,8.7-32.91,12.31-32.91,12.31
				c43.31-5.73,39.27-17.41,39.27-17.41c17.62,11.46,0.21,19.74-8.7,22.29C753.26,669.08,727.36,675.88,727.36,675.88
				 M703.37,644.03c0.42,5.94,0.64,9.55,0.64,9.77c0,4.88-2.76,6.58-3.18,6.79c-62.2,16.77-136.08,8.28-169.2-46.07
				c-1.27-1.91-2.34-3.82-3.4-5.94l-1.7-3.18c2.55-0.21,4.03-0.64,4.03-0.64c2.76-0.21,5.52-0.64,8.49-0.85
				c33.33-3.61,73.03-8.92,107.42-14.65C661.55,616.65,682.35,634.48,703.37,644.03 M671.74,584.8c7.01-1.49,13.59-2.76,19.53-4.25
				c1.49-0.42,2.12,0,2.34,0.21c1.06,0.85,1.49,2.76,1.49,3.4v0.21v0.21c2.34,7.85,4.03,18.47,5.31,29.08
				C689.36,605.39,679.59,595.63,671.74,584.8 M651.14,589.47c3.18-0.64,15.92-3.4,15.92-3.4c13.59,20.17,35.24,34.82,35.24,34.82
				c0.64,5.09,1.06,18.05,1.06,18.05C669.19,622.38,651.14,589.47,651.14,589.47 M708.04,678c0,0,0.21,0.42-5.73,2.34
				c-36.51,9.34-75.36,9.98-108.27,1.27c-29.72-7.85-65.17-25.05-84.71-68.57c0,0-2.55-4.67-2.97-7.01c0,0,9.98,0.21,16.56-0.42
				c30.36,65.17,108.69,77.28,175.78,60.08c0,0,6.16-1.06,7.85-2.97c1.49-3.18,1.27-11.46,1.27-11.46c0-1.91-1.7-42.03-9.13-68.57
				c-0.64-2.76-1.49-4.46-2.34-5.31c0,0-2.12-0.85-3.4-0.85c-3.61-0.21-8.28,0.85-8.28,0.85c-41.4,9.77-105.51,18.05-156.04,23.14
				c0,0-4.03,0.64-10.83,0.85l-5.31,0.42c-9.55,0-23.14-0.42-40.34-3.18l-187.67-30.78l10.19-13.8l181.51,29.72
				c27.6,4.25,40.55,2.12,40.97,2.12c48.83-2.76,139.48-16.13,161.34-21.87c0,0,11.89-2.76,13.37-4.25
				c1.06-1.06-1.49-9.77-1.49-9.77c0-0.21-8.92-29.3-13.37-40.34v0.21c0-0.42-2.12-6.58-4.03-7.64h-1.49c0,0-2.55,0.42-5.73,1.27
				c-42.67,7.85-120.58,18.68-166.23,21.44c4.03-0.21-18.47,0.85-36.09-0.42c-24.84-1.49-52.44-7.64-80.03-37.36
				c-0.21-0.21-30.57-29.3-42.88-42.67c-2.97-4.25-1.49-9.13,1.7-11.68c2.34-1.91,6.79-2.55,9.34,0.21
				c5.31,7.22,36.09,38.85,51.16,53.07c16.77,13.16,28.87,19.96,52.44,22.72c12.74,1.49,27.81,1.27,28.45,1.27
				c30.99,0.85,143.72-12.95,177.05-19.53c4.25-0.64,6.79-1.49,6.79-1.49v-0.64l0.21-1.49c0-0.42,1.91-2.12,3.61-2.76
				c2.97-1.49,7.01-1.49,10.4,1.27c23.56,43.52,47.13,124.62,41.61,185.76c-0.21,3.18-1.7,5.94-4.03,7.22
				C718.87,678.42,713.56,680.76,708.04,678 M273.05,568.24c-3.61-0.21-7.43-2.55-8.7-5.31c-0.85-1.7-0.64-3.4,0.64-5.1l23.56-36.09
				c1.49,2.97,13.37,9.98,13.37,9.98c-4.88,7.43-22.72,33.75-22.72,33.75C277.51,568.03,274.96,568.46,273.05,568.24 M294.7,505.83
				c6.58-9.13,9.77-14.44,11.25-16.98c1.49,3.18,5.73,5.73,5.73,5.73c11.04,6.79,34.18,20.8,40.76,24.63
				c7.22,4.03,8.7,5.94,8.7,5.94c8.28,7.85,6.79,15.71,2.76,21.23c-4.67,6.16-13.37,10.19-20.8,5.31l-9.98-6.16l0,0l-3.61-2.12
				l-30.99-19.11l0,0l0,0c0,0-5.09-2.34-6.58-7.22C290.67,513.47,291.73,509.86,294.7,505.83 M311.26,479.29
				c-0.42,8.49,12.53,15.5,18.68,13.8l33.12,22.08c4.88,3.61,9.77,9.77,7.01,18.05c-0.42-7.64-9.98-13.8-9.98-13.8
				s-35.67-21.02-46.49-27.81C307.23,487.57,307.86,482.26,311.26,479.29 M316.99,478.02L316.99,478.02l0.21-0.21
				c0.21-0.42,4.25-7.01,19.11-31.21c4.46,6.16,11.68,12.74,11.68,12.74L329.94,488c-2.34,1.91-7.64,0-10.83-3.18
				C318.27,484.17,314.87,480.57,316.99,478.02 M365.18,512.41c-6.58-4.25-31.84-21.23-31.84-21.23l2.76-2.55
				c11.46,7.43,26.32,17.2,32.91,22.08c11.68,8.92,5.31,19.32,5.31,19.32C375.37,523.66,372.61,517.29,365.18,512.41 M512.09,582.04
				c0,0-6.37,1.27-16.98,0.42c-5.09-9.55-10.61-22.5-24.84-53.92c9.77,1.06,16.98,0,16.98,0L512.09,582.04z M626.52,543.62
				l-72.6-12.74v1.27v2.34l73.67,12.74c1.49,4.03,6.58,15.92,6.58,15.92l-80.25-13.59v2.55v1.27l79.19,13.37
				c-26.32,4.46-53.92,8.7-83.22,11.89c-3.61,0.42-7.01,0.64-10.61,1.06c5.31-17.41,5.94-36.73,3.61-55.2
				c3.4-0.42,6.79-0.64,10.19-1.06c20.38-2.34,41.82-5.1,61.57-7.85C618.88,525.36,622.91,535.13,626.52,543.62 M652.42,545.74
				l-14.22-33.97c9.55-1.49,18.47-2.97,26.32-4.46h0.21h0.21c1.91-0.64,3.61-0.64,4.88,0c2.12,1.06,2.76,3.61,2.76,3.61v0.21l0,0
				c3.18,8.07,8.92,25.26,11.89,34.18C672.16,545.74,661.12,545.74,652.42,545.74 M659.42,562.51l-5.52-12.95
				c18.89,0.21,32.48,0,32.48,0c2.34,8.28-5.52,8.7-5.52,8.7L659.42,562.51z M655.81,563.78c-2.55,1.06-14.86,2.97-14.86,2.97
				c-2.97-5.52-21.65-51.38-21.65-51.38c2.12-0.21,14.86-2.34,14.86-2.34C643.71,539.37,655.81,563.78,655.81,563.78 M418.89,518.35
				c15.71,6.79,31.21,8.92,45.43,9.77l1.91,0.21l0.85,2.12c-5.52,14.86-16.13,30.99-29.51,40.76l0.21,2.34
				c-3.82-0.64-8.07-1.27-12.31-1.91c-3.18-0.42-6.37-1.06-9.55-1.49c-1.49-0.21-2.97-0.42-4.67-0.64
				c-47.77-7.64-105.93-16.98-116.76-18.68l11.25-16.56c14.65,8.7,35.24,21.65,35.24,21.65c14.22,9.13,25.26-4.03,28.66-8.7
				c2.76-3.61,11.04-14.86,10.83-24.41c-0.21-9.34-7.43-14.22-13.8-18.47l-29.72-19.53c2.76-4.46,7.22-11.68,13.8-22.5
				c13.37,13.37,28.66,28.02,28.87,28.02c9.13,9.98,18.26,17.2,27.6,22.5c2.12,1.27,4.46,2.34,6.58,3.61
				c5.94,18.05,12.31,33.97,15.07,45.86C426.96,548.08,422.93,533.43,418.89,518.35 M378.56,378.45
				c4.46-7.22,15.07-19.74,13.59-18.05c0,0-0.21,3.61,1.7,7.64c1.49,3.18,4.88,11.25,4.88,11.25c0.42-0.42-7.22,9.13-11.46,15.92
				l-26.11,42.88l-7.01-7.64c0,0-2.97-3.61-5.73-3.61C362,404.56,374.31,384.82,378.56,378.45 M415.07,414.75l40.55,89.38
				c-18.68-2.12-30.99-7.64-43.73-16.56C407.01,463.16,405.73,438.32,415.07,414.75 M409.98,403.5l2.76,5.94
				c-12.31,22.93-12.1,48.83-7.43,73.03l-1.27-0.85c-1.49-1.27-3.18-2.97-4.67-4.46c-11.04-10.61-25.69-25.48-35.45-35.88
				c13.8-22.5,27.17-43.73,27.17-43.73c3.61-5.73,7.43-11.46,9.55-14.65L409.98,403.5z M397.24,357.86
				c1.91-3.18,5.73-5.09,8.28-5.09c1.91,0,3.4,0.64,3.61,0.64l68.57,151.79c0,0-9.55,0.42-16.98-1.06
				c-29.3-63.9-63.48-138.84-63.48-138.84C395.75,362.74,395.75,360.19,397.24,357.86 M429.51,338.33
				c24.84-10.4,76.64-23.78,121.22-30.99c4.67-0.64,8.7,2.55,9.13,5.94c0.42,2.97-1.06,6.58-7.01,7.64l-2.76,0.42
				c-35.67,7.22-76.21,15.29-110.18,29.08c-10.61,3.82-16.35,7.01-22.29,11.68c0,0-3.4-7.22-4.46-9.13
				c-1.91-3.4-2.12-3.61-3.61-4.67C414.65,345.12,420.8,341.94,429.51,338.33 M536.51,276.34l9.55,26.96l-5.1,0.85
				c0,0-6.16-17.2-10.19-29.3c-2.97-9.13-0.85-13.59-0.85-13.59l4.67-2.12C532.47,265.94,536.51,276.34,536.51,276.34
				 M538.63,257.44l5.1-2.55l0.42-0.21l-0.21,1.91c-0.21,1.7,0,2.76,1.91,7.85c2.97,8.07,18.47,40.34,20.38,45.01
				c8.92,23.35-14.22,27.6-16.77,17.41c24.84-1.91,14.65-27.81,0.64-24.2c-5.31-13.16-9.55-26.54-9.55-26.54
				S534.81,261.69,538.63,257.44 M571.11,324.53c0,0,11.89,0,17.83,0c0,0-4.46,8.28-23.14,7.01
				C565.8,331.54,570.9,328.14,571.11,324.53 M623.76,308.18L623.76,308.18h0.42c2.97,0.42,4.67,4.25,4.46,7.43
				c-0.21,1.7-1.27,5.52-7.01,5.52c-5.31-1.06-19.11-2.55-26.11-3.18c0-5.94-3.61-14.44-3.61-14.44
				C599.56,304.57,619.72,306.91,623.76,308.18 M667.28,480.35c-4.25,0.64-4.46,4.46-4.46,4.46c-10.19,2.55-33.54,5.1-33.54,5.1
				l-4.88-11.04C649.02,482.26,667.28,480.35,667.28,480.35 M708.68,477.59c-4.25,1.7-23.99,4.25-23.99,4.25
				c-2.55-2.12-5.31-2.55-5.94-2.55h-0.21h0.21C686.38,479.72,708.68,477.59,708.68,477.59 M728.63,477.38
				c4.03,0.64,5.73,2.97,6.16,6.37c0.21,1.27-0.42,5.94-5.52,6.79l-1.91,0.42c-4.67,1.49-13.8,3.61-23.14,5.31
				c-5.73,1.06-11.04,2.12-10.61,1.91c-1.27-2.76-2.12-5.52-5.52-12.31c10.19-1.7,23.14-4.25,32.27-7.01
				C723.32,478.02,728.63,477.38,728.63,477.38 M750.71,492.88c19.74,55.41,35.03,131.41,30.78,157.73c0-3.4-5.31-9.77-14.22-11.46
				c0,0,0.21-3.4,0-7.64c-2.34-22.93-10.4-64.54-10.4-64.54c12.74-4.03,11.68-30.15-10.19-29.93
				c-5.31-23.56-12.74-42.46-12.74-42.46c11.89-6.58,6.37-17.41-0.21-19.32C733.3,475.05,745.19,472.5,750.71,492.88 M754.11,562.72
				c0,0-6.37,3.18-36.3,8.7c0,0-2.34-9.34-3.61-14.01c0,0,25.26-5.31,35.03-8.92c0,0-0.21-3.18-5.09-3.18c0,0-25.69,6.58-31.42,7.01
				l-1.49-3.82c0,0,21.87-4.25,29.3-5.94c0,0,15.5-5.31,18.89,6.58C759.63,548.92,762.81,559.11,754.11,562.72 M727.99,495.21
				L727.99,495.21h0.85c3.4,7.64,8.7,24.2,9.98,30.15l3.18,12.95c-10.19,2.34-21.65,4.03-32.91,5.1
				c-4.46-14.86-9.34-28.66-14.65-40.97C720.14,499.04,727.99,495.21,727.99,495.21 M726.3,628.53c-1.7-17.2-4.67-35.24-8.49-52.65
				c9.77-1.91,27.81-6.37,34.39-8.07l0.42,2.76c3.4,18.47,8.49,46.28,10.4,63.26c0,1.7,0,2.97-0.21,4.25
				c-3.18-0.64-5.73-0.85-6.37-0.85C746.25,635.75,736.06,632.78,726.3,628.53 M787.44,638.3c-3.61-48.62-14.44-97.02-32.91-148.39
				l-2.34-5.31c-4.67-12.1-12.95-14.44-26.32-12.74l-11.46,1.27c-23.35,2.12-61.14,6.16-92.56,0.64l-42.67-101.26h-1.06l-2.55,0.21
				c11.68,27.6,49.89,117.82,49.89,117.82c-7.43,1.27-15.29,1.91-15.29,1.91L561.98,379.3c-1.27,1.27-1.91,2.34-2.34,2.97
				l-0.42,0.64c0,0,16.13,38.43,34.18,81.52c-2.12-1.06-4.03-2.12-5.31-3.4c-8.49-5.31-28.02-19.32-44.37-43.94l-0.21,1.06
				c-0.21,0.85-0.42,2.12-0.85,3.82c22.72,35.03,53.29,47.98,53.29,47.98l7.64,18.68c-30.36-8.92-55.83-36.3-62.84-44.58v2.34v1.91
				c17.2,21.87,39.91,37.36,63.9,45.43c-17.83,2.34-37.36,4.46-55.83,6.37c-3.61,0.42-7.01,0.64-10.4,1.06
				c-2.34-9.13-5.31-17.62-8.49-25.48c-17.2-40.55-64.11-22.08-60.72,2.34c-14.22-31.63-28.87-63.69-39.7-87.68
				c4.25-4.46,12.74-13.16,26.32-21.87c-9.55,4.25-17.2,10.83-17.2,10.83c-3.82,2.97-7.22,5.94-10.19,8.92
				c-0.85-1.91-1.7-3.61-2.34-5.31c-2.76-6.16-5.31-11.68-7.22-16.13c7.01-4.46,14.22-9.13,23.14-12.31
				c26.11-10.61,56.05-17.83,84.92-23.78c1.7-0.42,3.18-0.64,4.88-1.06c0.85,14.44-6.37,19.74-18.89,22.5
				c-8.07,1.7-14.86,1.91-18.26,3.18l7.85,0.21c0.42,0,8.92,0,20.8-4.03c7.85-2.97,13.8-8.28,11.25-22.29
				c1.27-0.21,2.76-0.64,4.03-0.85c2.12,13.37,0.21,26.32-25.9,28.87c4.46,2.97,45.01-4.46,69.42,1.06
				c0.64,0.21,10.83,3.82-0.85,8.92c22.72-5.1,23.78-27.6,19.53-44.37l0.85,0.21c4.25,0.21,7.85,0.85,10.61,1.27l0,0
				c2.12,0.21,4.88,0.42,7.64,0.85c16.98,1.7,15.29-18.26,6.58-20.8c-6.79-1.91-8.49-2.12-10.19-2.34l-2.34-0.21l-21.02-46.92
				l11.68-5.31l30.15,54.35c14.01,22.08-9.13,31.21-21.87,24.63c-1.7,0.85-2.97,1.7-3.82,2.55c3.61,2.34,8.07,3.82,13.16,3.82
				c8.49,0,15.92-3.82,19.32-9.98c2.55-4.46,4.03-12.31-2.76-23.14l-32.06-57.74l-25.48,11.25c2.12,0.42,3.4,1.27,4.25,2.76
				l4.46-1.91l19.74,44.58c-2.55-0.42-9.13-1.06-10.83-1.27l-4.88-0.21c-4.25-13.16-9.98-30.15-13.8-39.91
				c-2.12-0.42-6.16-0.64-7.01-0.64l0.21,0.21c2.97,5.52,12.1,33.75,15.07,41.61c4.25,10.61,3.82,16.77,3.82,16.77l-19.53-0.42
				c-0.21-5.73-5.73-16.56-5.73-16.56l-7.22-14.86l-1.91-4.25l-7.64-15.92l0,0c-0.85-1.91-2.12-5.52-2.55-8.92
				c-1.27-10.4,8.92-10.4,9.13-10.4c5.31,0,9.55,2.12,13.8,8.07c0.85,0,1.91,0,2.76,0c-6.16-12.1-9.55-15.92-13.59-22.72
				C483.64,122.64,356.69,90.37,245.03,117.54c141.6-20.8,249.45,40.12,303.37,131.2c-4.46,2.34-11.89,5.94-15.5,7.85
				c-1.49,0-7.22-0.21-9.34,0c-3.4,0.21-6.58,0.42-4.25,8.49c1.7,5.94,2.34,7.22,3.61,11.04c1.49,4.46,6.79,17.62,10.4,28.87
				c-1.27,0.21-2.55,0.42-4.03,0.85c-0.64-1.91-1.49-4.03-2.34-6.37c-4.46-11.25-9.77-25.69-11.25-30.57
				c-0.85-2.55-1.91-7.43-0.64-11.68c0,0-5.31,4.25-0.64,15.5l12.1,33.54c-1.7,0.21-3.18,0.64-4.88,1.06
				c-36.73,7.43-72.6,16.98-92.77,25.48c0,0-15.07,5.52-25.9,14.22l-0.64,0.85c-2.97,0.85-5.94,2.97-8.07,5.73
				c-1.49,1.27-4.88,4.03-6.58,5.73c-4.25,4.88-7.85,9.13-12.74,15.71c-4.25,6.16-19.11,29.72-32.27,51.16
				c-1.06,0.42-2.34,1.06-3.4,1.91c-3.4,2.76-5.73,7.43-4.88,12.53c-10.83,17.41-17.2,27.6-19.74,31.84
				c-5.94,0.42-8.92,5.09-9.13,5.73c-2.55,5.31-13.8,23.78-15.92,25.69c-1.27,1.27-3.82,6.16-2.76,11.89l-1.06,1.91l-24.84,36.94
				c-2.12,2.97-2.55,6.37-1.06,9.55c2.12,4.25,7.22,7.64,12.53,7.85c2.76,0.21,5.52-0.42,7.43-1.91
				c9.98,1.7,79.61,13.37,132.05,22.08c2.12,0.42,4.25,0.64,6.37,1.06c3.61,0.64,7.01,1.06,10.4,1.7c2.97,0.42,5.73,0.85,8.28,1.49
				c-1.27,15.29-5.1,28.45-10.83,39.91l2.34,0.21c36.51,2.97,62.41-3.61,80.25-15.71c1.49,2.97,3.18,5.73,4.88,8.49
				c17.41,27.81,44.16,46.49,79.19,55.62c35.88,9.55,76.64,8.49,115.91-2.97c4.67,2.34,9.13,0.85,12.31-0.64
				c0.85-0.42,1.7-1.06,2.34-1.7c42.46-9.55,49.68-13.16,52.22-15.5l0.85-0.42C788.07,657.83,787.44,639.15,787.44,638.3"/>
		</g>
	</g>
	<path id="XMLID_80_" class="st2" d="M319.54,520.26c-1.06,14.01,11.68,16.13,18.89,13.37c1.49,11.46,11.46,11.68,16.35,11.04
		c-5.94,3.82-17.62,1.27-19.74-9.55C325.91,537.88,315.72,530.45,319.54,520.26 M322.09,517.29c2.12-1.91,3.82-2.55,7.22-2.55
		c-1.49,2.12-1.91,5.31-2.12,8.7l-1.91-1.27v2.34l1.91,1.49c0,2.12,0,3.61,0.42,5.1l-1.27-0.85
		C319.75,526.42,322.09,517.29,322.09,517.29 M333.34,515.17c4.88,1.49,8.28,5.73,8.07,10.19h0.64c-0.42,3.18-3.82,7.43-10.61,6.37
		c-0.42-1.49-0.42-2.76-0.42-4.25c1.06,0.42,2.34,0.64,3.61,0.64l0.21-1.91c-1.27-0.21-2.55-0.64-3.82-1.06
		C331,521.33,331.85,517.93,333.34,515.17 M344.59,525.57c9.77-0.21,17.41,9.55,12.53,16.56l-1.7,0.21
		c-8.49,1.06-13.37-2.34-14.65-9.77C342.04,531.52,344.17,528.97,344.59,525.57 M333.34,538.1c0,0,0.42,1.49,1.49,3.4l0,0
		c0.85,1.7,2.55,3.4,4.25,4.46c12.95,7.85,20.17-2.12,20.38-2.12c0,0,5.94-7.85-2.76-16.35c-0.21-0.21-5.52-4.88-12.74-4.03
		c-0.85-2.97-4.46-11.25-15.29-11.04l0,0l0,0c-8.7,0.64-10.61,5.31-11.68,8.07c0,0-2.12,5.94,1.06,11.04
		C318.05,531.52,322.3,539.8,333.34,538.1"/>
	<path id="XMLID_86_" class="st1" d="M561.98,271.03c-2.97-1.91-7.22-8.07-6.58-13.16C562.19,257.87,564.1,267.63,561.98,271.03"/>
	<path id="XMLID_87_" class="st1" d="M568.99,289.29c-3.4-3.4-5.1-7.01-5.52-12.53C568.77,277.82,572.17,284.41,568.99,289.29"/>
	<path id="XMLID_88_" class="st1" d="M540.33,276.13c0,0,4.25,13.16,9.55,26.54c14.01-3.61,23.99,22.29-0.64,24.2
		c2.34,10.4,25.69,5.94,16.77-17.41c-1.7-4.67-17.41-36.94-20.38-45.01c-1.91-5.1-1.91-5.94-1.91-7.85l0.21-1.91l-0.42,0.21
		l-5.1,2.55C534.81,261.9,540.33,276.13,540.33,276.13"/>
	<path id="XMLID_89_" class="st1" d="M529.92,261.48c0,0-2.12,4.46,0.85,13.59c4.03,11.89,10.19,29.3,10.19,29.3l5.1-0.85
		l-9.55-26.96c0,0-4.03-10.4-1.91-17.2"/>
	<path id="XMLID_90_" class="st1" d="M588.94,324.53c-5.94,0-17.83,0-17.83,0c-0.21,3.61-5.31,7.22-5.31,7.22
		C584.48,332.81,588.94,324.53,588.94,324.53"/>
	<path id="XMLID_91_" class="st1" d="M354.14,430.25l7.01,7.64l26.11-42.88c4.25-6.79,12.1-16.35,11.46-15.92
		c0,0-3.18-8.07-4.88-11.25c-1.91-4.03-1.7-7.64-1.7-7.64c1.49-1.7-9.13,10.83-13.59,18.05c-4.25,6.37-16.77,26.11-30.36,48.19
		C351.17,426.64,354.14,430.25,354.14,430.25"/>
	<path id="XMLID_92_" class="st1" d="M708.68,477.59c0,0-22.29,2.34-29.93,1.7c0.64,0,3.4,0.42,5.94,2.55
		C684.9,481.84,704.43,479.29,708.68,477.59"/>
	<polyline id="XMLID_93_" class="st1" points="678.74,479.29 678.53,479.29 678.74,479.29 	"/>
	<path id="XMLID_94_" class="st1" d="M686.38,549.77c0,0-13.59,0.21-32.48-0.21l5.52,12.95l21.23-4.25
		C680.86,558.48,688.51,558.05,686.38,549.77"/>
	<path id="XMLID_95_" class="st1" d="M634.16,512.83c0,0-12.53,2.12-14.86,2.34c0,0,18.68,45.86,21.65,51.38
		c0,0,12.31-1.91,14.86-2.97C655.81,563.78,643.71,539.37,634.16,512.83"/>
	<path id="XMLID_96_" class="st1" d="M667.07,586.08c0,0-12.74,2.76-15.92,3.4c0,0,18.05,32.91,52.01,49.46
		c0,0-0.42-12.95-1.06-18.05C702.09,620.89,680.44,606.24,667.07,586.08"/>
	<g id="XMLID_97_">
		<g>
			<defs>
				<rect id="SVGID_3_" x="12.56" y="105.23" width="774.87" height="589.54"/>
			</defs>
			<clipPath id="SVGID_4_">
				<use xlink:href="#SVGID_3_"  style="overflow:visible;"/>
			</clipPath>
			<path id="XMLID_99_" class="st4" d="M769.82,644.67c0,0,4.03,11.89-39.27,17.41c0,0,25.9-3.61,32.91-12.31
				c0,0,6.79-5.73-7.01-8.7c-13.37-2.97-15.5-1.49-28.45-7.01c0,0,0.85,12.74,0.64,15.71c0,0,8.49,2.55,13.16,2.34
				c0,0,0.21-3.82-10.61-7.22c0,0,47.34,4.46-2.55,15.07c0,0,0.21,9.77-1.06,16.13c0,0,25.9-6.79,33.75-9.13
				C770.03,664.41,787.44,656.13,769.82,644.67"/>
		</g>
	</g>
	<path id="XMLID_100_" class="st1" d="M470.06,528.54c14.22,31.21,19.74,44.37,24.84,53.92c10.61,0.85,16.98-0.42,16.98-0.42
		l-24.84-53.29C487.25,528.76,479.82,529.61,470.06,528.54"/>
	<path id="XMLID_101_" class="st1" d="M460.5,504.13c7.43,1.49,16.98,1.06,16.98,1.06L408.92,353.4c0-0.21-1.7-0.64-3.61-0.64
		c-2.55,0-6.37,1.91-8.28,5.1c-1.49,2.55-1.49,4.88,0,7.43C397.24,365.5,431.42,440.23,460.5,504.13"/>
	<path id="XMLID_102_" class="st1" d="M723.11,671.21c5.52-61.14-18.05-142.24-41.61-185.76c-3.4-2.76-7.43-2.76-10.61-1.27
		c-1.49,0.64-3.4,2.34-3.61,2.76l-0.21,1.49v0.64c0,0-2.55,1.06-6.79,1.49c-33.12,6.58-146.06,20.38-177.05,19.53
		c-0.85,0-15.71,0.21-28.45-1.27c-23.56-2.55-35.67-9.55-52.44-22.72c-15.07-14.22-45.86-45.86-51.16-53.07
		c-2.55-2.97-7.01-2.12-9.34-0.21c-3.18,2.55-4.88,7.22-1.7,11.68c12.31,13.37,42.67,42.25,42.88,42.67
		c27.39,29.72,54.98,35.88,80.03,37.36c17.41,1.27,39.91,0.21,36.09,0.42c45.86-2.76,123.56-13.59,166.23-21.44
		c3.18-0.64,5.73-1.27,5.73-1.27h1.49c2.12,0.85,4.03,7.22,4.03,7.64v-0.21c4.46,11.25,13.37,40.12,13.37,40.34
		c0,0,2.55,8.92,1.49,9.77c-1.49,1.49-13.37,4.25-13.37,4.25c-21.87,5.73-112.3,19.32-161.13,21.87c-0.42,0-13.16,2.12-40.97-2.12
		l-181.51-29.72l-9.98,13.8l187.88,30.78c17.2,2.76,30.78,3.4,40.34,3.18l5.52-0.21c6.79-0.21,10.61-0.85,10.83-0.85
		c50.53-5.09,114.64-13.37,156.04-23.14c0,0,4.67-1.06,8.28-0.85c1.49,0,3.4,0.85,3.4,0.85c0.64,0.64,1.7,2.34,2.34,5.31
		c7.43,26.75,8.92,66.87,9.13,68.57c0,0,0.21,8.28-1.27,11.46c-1.7,1.91-7.85,2.97-7.85,2.97c-67.08,17.2-145.42,5.1-175.78-60.08
		c-6.58,0.64-16.56,0.42-16.56,0.42c0.42,2.34,2.97,7.01,2.97,7.01c19.53,43.31,54.77,60.72,84.71,68.57
		c32.91,8.7,71.97,8.07,108.27-1.27c5.94-1.91,5.73-2.34,5.73-2.34c5.52,2.76,10.83,0.42,10.83,0.42
		C721.41,677.15,722.69,674.39,723.11,671.21"/>
	<path id="XMLID_103_" class="st1" d="M316.99,520.26c1.06-2.76,2.97-7.43,11.68-8.07l0,0l0,0c10.83-0.42,14.65,8.07,15.29,11.04
		c7.22-0.85,12.53,3.82,12.74,4.03c8.7,8.49,2.76,16.35,2.76,16.35s-7.22,9.98-20.38,2.12c-1.7-1.06-3.4-2.76-4.25-4.46l0,0
		c-1.06-1.91-1.49-3.4-1.49-3.4c-11.04,1.7-15.29-6.58-15.29-6.58C314.66,526.21,316.99,520.26,316.99,520.26 M298.1,524.09
		L298.1,524.09L298.1,524.09l31.21,19.11l3.61,2.12l0,0l9.98,6.16c7.43,4.88,16.13,1.06,20.8-5.31c4.03-5.52,5.52-13.37-2.76-21.23
		c0,0-1.49-1.91-8.7-5.94c-6.58-3.61-29.72-17.83-40.76-24.63c0,0-4.25-2.55-5.73-5.52c-1.49,2.55-4.67,7.64-11.25,16.98
		c-2.97,4.03-3.82,7.64-2.97,11.04C293,521.54,298.1,523.87,298.1,524.09"/>
	<path id="XMLID_106_" class="st1" d="M369.01,510.71c-6.58-4.88-21.44-14.86-32.91-22.08l-2.76,2.55c0,0,25.26,16.77,31.84,21.23
		c7.43,5.1,10.4,11.46,9.13,17.83C374.31,530.03,380.47,519.42,369.01,510.71"/>
	<path id="XMLID_107_" class="st1" d="M313.6,491.6c10.83,6.79,46.49,27.81,46.49,27.81s9.55,6.16,9.98,13.8
		c2.97-8.28-1.91-14.44-7.01-18.05l-33.12-22.08c-6.16,1.7-19.32-5.1-18.68-13.8C307.86,482.26,307.23,487.57,313.6,491.6"/>
	<path id="XMLID_108_" class="st1" d="M340.77,532.58c1.49,7.64,6.16,11.04,14.65,9.77l1.7-0.21c4.88-7.22-2.76-16.98-12.53-16.56
		C344.17,528.97,342.04,531.52,340.77,532.58"/>
	<path id="XMLID_109_" class="st1" d="M335.04,535.13c2.12,10.61,13.8,13.16,19.74,9.34c-4.67,0.85-14.65,0.42-16.35-10.83
		c-7.22,2.55-19.96,0.64-18.89-13.37C315.72,530.45,325.91,537.88,335.04,535.13"/>
	<path id="XMLID_110_" class="st1" d="M720.35,479.08c-9.13,2.55-22.08,5.31-32.27,7.01c3.4,6.79,4.25,9.55,5.52,12.31
		c-0.42,0.21,4.88-0.85,10.61-1.91c9.13-1.7,18.47-3.82,23.14-5.31l1.91-0.42c5.1-1.06,5.73-5.73,5.52-6.79
		c-0.42-3.18-2.12-5.73-6.16-6.37C728.42,477.38,723.32,478.23,720.35,479.08"/>
	<path id="XMLID_111_" class="st1" d="M740.73,542.56c-7.22,1.7-29.3,5.94-29.3,5.94l1.49,3.82c5.94-0.64,31.42-7.01,31.42-7.01
		c4.88,0,5.1,3.18,5.1,3.18c-9.77,3.61-35.03,8.92-35.03,8.92c1.06,4.67,3.61,14.01,3.61,14.01c29.72-5.31,36.3-8.7,36.3-8.7
		c8.7-3.61,5.31-13.8,5.31-13.8C756.23,537.04,740.73,542.56,740.73,542.56"/>
	<path id="XMLID_112_" class="st1" d="M733.51,494.36c0,0,7.64,18.89,12.74,42.46c21.65-0.21,22.93,25.9,10.19,29.93
		c0,0,8.28,41.61,10.4,64.54c0.21,4.25,0,7.64,0,7.64c8.92,1.91,14.22,8.07,14.22,11.46c4.46-26.32-11.04-102.33-30.78-157.73
		c-5.52-20.38-17.2-17.83-17.2-17.83C739.88,476.96,745.4,487.78,733.51,494.36"/>
	<path id="XMLID_113_" class="st1" d="M662.82,484.81c0,0,0.21-4.03,4.46-4.46c0,0-18.26,1.91-42.88-1.49l4.88,11.04
		C629.28,489.91,652.84,487.36,662.82,484.81"/>
	<path id="XMLID_114_" class="st1" d="M279.2,565.48c0,0,17.83-26.54,22.72-33.75c0,0-11.89-7.01-13.37-9.98l-23.56,36.09
		c-1.27,1.7-1.49,3.4-0.64,5.09c1.27,2.76,5.1,5.1,8.7,5.31C274.96,568.46,277.51,568.03,279.2,565.48"/>
	<path id="XMLID_115_" class="st1" d="M413.37,352.98c1.27,2.12,4.46,9.13,4.46,9.13c5.94-4.46,11.68-7.85,22.29-11.68
		c33.97-13.8,74.3-21.87,110.18-29.08l2.76-0.64c5.94-0.85,7.43-4.46,7.01-7.64c-0.42-3.4-4.46-6.79-9.13-5.94
		c-44.58,7.22-96.38,20.59-121.22,30.99c-8.7,3.61-14.86,6.79-19.74,9.98C411.25,349.16,411.46,349.58,413.37,352.98"/>
	<path id="XMLID_116_" class="st1" d="M329.73,488l18.05-28.66c0,0-7.22-6.58-11.68-12.74c-14.86,24.2-18.89,30.78-19.11,31.21v0.21
		l-0.21,0.21c-2.12,2.55,1.49,6.16,2.12,6.79C322.3,488,327.4,489.91,329.73,488"/>
	<path id="XMLID_117_" class="st1" d="M595.52,318.16c7.01,0.64,20.8,1.91,26.11,3.18c5.73,0,6.79-3.82,7.01-5.52
		c0.21-3.18-1.49-7.01-4.46-7.43h-0.21h-0.21c-4.25-1.27-24.2-3.61-32.06-4.46C591.91,303.72,595.52,312.22,595.52,318.16"/>
	<path id="XMLID_118_" class="st1" d="M534.38,459.12c-13.37-14.65-6.79-73.88,16.77-76.64
		C534.81,394.37,529.5,436.41,534.38,459.12 M634.37,304.15l-30.15-54.35l-11.68,5.31l21.02,46.92l2.34,0.21
		c1.7,0.21,3.4,0.42,10.19,2.34c8.92,2.55,10.4,22.5-6.37,20.8c-2.76-0.42-5.31-0.64-7.64-0.85l0,0c-2.97-0.42-6.58-1.06-10.61-1.27
		h-0.85c4.25,16.77,2.97,39.27-19.53,44.37c11.68-5.09,1.49-8.7,0.85-8.92c-24.41-5.52-64.96,1.91-69.42-1.06
		c26.11-2.55,28.02-15.5,25.9-28.87c-1.27,0.21-2.76,0.42-4.03,0.85c2.55,14.01-3.4,19.32-11.25,22.29
		c-11.89,4.03-20.59,4.25-20.8,4.03l-7.85-0.21c3.4-1.06,9.98-1.49,18.26-3.18c12.53-2.55,19.74-8.07,18.89-22.5
		c-1.49,0.21-3.18,0.64-4.88,1.06c0.21,4.25-0.42,7.64-1.91,10.19c-2.55,4.67-11.25,6.37-15.92,7.01l-6.79,0.85
		c-26.96,3.4-37.58,8.49-54.56,17.62c0,0-2.12,1.27-3.18,2.12c-5.1,2.97-11.89,7.64-18.68,14.44c0.85,1.7,1.49,3.4,2.34,5.31
		c3.18-2.97,6.37-5.94,10.19-8.92c0,0,7.64-6.58,17.2-10.83c-13.8,8.7-22.08,17.41-26.32,21.87c10.83,23.99,25.48,56.05,39.7,87.68
		c-3.18-24.41,43.73-43.1,60.93-2.34c3.18,7.85,6.16,16.35,8.49,25.48c3.4-0.42,6.79-0.64,10.4-1.06
		c-1.06-4.46-2.34-9.13-3.82-13.59c-2.55-10.4-4.46-24.84-4.25-40.34v-2.34c7.01,8.28,32.48,35.88,62.84,44.58l-7.64-18.47
		c0,0-30.57-13.16-53.29-47.98c0.21-1.7,0.64-2.97,0.85-3.82c2.55-12.74,7.22-24.84,14.65-34.18l1.49-1.7
		c0.42-0.64,1.27-1.7,2.55-2.97l48.19,113.15c0,0,8.07-0.64,15.29-1.91c0,0-38.21-90.44-49.68-117.82l2.55-0.21l1.06-0.21l1.7-0.21
		c11.46-2.12,17.62-7.22,21.87-15.29c3.82-6.79,4.25-15.92,3.61-23.35l1.91-2.12c1.06-0.85,2.34-1.7,3.82-2.55
		C625.24,335.57,648.38,326.44,634.37,304.15"/>
	<path id="XMLID_121_" class="st1" d="M334.61,528.12c-1.27,0-2.55-0.21-3.61-0.42c0,1.49,0,2.97,0.42,4.25
		c6.79,1.06,10.19-3.18,10.61-6.37h-0.64c0.21-4.25-3.4-8.49-8.07-10.19c-1.49,2.76-2.34,6.16-2.34,9.77
		c1.27,0.64,2.55,1.06,3.82,1.06L334.61,528.12"/>
	<path id="XMLID_122_" class="st1" d="M326.55,530.24l1.06,0.85c-0.42-1.49-0.42-2.97-0.42-5.09l-1.91-1.49v-2.34l1.91,1.27
		c0.21-3.18,0.64-6.58,2.12-8.7c-3.18-0.21-4.88,0.64-7.22,2.55C322.09,517.29,319.75,526.42,326.55,530.24"/>
	<g id="XMLID_123_">
		<g>
			<defs>
				<rect id="SVGID_5_" x="12.56" y="105.23" width="774.87" height="589.54"/>
			</defs>
			<clipPath id="SVGID_6_">
				<use xlink:href="#SVGID_5_"  style="overflow:visible;"/>
			</clipPath>
			<path id="XMLID_125_" class="st5" d="M251.18,559.33c-3.18,1.06-6.58,1.49-9.98,1.49c-9.55,0-19.11-4.25-26.11-11.68
				c-13.8-14.44-14.65-36.73-1.91-49.68c5.73-5.73,13.59-8.92,21.87-8.92c9.55,0,19.11,4.25,26.11,11.68
				c7.22,7.43,10.83,16.98,11.04,26.32L251.18,559.33z M298.1,592.02c-26.11,27.6-77.7,27.39-107-10.19
				C240.78,627.9,287.06,597.54,298.1,592.02 M221.67,633.84c-2.34,1.91-5.31,2.55-8.49,2.34c-3.4,2.12-8.92,1.06-12.74-3.18
				c-3.61-3.82-4.67-8.7-2.97-12.1c-0.85-5.52,0.85-11.04,4.88-13.8c5.94-4.03,14.86-1.49,19.96,5.73
				C227.4,620.04,227.19,629.17,221.67,633.84 M343.95,584.8c8.49,0,15.5,7.01,15.5,15.71c0,6.37-3.82,11.89-9.34,14.22
				c-1.91,1.91-4.46,3.18-7.43,3.18c-4.03,0-7.43-2.34-9.13-5.94c-3.18-2.76-5.1-7.01-5.1-11.46
				C328.46,591.6,335.25,584.8,343.95,584.8 M509.97,276.13c-0.64-1.49-1.49-4.03-2.12-6.79c-0.42-2.55-0.85-5.31-0.21-7.85
				c0.21-1.27,0.64-2.55,1.49-3.61l0.64-0.64l1.7-1.49l1.06-0.64c-16.77-28.24-42.25-56.89-74.94-80.46
				c-26.96-19.32-58.59-35.24-94.47-44.58l-1.27-0.42l-0.85-0.21c-36.09-9.13-76-11.68-119.1-4.25
				c-60.5,19.32-114.85,56.47-152.43,108.48l-0.85,1.27l-0.42,0.64C23.18,299.05,3.65,384.4,29.12,486.3
				c19.53,70.91,42.25,108.48,67.08,143.72c0,0-1.06,17.2,28.45,8.28c6.79-2.12,12.74-3.61,18.47-4.46
				c17.2-2.55,31.63,0.85,52.44,16.56c1.27,0.85,2.55,1.91,3.82,2.76c49.25,34.39,129.92,49.25,182.57,21.87
				c13.59-7.01,25.05-16.77,33.97-29.93l0.42-0.64c4.03-5.73,6.37-10.83,8.49-16.77c3.82-10.83,4.88-21.65,4.46-31.84
				c-3.4-0.64-6.79-1.06-10.4-1.7c-2.34,44.16-46.07,86.62-124.19,81.73c-32.69-1.27-67.51-16.98-88.1-28.45
				c-9.55-6.37-36.51-21.44-49.46-24.41c11.25,0.64,39.27,15.29,51.16,22.08c24.2,12.53,57.96,24.41,86.62,25.48
				c52.22,4.88,111.45-21.87,117.82-77.7c-52.44-8.7-121.86-20.38-132.05-22.08c-2.12,1.49-4.67,2.12-7.43,1.91
				c-5.31-0.42-10.4-3.61-12.53-7.85c-1.49-3.18-1.27-6.58,0.85-9.55l24.84-36.94l1.06-1.91c-1.06-5.73,1.49-10.61,2.76-11.89
				c2.12-2.12,13.37-20.59,15.92-25.69c0.21-0.64,3.4-5.31,9.13-5.73c2.55-4.25,8.92-14.44,19.74-31.84
				c-0.85-4.88,1.49-9.77,4.88-12.53c1.06-0.85,2.12-1.49,3.4-1.91c13.37-21.44,28.24-45.01,32.27-51.16
				c4.67-6.58,8.49-10.83,12.74-15.71c1.49-1.7,5.09-4.46,6.58-5.73c1.91-2.76,4.88-4.67,8.07-5.73l0.64-0.85
				c10.61-8.7,25.9-14.22,25.9-14.22c20.17-8.49,56.05-18.26,92.77-25.48c-2.55-7.43-10.61-30.78-10.61-30.78L509.97,276.13"/>
		</g>
		<g>
			<defs>
				<rect id="SVGID_7_" x="12.56" y="105.23" width="774.87" height="589.54"/>
			</defs>
			<clipPath id="SVGID_8_">
				<use xlink:href="#SVGID_7_"  style="overflow:visible;"/>
			</clipPath>
			<path id="XMLID_131_" class="st6" d="M575.57,284.62c1.7,7.85-3.82,12.1-9.55,5.52c-2.34-2.76-3.4-5.09-4.46-8.28l-0.21-0.64
				c-1.06-4.03-0.42-7.43-0.42-7.43c-1.7-1.49-2.97-2.97-3.82-4.25l-0.85-1.06c-1.49-2.12-2.34-4.03-2.55-5.31l-0.21-1.06v-0.21
				c-0.21-1.27-0.21-2.55-0.21-3.4c0-2.12,0.42-3.4,0.85-4.03l0,0l0.42-0.64h0.21l0.21-0.21c1.49-0.85,3.4-0.42,3.4-0.42
				c4.88,0.64,10.61,7.64,10.61,17.83v1.27C571.75,274.85,573.87,277.61,575.57,284.62 M182.19,646.79
				c-0.85,0.64-1.7,1.27-2.76,1.91c-11.89,8.49-39.7,18.89-64.33,21.23c-25.05,4.03-39.06-13.59-34.18-26.96l-1.27-3.4
				c-1.27-3.18-17.41-36.09-15.71-50.31c13.37,24.41,25.05,39.91,28.66,43.52l0.42,1.7c-0.21,3.61,0.42,14.01,21.02,10.19
				c-6.37,12.1-29.72,5.52-25.05-10.61c-3.4-4.25-11.68-17.62-11.68-17.62l0.42,3.61c2.76,5.73,7.64,15.71,7.64,15.71
				c-3.61,23.35,29.93,25.26,32.48,8.07h0.21c1.7-0.42,1.7,0,2.97-0.64c-1.49,7.01-4.88,10.83-8.92,12.95
				c-7.22,3.61-9.34,9.98,1.7,9.34c11.25-0.85,30.99-4.03,54.35-15.29l4.88-2.76c-9.98-6.16-20.38-7.22-27.39-7.85
				c-5.52-0.42-14.44,1.06-20.8,2.34l1.27-0.42C152.47,632.78,169.02,638.3,182.19,646.79 M589.37,256.81l-4.46,1.7
				c-0.85-1.49-2.12-2.34-4.25-2.76l-1.91-0.21C414.86-37.43-90.19,124.97,31.25,512.62c8.49,27.39,19.11,51.16,29.08,70.27
				c-0.85,3.4-2.12,9.98,0,18.89c3.4,12.53,6.16,19.96,16.13,42.03c-4.03,14.86,9.98,36.73,43.73,30.36
				c40.12-6.16,61.14-20.8,66.02-24.41c1.27,0.85,2.76,1.91,4.03,2.97c71.33,55.62,187.88,60.08,230.76-5.73
				c17.2,3.61,38.64,0.64,38.64,0.64c22.29-1.49,40.34-7.43,54.35-16.77c-1.7-2.76-3.4-5.52-4.88-8.49
				c-18.05,12.1-43.94,18.68-80.46,15.71l-2.34-0.21c5.73-11.46,9.55-24.84,10.83-39.91c-2.76-0.42-5.52-0.85-8.28-1.49
				c0.42,10.19-0.64,21.02-4.46,31.84c-2.12,5.94-4.46,11.04-8.49,16.77l-0.42,0.64c-8.7,12.95-20.38,22.93-33.97,29.93
				c-52.65,27.39-133.32,12.53-182.57-21.87c-1.27-0.85-2.55-1.91-3.82-2.76c-21.02-15.71-35.24-19.11-52.44-16.56
				c-5.73,0.85-11.68,2.34-18.47,4.46c-29.51,8.92-28.45-8.07-28.45-8.07c-24.84-35.24-47.55-72.82-67.08-143.72
				C3.22,385.25,22.97,299.9,67.76,236.43l0.42-0.64l0.85-1.27c37.36-52.01,91.92-89.16,152.43-108.48
				c43.1-7.22,83.22-4.88,119.1,4.25l0.85,0.21l1.27,0.42c35.67,9.34,67.51,25.26,94.47,44.58c32.69,23.56,58.17,52.22,74.94,80.46
				l-1.06,0.64l-1.7,1.49l-0.64,0.64c-0.64,1.06-1.06,2.34-1.49,3.61c-0.42,2.55-0.21,5.31,0.21,7.85c0.64,2.76,1.49,5.31,2.12,6.79
				l0.64,1.27c0,0,8.07,23.35,10.61,30.78l0,0c1.7-0.21,3.18-0.64,4.88-1.06l-12.1-33.54c-4.88-11.25,0.64-15.5,0.64-15.5
				c-1.49,4.25-0.21,9.13,0.64,11.68c1.49,4.88,6.79,19.53,11.25,30.78c0.85,2.12,1.7,4.25,2.34,6.37c1.27-0.21,2.55-0.42,4.03-0.85
				c-3.82-11.25-8.92-24.41-10.4-28.87c-1.27-3.61-1.91-5.1-3.61-11.04c-2.34-8.07,0.85-8.07,4.25-8.49c1.91-0.21,7.64,0,9.34,0
				c3.61-1.91,11.04-5.52,15.5-7.85c-53.92-91.07-161.77-152-303.37-131.2c111.67-27.17,238.62,4.88,314.83,113.79
				c4.03,6.79,7.43,10.4,13.59,22.72c-0.85,0-1.91,0-2.76,0c-4.25-5.94-8.49-7.85-13.8-8.07c-0.21,0-10.4,0-9.13,10.4
				c0.42,3.18,1.7,7.01,2.55,8.92l0,0l7.64,15.92l1.91,4.25l7.22,14.86c0,0,5.52,10.83,5.73,16.56l19.53,0.42
				c0,0,0.21-5.94-3.82-16.77c-2.97-7.64-12.1-35.88-15.07-41.61l-0.21-0.21c1.06,0,4.88,0,7.01,0.64
				c3.82,9.77,9.55,26.75,13.8,39.91l4.88,0.21c1.7,0.21,8.49,0.64,10.83,1.27"/>
		</g>
	</g>
	<path id="XMLID_135_" class="st2" d="M568.99,289.29c-3.4-3.4-5.1-7.01-5.52-12.53C568.77,277.82,572.17,284.41,568.99,289.29
		 M561.98,271.03c-2.97-1.91-7.22-8.07-6.58-13.16C562.19,257.87,564.1,267.63,561.98,271.03 M575.57,284.62
		c-1.49-7.01-3.82-9.77-6.79-12.74v-1.27c0-9.98-5.73-16.98-10.61-17.83c0,0-1.91-0.42-3.4,0.42l-0.21,0.21h-0.21l-0.42,0.64l0,0
		c-0.42,0.85-0.85,2.12-0.85,4.03c0,0.85,0,2.12,0.21,3.4v0.21l0.21,1.06c0.42,1.27,1.27,3.4,2.55,5.31l0.85,0.85
		c0.85,1.27,2.12,2.76,3.82,4.25c0,0-0.42,3.4,0.42,7.43l0.21,0.42c1.06,3.18,2.12,5.73,4.46,8.28
		C571.53,296.51,577.27,292.47,575.57,284.62"/>
</g>
</svg>
