<?xml version="1.0" encoding="utf-8"?>
<!-- Generator: Adobe Illustrator 27.9.0, SVG Export Plug-In . SVG Version: 6.00 Build 0)  -->
<svg version="1.1" id="Layer_1" xmlns="http://www.w3.org/2000/svg" xmlns:xlink="http://www.w3.org/1999/xlink" x="0px" y="0px"
	 viewBox="0 0 800 800" style="enable-background:new 0 0 800 800;" xml:space="preserve">
<style type="text/css">
	.st0{fill-rule:evenodd;clip-rule:evenodd;fill:#FFFFFF;}
	.st1{fill-rule:evenodd;clip-rule:evenodd;fill:#0080C6;}
	.st2{fill-rule:evenodd;clip-rule:evenodd;fill:#FFC20E;}
</style>
<g>
	<path class="st0" d="M184.54,323.21c-3.46-3.15-6.93-6.3-10.39-9.46l-9.64-8.77l11.13-6.78c73.46-44.77,159.26-53.49,243.2-45.15
		c-1.22-2.21-2.44-4.42-3.66-6.63l-9.1-16.52l18.74,2.11c90.68,10.19,178.49,42.46,247.9,102.84
		c68.59,57.91,114.66,132.84,112.2,235.03l-16.53-20.38c-53.67-62.85-116.07-110.85-189.96-145.61c2.33,5.33,4.65,10.66,6.98,16
		l10.6,24.3l-23.83-11.63c-73.6-35.92-150.06-52.33-230.87-52.74c2.19,2.49,4.38,4.98,6.57,7.48l12.81,14.58l-19.35,1.59
		c-65.86,5.4-128.64,20.47-186.71,52.69c-52.8,29.3-98.03,70.66-139.66,113.96C24.8,457.88,88.83,378.73,184.54,323.21"/>
	<path class="st1" d="M27.04,543.5c73.06-69.42,150.09-136.37,313.52-149.78c-6.86-7.81-13.72-15.62-20.59-23.43
		c85.5-2.44,171,11.75,256.49,53.48c-5.68-13.01-11.36-26.03-17.04-39.04c92.76,39.05,161.49,94.12,216.39,158.42
		c-9.03-88.92-52.63-151.48-109.5-200.95c-59.57-51.81-141.21-89.11-242.59-100.5c4.26,7.73,8.52,15.46,12.78,23.19
		c-109.25-14.11-191.96,2.75-255.79,41.64c7.02,6.39,13.36,12.16,20.38,18.55C91.43,385,44.57,460.86,27.04,543.5"/>
	<path class="st2" d="M69.68,478.25c22.03-18.02,46.84-33.63,72.64-47.95c50.55-28.06,100.28-44.39,156.59-52.42l-20.33-22.01
		c81.56-14.34,168.49-4.3,258.68,29.76l-14.07-32.98c43.67,6.17,154.66,57.14,218.31,126.4c-17.21-47.26-47.47-85.94-88.12-121.29
		c-55.04-47.87-120.83-76.4-191.79-89.84l15.08,26.7c-87.14-21.18-179.68-24.04-262.54,15.93c0.03,0.03,0.07,0.06,0.1,0.09
		l21.68,19.15C165.7,364.05,107.49,408.03,69.68,478.25"/>
</g>
</svg>
