<?xml version="1.0" encoding="utf-8"?>
<!-- Generator: Adobe Illustrator 27.9.0, SVG Export Plug-In . SVG Version: 6.00 Build 0)  -->
<svg version="1.1" id="Layer_1" xmlns="http://www.w3.org/2000/svg" xmlns:xlink="http://www.w3.org/1999/xlink" x="0px" y="0px"
	 viewBox="0 0 800 800" style="enable-background:new 0 0 800 800;" xml:space="preserve">
<style type="text/css">
	.st0{fill:#FFFFFF;}
	.st1{fill:#020202;}
	.st2{fill:#E31837;}
</style>
<g>
	<path d="M350.32,619.4c-7.71-0.76-17.42-1.34-27.14,0.63c-6.78,1.38-13.45,3.14-19.57,6.29c-20.17,10.38-41.2,13.97-63.63,9.65
		c-24-4.62-47.78-2.39-71.38,3.22c-7.89,1.88-15.86,2.24-23.74-0.25c-12.74-4.03-18.26-12.93-15.39-25.96
		c3.5-15.86,8.46-31.34,13.38-46.82c2.19-6.9,4.33-13.85,4.21-21.23c-0.14-8.92-4.74-13.55-13.59-13.9
		c-5.55-0.22-10.64,1.37-15.51,3.71c-5.68,2.74-11.33,3.3-17.42,1.27c-11.71-3.91-22.91-2.61-33.5,3.88
		c-2.33,1.43-4.9,2.46-7.38,3.65c-8.48,4.07-16.37,2.35-23.69-2.77c-5.24-3.67-6.47-9.14-5.04-15.04
		c2.67-11.03,4.43-22.05,2.57-33.42c-1.58-9.64-3.81-19.13-6.38-28.53c-7.31-26.71-8.09-53.65-1.77-80.55
		c3.36-14.31,8.42-28.05,16.3-40.84c7.13-11.56,7.81-24.79,3.5-37.66c-3.47-10.36-4.04-20.43-1.13-30.92
		c1.91-6.88,6.75-10.29,13.01-12.18c3.76-1.14,7.35,0.1,10.1,2.7c7.18,6.78,14.8,5.93,22.83,1.94c4.92-2.45,9.84-4.92,14.9-7.04
		c10.04-4.2,16.09-2.71,23.57,5.2c3.42,3.61,6.55,7.71,11.7,9.06c12.29,3.22,21.05-4.44,20.75-17.79
		c-0.19-8.21-3.56-15.53-5.85-23.15c-3.02-10.05-6.59-19.96-9.18-30.12c-2.58-10.13-3.86-20.56,1.04-30.47
		c3.89-7.86,10.25-12.35,19.3-12.61c10.61-0.3,20.97,1.56,31.22,3.84c15.89,3.53,31.6,3.61,47.6,0.37
		c18.73-3.78,36.77-0.97,52.85,9.71c8.49,5.64,17.25,4.64,26.37,3.69c11.62-1.22,23.21-1.48,34.66,1.72
		c5.38,1.5,10.2,4.02,14.88,6.92c4.67,2.9,9.28,5.91,14.05,8.64c12.11,6.91,25.21,9.37,39.03,8.18
		c13.84-1.19,25.89,2.66,37.16,10.95c12.85,9.46,27.57,14.47,43.79,14.3c7.63-0.08,15.3-0.33,22.86,1.04
		c10.24,1.86,19.11,6.89,27.01,13.24c9.03,7.26,19.21,11.54,30.22,14.29c11.81,2.95,23.28,6.67,33.61,13.36
		c6.28,4.07,11.59,8.98,15.87,15.19c6.46,9.37,15.51,15.04,26.71,17.26c5.89,1.16,11.69,2.64,17.12,5.33
		c5.41,2.68,9.72,6.6,12.98,11.63c6.3,9.7,14.75,16.82,24.24,23.53c18.92,13.36,39.27,25.14,54.22,43.52c0.47,0.58,1,1.12,1.54,1.64
		c4.7,4.51,6.19,8.53,3.18,14.12c-10.55,19.63-23.26,37.21-46.22,43.86c-4.08,1.18-8.1,2.56-12.16,3.79
		c-10.77,3.29-19.03,9.73-24.73,19.47c-2.78,4.75-5.73,9.38-9.31,13.61c-8.43,9.97-19.63,15.15-31.79,18.83
		c-5.97,1.81-11.88,3.84-17.77,5.92c-8.71,3.07-16.2,7.94-23.19,14.1c-12.42,10.95-27.47,17.06-43.35,21.22
		c-3.15,0.82-6.34,1.47-9.47,2.34c-8.09,2.25-15.3,5.95-21.12,12.23c-8.87,9.58-19.59,15.34-32.96,15.53
		c-7.87,0.11-15.59,1.86-22.33,5.72c-15.33,8.8-31.92,12.92-49.25,14.39c-19.07,1.62-35.93,9.12-52.2,18.44
		C370.88,617.35,363.83,619.4,350.32,619.4z M52.84,494.81c-0.06,6.1-1.52,12.21,0.04,18.3c1.26,4.88,3.58,6.35,8.53,5.57
		c5.95-0.94,11.6-3.06,17.27-4.97c6.94-2.34,13.96-2.49,20.61,0.08c7.19,2.77,13.89,2.64,21.11,0.24
		c9.31-3.09,18.88-4.72,28.79-2.38c8.58,2.03,13.76,7.28,15.93,15.61c2.1,8.08,0.98,16.15-0.42,24.2
		c-2.75,15.76-7.23,31.19-9.03,47.13c-0.37,3.28-0.69,6.59,0.59,9.64c1.89,4.51,3.97,9.31,9.83,9.61
		c11.53,0.59,23.03,0.19,34.44-1.85c13.19-2.35,26.39-4.68,39.87-3.71c9.37,0.67,18.73,1.32,28.13,1.26
		c11.79-0.08,23.11-1.73,33.67-7.47c4.59-2.49,9.51-4.4,14.67-5.58c11.5-2.64,23.14-4.04,34.93-4.42
		c15.05-0.49,29.09-4.05,41.63-12.9c11.09-7.83,23.6-12.06,37.21-12.23c13.63-0.17,26.59-2.73,38.51-9.5
		c9.15-5.19,18.93-8.45,29.31-9.84c12.35-1.66,23.37-6.3,32.95-14.23c13.64-11.28,29.29-17.86,46.61-21.11
		c13.39-2.52,26.2-6.78,36.36-16.54c11.32-10.87,24.71-18.3,39.47-23.05c8.27-2.66,15.13-7.01,21.16-12.96
		c5.26-5.18,10.73-10.21,15.5-15.82c10.06-11.84,22.78-18.79,37.67-22.46c9.29-2.29,17.89-6.38,25.62-12.06
		c4.38-3.22,5.29-6.81,3.52-11.89c-1.36-3.92-4.02-6.94-7.09-9.53c-3.73-3.14-7.65-6.06-11.59-8.94
		c-14.83-10.83-30.42-20.74-41.92-35.55c-2.46-3.17-6.12-5.28-9.86-6.7c-8.14-3.11-16.05-6.88-24.67-8.65
		c-5.39-1.11-9.86-3.93-13.89-7.74c-5.44-5.14-8.85-11.8-13.63-17.41c-8.87-10.41-19.18-18.28-33.61-18.72c-3-0.09-6.01-0.14-9-0.32
		c-11.93-0.72-23.23-3.03-32.6-11.4c-5.12-4.57-11.02-8.27-16.28-12.7c-8.71-7.35-18.58-10.51-29.99-10.77
		c-13.66-0.31-26.91-3.36-38.13-11.74c-11.88-8.87-25.18-12.64-39.74-12.11c-18.44,0.67-35.07-4.66-50.31-14.63
		c-9.54-6.24-20.53-8.98-30.82-13.39c-1.01-0.43-2.18-0.52-3.29-0.67c-7.47-1.04-14.72,0.46-21.93,2.03
		c-13.74,3-26.82,2.32-38.78-6.08c-11.56-8.12-24.62-10.82-38.47-9.77c-14.55,1.1-28.99,0.65-43.4-1.64
		c-9.76-1.55-19.58-2.7-29.47-3.14c-6.66-0.3-11.2,2.94-11.46,8.59c-0.19,3.98-0.27,8.01,0.55,11.96
		c2.39,11.52,6.08,22.68,9.67,33.84c3.43,10.69,4.28,21.29,0.95,32.07c-1.39,4.51-2.23,9.51-6.25,12.55
		c-11.18,8.44-23.3,12.49-37.14,6.8c-3.46-1.42-6.95-2.8-10.47-4.07c-5.34-1.93-10.63-2.24-16.04,0.15
		c-6.07,2.68-12.3,3.43-19.03,1.92c-9.97-2.25-18.07,2.28-22.1,11.69c-2.59,6.04-2.98,12.27-1.18,18.67
		c3.24,11.55,3.05,22.76-2.22,33.97c-3.43,7.29-8.17,13.75-11.64,20.94c-8.2,16.96-11.06,34.82-9.36,53.59
		c0.87,9.61,1.16,19.25,4.52,28.41C52.6,466.55,53.46,480.59,52.84,494.81z"/>
	<path class="st0" d="M52.84,494.81c0.63-14.23-0.23-28.26-5.2-41.8c-3.36-9.16-3.65-18.81-4.52-28.41
		c-1.69-18.78,1.16-36.63,9.36-53.59c3.48-7.19,8.22-13.65,11.64-20.94c5.27-11.21,5.45-22.42,2.22-33.97
		c-1.79-6.41-1.4-12.63,1.18-18.67c4.03-9.41,12.13-13.94,22.1-11.69c6.73,1.52,12.95,0.77,19.03-1.92
		c5.41-2.39,10.69-2.08,16.04-0.15c3.52,1.27,7.01,2.65,10.47,4.07c13.85,5.69,25.96,1.64,37.14-6.8c4.02-3.04,4.86-8.04,6.25-12.55
		c3.33-10.78,2.48-21.38-0.95-32.07c-3.59-11.17-7.27-22.33-9.67-33.84c-0.82-3.95-0.74-7.98-0.55-11.96
		c0.27-5.65,4.8-8.89,11.46-8.59c9.89,0.45,19.71,1.59,29.47,3.14c14.41,2.29,28.85,2.74,43.4,1.64
		c13.85-1.05,26.91,1.65,38.47,9.77c11.97,8.4,25.04,9.07,38.78,6.08c7.21-1.57,14.47-3.07,21.93-2.03
		c1.11,0.15,2.28,0.24,3.29,0.67c10.29,4.41,21.27,7.15,30.82,13.39c15.23,9.97,31.87,15.3,50.31,14.63
		c14.56-0.53,27.86,3.23,39.74,12.11c11.22,8.38,24.47,11.44,38.13,11.74c11.42,0.26,21.28,3.42,29.99,10.77
		c5.26,4.43,11.15,8.13,16.28,12.7c9.37,8.36,20.67,10.67,32.6,11.4c3,0.18,6,0.23,9,0.32c14.44,0.44,24.74,8.32,33.61,18.72
		c4.78,5.61,8.19,12.27,13.63,17.41c4.03,3.81,8.5,6.63,13.89,7.74c8.63,1.77,16.54,5.54,24.67,8.65c3.74,1.43,7.39,3.53,9.86,6.7
		c11.5,14.8,27.08,24.72,41.92,35.55c3.94,2.88,7.86,5.8,11.59,8.94c3.07,2.59,5.72,5.61,7.09,9.53c1.77,5.08,0.86,8.67-3.52,11.89
		c-7.73,5.68-16.33,9.77-25.62,12.06c-14.9,3.67-27.62,10.62-37.67,22.46c-4.77,5.61-10.24,10.64-15.5,15.82
		c-6.04,5.94-12.89,10.3-21.16,12.96c-14.76,4.75-28.15,12.18-39.47,23.05c-10.16,9.75-22.97,14.02-36.36,16.54
		c-17.32,3.26-32.97,9.84-46.61,21.11c-9.58,7.92-20.6,12.57-32.95,14.23c-10.38,1.39-20.16,4.65-29.31,9.84
		c-11.93,6.77-24.88,9.33-38.51,9.5c-13.61,0.17-26.12,4.4-37.21,12.23c-12.54,8.85-26.58,12.41-41.63,12.9
		c-11.79,0.38-23.43,1.79-34.93,4.42c-5.16,1.18-10.08,3.09-14.67,5.58c-10.56,5.74-21.88,7.39-33.67,7.47
		c-9.41,0.06-18.77-0.59-28.13-1.26c-13.49-0.97-26.69,1.35-39.87,3.71c-11.4,2.04-22.91,2.44-34.44,1.85
		c-5.85-0.3-7.94-5.1-9.83-9.61c-1.28-3.05-0.96-6.35-0.59-9.64c1.8-15.95,6.28-31.37,9.03-47.13c1.4-8.06,2.53-16.12,0.42-24.2
		c-2.17-8.33-7.36-13.58-15.93-15.61c-9.91-2.35-19.48-0.71-28.79,2.38c-7.22,2.4-13.92,2.53-21.11-0.24
		c-6.66-2.57-13.67-2.42-20.61-0.08c-5.67,1.91-11.31,4.02-17.27,4.97c-4.95,0.78-7.27-0.68-8.53-5.57
		C51.31,507.03,52.77,500.91,52.84,494.81z M346.31,367.98c-2.01,1.48-3.83,2.81-5.64,4.14c-13.31,9.79-23.67,21.97-29.29,37.65
		c-10.49,29.26-7.14,56.31,13.7,80.28c10.78,12.4,24.6,20.31,39.61,26.32c31.89,12.77,65.1,15.77,99.12,13.88
		c24.77-1.37,48.36-6.8,71.04-16.84c20.56-9.1,38.03-22.04,51.64-39.95c7.62-10.03,12.62-21.23,13.32-34.04
		c0.08-1.5,0.38-2.85-2.14-2.81c-11.02,0.16-22.05,0.06-33.08,0.07c-1.09,0-2.01-0.14-2.57,1.41c-4.04,11.29-12.57,18.7-22.68,24
		c-38.15,19.98-78.46,24.04-120.19,14.72c-18.01-4.02-32.68-13.6-42.82-29.37c-8.71-13.55-7.06-28.29,3.99-38.96
		c2.2-2.12,3.58-2.41,5.54,0.23c1.08,1.45,0.98,2.01-0.08,3.34c-1.95,2.44-5.49,3.87-5.43,7.66c0.11,7.26,0.54,14.52,0.45,21.77
		c-0.04,2.95,0.91,3.42,3.59,3.41c25.69-0.1,51.39-0.62,77.05,0.21c10.64,0.34,18.88-1.96,25.31-10.46
		c0.87-1.15,1.58-2.04,1.57-3.55c-0.06-8.27-0.08-16.54,0.01-24.81c0.02-1.92-0.5-2.94-2.51-2.54c-3.83,0.76-6.3-1.12-8.51-3.94
		c-1.54-1.96-3.39-3.68-5.09-5.52c-7.87-8.52-15.74-17.05-23.85-25.84c8.04-1.7,15.66-2.84,23.41-3.28
		c21.17-1.22,41.05,2.61,58.88,14.72c11.81,8.02,20.94,18.55,28.46,30.54c1.21,1.94,2.49,2.7,4.78,2.64
		c6.39-0.16,12.78-0.13,19.17-0.01c2.05,0.04,3.51-0.57,4.92-2.07c3.26-3.45,8.01-6.18,9.72-10.23c1.71-4.06,0.45-9.36,0.49-14.12
		c0.01-1.38,0-2.76,0-4.13c0-16.41,0.02-32.83-0.04-49.24c0-1.21,1.02-3.24-1.71-3.22c-13.21,0.06-26.93-2.31-37.87,8.21
		c-0.18,0.17-0.45,0.23-0.63,0.4c-1.29,1.14-2.53,0.99-4.1,0.32c-5.4-2.29-10.82-4.55-16.34-6.51
		c-25.44-9.05-51.52-13.19-78.55-10.17c-13.85,1.55-27.32,4.68-40.58,8.88c-1.37,0.43-2.89,1.85-4.46,0.11
		c-1.82-2.02-3.75-3.95-5.79-6.1c10.5-6.3,20.86-12.08,30.75-18.6c6.24-4.11,12.61-6.44,19.99-5.31c9.43,1.45,17.1-1.23,22.79-9.04
		c0.15-0.2,0.33-0.38,0.53-0.53c1.57-1.15,1.92-2.68,1.89-4.58c-0.08-6.14-0.19-12.29,0.15-18.41c0.15-2.69-0.65-3.12-3.04-3.11
		c-30.57,0.06-61.15,0.05-91.72,0.03c-1.42,0-2.53,0.22-3.68,1.31c-9.01,8.51-9.04,8.48-9.04,20.82c0,0.38-0.06,0.76,0.01,1.13
		c0.54,2.79-0.88,4.2-3.2,5.52c-28.23,16.08-56.41,32.25-84.61,48.39c-0.82,0.47-1.52,1.3-2.79,1.08c0-12.02,0.07-24.03-0.06-36.03
		c-0.03-2.34,0.71-3.97,2.26-5.6c4.12-4.34,10.28-7.63,12.02-13.09c1.78-5.57,0.43-12.15,0.44-18.29c0-0.88-0.1-1.77,0.02-2.63
		c0.33-2.39-0.73-2.89-2.98-2.88c-30.07,0.07-60.14,0.06-90.22,0.02c-1.64,0-2.73,0.46-3.79,1.78c-3.31,4.08-6.79,8.03-10.23,12.01
		c-0.74,0.86-1.38,1.66-1.36,2.94c0.06,5.26,0.08,10.53-0.01,15.79c-0.03,1.66,0.56,2.18,2.16,2.14c3.63-0.08,7.27,0.1,10.9-0.07
		c2.2-0.11,2.73,0.68,2.68,2.76c-0.13,5.89-0.05,11.78-0.05,17.67c0,26.44-0.03,52.88,0.05,79.32c0.01,2.4-0.25,3.9-3.11,3.32
		c-1.47-0.3-2.29,0.64-3.11,1.62c-2.97,3.55-5.9,7.14-8.98,10.6c-1.35,1.52-1.83,3.12-1.8,5.11c0.08,6.89,0.2,13.79-0.05,20.67
		c-0.11,3.13,0.77,3.94,3.9,3.92c28.69-0.13,57.39-0.07,86.08-0.07c11.31,0,11.31-0.01,19.1-8.02c0.9-0.92,1.57-1.81,1.56-3.23
		c-0.06-9.4-0.08-18.8,0.01-28.19c0.02-2.07-0.79-2.53-2.66-2.45c-3.25,0.13-6.51,0.06-9.77,0.02c-0.81-0.01-1.78,0.38-2.34-0.64
		c-1.17-2.11,0.42-7.49,2.62-8.75c15.81-9.1,31.63-18.19,47.44-27.28C342.04,363.32,342.04,363.33,346.31,367.98z"/>
	<path class="st1" d="M346.31,367.98c-4.27-4.65-4.28-4.66-9.42-1.7c-15.82,9.09-31.63,18.18-47.44,27.28
		c-2.19,1.26-3.78,6.65-2.62,8.75c0.56,1.02,1.53,0.62,2.34,0.64c3.26,0.04,6.52,0.11,9.77-0.02c1.87-0.07,2.68,0.39,2.66,2.45
		c-0.09,9.4-0.07,18.8-0.01,28.19c0.01,1.42-0.66,2.31-1.56,3.23c-7.8,8.01-7.79,8.02-19.1,8.02c-28.69,0-57.39-0.05-86.08,0.07
		c-3.13,0.01-4.02-0.79-3.9-3.92c0.25-6.88,0.13-13.78,0.05-20.67c-0.02-1.99,0.45-3.59,1.8-5.11c3.08-3.46,6-7.05,8.98-10.6
		c0.82-0.98,1.65-1.92,3.11-1.62c2.86,0.58,3.12-0.91,3.11-3.32c-0.08-26.44-0.05-52.88-0.05-79.32c0-5.89-0.08-11.78,0.05-17.67
		c0.05-2.08-0.48-2.86-2.68-2.76c-3.63,0.18-7.27-0.01-10.9,0.07c-1.6,0.04-2.19-0.49-2.16-2.14c0.09-5.26,0.07-10.53,0.01-15.79
		c-0.02-1.27,0.62-2.08,1.36-2.94c3.44-3.98,6.92-7.92,10.23-12.01c1.07-1.32,2.15-1.78,3.79-1.78c30.07,0.04,60.14,0.05,90.22-0.02
		c2.25-0.01,3.31,0.49,2.98,2.88c-0.12,0.86-0.02,1.75-0.02,2.63c-0.02,6.14,1.34,12.72-0.44,18.29c-1.75,5.47-7.9,8.75-12.02,13.09
		c-1.55,1.63-2.28,3.26-2.26,5.6c0.13,12,0.06,24.01,0.06,36.03c1.28,0.21,1.97-0.61,2.79-1.08c28.2-16.14,56.38-32.31,84.61-48.39
		c2.32-1.32,3.74-2.74,3.2-5.52c-0.07-0.36-0.01-0.75-0.01-1.13c0-12.34,0.03-12.31,9.04-20.82c1.15-1.08,2.26-1.31,3.68-1.31
		c30.57,0.02,61.15,0.04,91.72-0.03c2.39-0.01,3.19,0.42,3.04,3.11c-0.34,6.12-0.23,12.27-0.15,18.41c0.02,1.9-0.32,3.44-1.89,4.58
		c-0.2,0.15-0.39,0.33-0.53,0.53c-5.69,7.82-13.36,10.49-22.79,9.04c-7.37-1.13-13.75,1.2-19.99,5.31
		c-9.89,6.51-20.25,12.3-30.75,18.6c2.05,2.15,3.97,4.08,5.79,6.1c1.57,1.74,3.09,0.32,4.46-0.11c13.26-4.2,26.73-7.33,40.58-8.88
		c27.03-3.02,53.11,1.12,78.55,10.17c5.52,1.96,10.94,4.22,16.34,6.51c1.57,0.66,2.81,0.82,4.1-0.32c0.18-0.16,0.46-0.23,0.63-0.4
		c10.94-10.52,24.66-8.15,37.87-8.21c2.73-0.01,1.71,2.01,1.71,3.22c0.06,16.41,0.04,32.83,0.04,49.24c0,1.38,0.01,2.76,0,4.13
		c-0.04,4.76,1.22,10.06-0.49,14.12c-1.7,4.05-6.45,6.78-9.72,10.23c-1.41,1.49-2.87,2.1-4.92,2.07
		c-6.39-0.12-12.78-0.15-19.17,0.01c-2.29,0.06-3.56-0.7-4.78-2.64c-7.52-11.99-16.65-22.52-28.46-30.54
		c-17.83-12.11-37.71-15.93-58.88-14.72c-7.74,0.44-15.37,1.58-23.41,3.28c8.11,8.79,15.98,17.31,23.85,25.84
		c1.7,1.84,3.55,3.56,5.09,5.52c2.21,2.82,4.68,4.7,8.51,3.94c2.01-0.4,2.53,0.62,2.51,2.54c-0.09,8.27-0.07,16.54-0.01,24.81
		c0.01,1.5-0.69,2.4-1.57,3.55c-6.43,8.51-14.67,10.81-25.31,10.46c-25.66-0.82-51.37-0.31-77.05-0.21
		c-2.68,0.01-3.63-0.45-3.59-3.41c0.09-7.25-0.33-14.51-0.45-21.77c-0.06-3.78,3.48-5.22,5.43-7.66c1.07-1.33,1.16-1.89,0.08-3.34
		c-1.97-2.64-3.35-2.35-5.54-0.23c-11.04,10.67-12.7,25.41-3.99,38.96c10.13,15.77,24.81,25.34,42.82,29.37
		c41.73,9.33,82.04,5.26,120.19-14.72c10.11-5.3,18.65-12.71,22.68-24c0.55-1.55,1.47-1.41,2.57-1.41
		c11.03-0.01,22.05,0.08,33.08-0.07c2.52-0.04,2.22,1.31,2.14,2.81c-0.7,12.81-5.7,24.01-13.32,34.04
		c-13.61,17.91-31.08,30.85-51.64,39.95c-22.68,10.04-46.27,15.46-71.04,16.84c-34.02,1.89-67.24-1.11-99.12-13.88
		c-15.01-6.01-28.83-13.91-39.61-26.32c-20.84-23.98-24.19-51.02-13.7-80.28c5.62-15.68,15.98-27.86,29.29-37.65
		C342.49,370.79,344.3,369.46,346.31,367.98z M397.77,287.25c-0.57,0.46-0.73,0.63-0.93,0.74c-37.9,21.71-75.81,43.4-113.68,65.15
		c-2.95,1.69-2.94,0.21-2.94-2.08c0.04-20.17,0.06-40.34-0.03-60.52c-0.01-2.53,0.54-3.54,3.29-3.46c3.72,0.12,8.65,1.63,10.89-0.56
		c2.43-2.38,0.41-7.36,0.84-11.18c0.35-3.18-0.52-4.21-3.99-4.19c-26.31,0.17-52.62,0.18-78.93,0c-3.73-0.03-4.76,1.01-4.4,4.56
		c0.37,3.59-1.16,8.43,0.67,10.52c2.1,2.41,7.07,0.86,10.75,0.71c3.18-0.13,3.65,1.09,3.63,3.87c-0.11,17.41-0.06,34.83-0.06,52.25
		c0,21.55-0.07,43.1,0.07,64.65c0.02,3.21-0.97,4.17-4.04,3.92c-2.86-0.24-5.76,0.03-8.64-0.07c-1.83-0.07-2.38,0.67-2.35,2.42
		c0.08,4.51,0.09,9.02,0,13.53c-0.04,1.86,0.73,2.31,2.44,2.31c27.44-0.04,54.88-0.04,82.32,0.01c2.03,0,2.56-0.73,2.52-2.63
		c-0.1-4.38-0.12-8.77,0-13.15c0.06-2.06-0.81-2.57-2.66-2.5c-2.88,0.1-5.77-0.08-8.64,0.06c-2.17,0.11-3.15-0.42-3.07-2.87
		c0.18-5.26,0.13-10.52,0.01-15.78c-0.04-1.78,0.68-2.68,2.14-3.51c20.96-12,41.9-24.03,62.8-36.14c1.89-1.1,3.01-0.89,4.47,0.68
		c14.32,15.41,28.72,30.74,43.08,46.11c3.35,3.58,6.64,7.22,10.54,11.47c-3.84,0-6.69,0.09-9.54-0.03
		c-2.09-0.09-2.91,0.61-2.84,2.78c0.14,3.88,0.24,7.78-0.03,11.65c-0.21,3.04,0.6,4.08,3.85,4.01c10.39-0.22,20.8-0.08,31.2-0.08
		c17.29,0,34.58-0.06,51.87,0.06c2.71,0.02,3.81-0.56,3.62-3.49c-0.26-3.99-0.04-8.01-0.08-12.02c-0.01-0.92,0.44-2.3-0.89-2.54
		c-2.66-0.48-3.9-2.61-5.47-4.31c-25.17-27.2-50.29-54.45-75.5-81.61c-2.09-2.25-2.12-3.19,0.65-4.81
		c16.55-9.63,33.09-19.28,49.43-29.27c5.3-3.24,10.48-5.57,16.82-4.81c2.47,0.29,5.02-0.2,7.5,0c2.69,0.21,3.9-0.47,3.62-3.44
		c-0.27-2.86-0.29-5.78,0-8.63c0.34-3.29-1-3.84-3.99-3.83c-26.44,0.12-52.87,0.07-79.31,0.07c-6.45,0-6.52,0-6.42,6.5
		c0.05,2.97-1.28,6.69,0.58,8.7C390.66,288.33,394.4,286.7,397.77,287.25z M454.34,520.45c11.03-0.02,22.04-0.42,32.97-1.91
		c5.45-0.75,10.89-1.68,16.24-2.92c29.76-6.93,55.98-19.9,75.55-44.32c6.11-7.63,11.07-15.67,13.37-25.3
		c0.77-3.22-0.22-3.54-2.94-3.46c-5.76,0.16-11.53,0.16-17.29-0.01c-2.28-0.06-3.61,0.65-4.82,2.6
		c-4.18,6.76-9.43,12.63-15.67,17.58c-12.53,9.94-27.19,15.22-42.42,19.19c-27.71,7.23-55.65,9.84-83.92,3.61
		c-21.18-4.66-39.53-14.05-52.53-32.16c-12.49-17.39-11.21-34.98,3.86-50.13c1.42-1.42,1.57-2.24,0.28-3.63
		c-7.67-8.25-15.34-16.51-22.94-24.83c-1.36-1.49-2.36-1.23-3.8-0.19c-8.45,6.16-16.2,13.03-21.96,21.88
		c-8.58,13.18-12.48,27.85-12.57,43.38c-0.06,10.99,2.24,21.63,8.7,30.96c10.54,15.25,24.35,26.45,41.53,33.41
		C394.3,515.7,423.88,520.5,454.34,520.45z M592.82,367.08c0.04,0,0.07,0,0.11,0c0-0.25,0-0.5,0-0.75c0-6.01,0.07-12.03-0.02-18.04
		c-0.06-3.98,1.66-9.18-0.65-11.6c-2.33-2.45-7.59-0.37-11.54-0.79c-5.88-0.63-11.21,0.49-15.59,4.6
		c-5.13,4.82-10.47,5.3-16.41,1.56c-1.66-1.05-3.7-1.49-5.58-2.18c-39.56-14.41-79.51-16.73-119.95-3.87
		c-4.05,1.29-4.06,1.26-1.32,4.28c5.81,6.39,11.78,12.65,17.37,19.23c2.35,2.76,4.53,3.34,8.01,2.57
		c21.56-4.77,43.19-4.99,64.73,0.15c22.68,5.41,42.4,15.71,56.35,35.16c1.05,1.46,2.34,1.64,3.91,1.6
		c5.75-0.15,11.51-0.38,17.26-0.3c2.65,0.04,3.4-0.83,3.37-3.42C592.74,385.87,592.82,376.47,592.82,367.08z"/>
	<path class="st2" d="M397.77,287.25c-3.37-0.55-7.11,1.09-8.85-0.79c-1.86-2-0.54-5.73-0.58-8.7c-0.1-6.5-0.03-6.5,6.42-6.5
		c26.44,0,52.87,0.05,79.31-0.07c3-0.01,4.34,0.54,3.99,3.83c-0.3,2.85-0.28,5.78,0,8.63c0.29,2.97-0.92,3.66-3.62,3.44
		c-2.49-0.2-5.04,0.3-7.5,0c-6.34-0.75-11.52,1.58-16.82,4.81c-16.33,9.99-32.87,19.64-49.43,29.27c-2.77,1.61-2.74,2.56-0.65,4.81
		c25.22,27.16,50.33,54.41,75.5,81.61c1.57,1.7,2.82,3.84,5.47,4.31c1.33,0.24,0.88,1.62,0.89,2.54c0.04,4.01-0.18,8.03,0.08,12.02
		c0.19,2.93-0.9,3.51-3.62,3.49c-17.29-0.12-34.58-0.06-51.87-0.06c-10.4,0-20.8-0.14-31.2,0.08c-3.24,0.07-4.05-0.97-3.85-4.01
		c0.26-3.87,0.16-7.77,0.03-11.65c-0.08-2.17,0.75-2.87,2.84-2.78c2.85,0.12,5.7,0.03,9.54,0.03c-3.9-4.25-7.2-7.89-10.54-11.47
		c-14.36-15.37-28.76-30.71-43.08-46.11c-1.46-1.57-2.57-1.78-4.47-0.68c-20.9,12.11-41.84,24.14-62.8,36.14
		c-1.46,0.83-2.18,1.73-2.14,3.51c0.12,5.26,0.17,10.53-0.01,15.78c-0.08,2.45,0.9,2.98,3.07,2.87c2.87-0.14,5.76,0.04,8.64-0.06
		c1.86-0.07,2.72,0.44,2.66,2.5c-0.13,4.38-0.11,8.77,0,13.15c0.05,1.89-0.49,2.63-2.52,2.63c-27.44-0.06-54.88-0.05-82.32-0.01
		c-1.72,0-2.48-0.45-2.44-2.31c0.1-4.51,0.09-9.02,0-13.53c-0.03-1.75,0.52-2.49,2.35-2.42c2.88,0.1,5.78-0.16,8.64,0.07
		c3.07,0.25,4.06-0.71,4.04-3.92c-0.14-21.55-0.07-43.1-0.07-64.65c0-17.42-0.05-34.83,0.06-52.25c0.02-2.78-0.45-4-3.63-3.87
		c-3.68,0.15-8.64,1.7-10.75-0.71c-1.83-2.09-0.31-6.93-0.67-10.52c-0.36-3.55,0.67-4.58,4.4-4.56c26.31,0.19,52.62,0.18,78.93,0
		c3.47-0.02,4.34,1.01,3.99,4.19c-0.43,3.81,1.6,8.8-0.84,11.18c-2.24,2.19-7.16,0.67-10.89,0.56c-2.75-0.08-3.3,0.93-3.29,3.46
		c0.09,20.17,0.07,40.34,0.03,60.52c0,2.29-0.01,3.77,2.94,2.08c37.87-21.75,75.78-43.44,113.68-65.15
		C397.04,287.88,397.2,287.71,397.77,287.25z"/>
	<path class="st2" d="M454.34,520.45c-30.46,0.05-60.04-4.76-88.37-16.24c-17.17-6.96-30.99-18.15-41.53-33.41
		c-6.45-9.34-8.76-19.97-8.7-30.96c0.09-15.53,3.99-30.2,12.57-43.38c5.76-8.85,13.5-15.72,21.96-21.88c1.43-1.04,2.44-1.3,3.8,0.19
		c7.6,8.32,15.27,16.58,22.94,24.83c1.29,1.39,1.14,2.21-0.28,3.63c-15.07,15.15-16.34,32.73-3.86,50.13
		c13,18.11,31.36,27.5,52.53,32.16c28.27,6.22,56.22,3.62,83.92-3.61c15.22-3.97,29.88-9.25,42.42-19.19
		c6.24-4.95,11.48-10.82,15.67-17.58c1.21-1.95,2.55-2.67,4.82-2.6c5.76,0.16,11.53,0.16,17.29,0.01c2.72-0.07,3.71,0.24,2.94,3.46
		c-2.3,9.63-7.26,17.68-13.37,25.3c-19.57,24.41-45.79,37.38-75.55,44.32c-5.35,1.25-10.79,2.18-16.24,2.92
		C476.38,520.04,465.37,520.43,454.34,520.45z"/>
	<path class="st2" d="M592.82,367.08c0,9.39-0.08,18.79,0.05,28.18c0.04,2.6-0.71,3.46-3.37,3.42c-5.75-0.08-11.51,0.16-17.26,0.3
		c-1.57,0.04-2.86-0.14-3.91-1.6c-13.95-19.45-33.67-29.75-56.35-35.16c-21.54-5.14-43.17-4.92-64.73-0.15
		c-3.48,0.77-5.67,0.19-8.01-2.57c-5.59-6.58-11.55-12.84-17.37-19.23c-2.74-3.01-2.74-2.99,1.32-4.28
		c40.44-12.86,80.39-10.54,119.95,3.87c1.88,0.68,3.92,1.13,5.58,2.18c5.94,3.74,11.29,3.26,16.41-1.56
		c4.38-4.11,9.71-5.23,15.59-4.6c3.94,0.42,9.2-1.66,11.54,0.79c2.31,2.43,0.59,7.62,0.65,11.6c0.09,6.01,0.02,12.03,0.02,18.04
		c0,0.25,0,0.5,0,0.75C592.9,367.08,592.86,367.08,592.82,367.08z"/>
</g>
</svg>
