<?xml version="1.0" encoding="utf-8"?>
<!-- Generator: Adobe Illustrator 27.9.0, SVG Export Plug-In . SVG Version: 6.00 Build 0)  -->
<svg version="1.1" id="Layer_1" xmlns="http://www.w3.org/2000/svg" xmlns:xlink="http://www.w3.org/1999/xlink" x="0px" y="0px"
	 viewBox="0 0 800 800" style="enable-background:new 0 0 800 800;" xml:space="preserve">
<style type="text/css">
	.st0{clip-path:url(#SVGID_00000008861364106895692210000016936476338707012022_);}
	.st1{fill:#FFB612;}
	.st2{fill:#5A1414;}
</style>
<g>
	<g>
		<defs>
			<rect id="SVGID_1_" x="17.5" y="191.51" width="765" height="416.97"/>
		</defs>
		<clipPath id="SVGID_00000051355646625030215540000012667723386419390893_">
			<use xlink:href="#SVGID_1_"  style="overflow:visible;"/>
		</clipPath>
		<g style="clip-path:url(#SVGID_00000051355646625030215540000012667723386419390893_);">
			<path class="st1" d="M539.89,191.51l24.45,74.97l-18.19,55.7l-42.47-130.7H313.3l-34.16,104.76l-34.01-104.76H17.5l71.49,116.1
				l97.94,300.84h184.3l37.04-113.72l36.95,113.72h201.63l135.63-416.97H539.89V191.51z M114.46,295.83l-47.1-76.48h157.56
				l39.59,121.92L196.9,548.95L114.46,295.83z M350.93,581.27h-135.3l110.49-339.45l67.55,207.92L350.93,581.27z M348.08,219.35
				h135.36l48.14,147.88l-67.75,208.16L348.08,219.35z M626.43,581.09H491.15l102.36-314.43l-15.43-47.31H744.1L626.43,581.09z"/>
			<path class="st2" d="M531.49,367.27l-67.75,208.16L348.08,219.35h135.36L531.49,367.27z M578.08,219.35l15.34,47.34
				L491.07,581.12h135.27l117.82-361.77L578.08,219.35L578.08,219.35z M224.89,219.35H67.36l47.13,76.48l82.53,253.12l67.49-207.68
				L224.89,219.35z M215.63,581.12h135.48l42.74-131.35l-67.72-207.92L215.63,581.12z"/>
		</g>
	</g>
</g>
</svg>
