<?xml version="1.0" encoding="utf-8"?>
<!-- Generator: Adobe Illustrator 27.8.1, SVG Export Plug-In . SVG Version: 6.00 Build 0)  -->
<svg version="1.1" id="Layer_1" xmlns="http://www.w3.org/2000/svg" xmlns:xlink="http://www.w3.org/1999/xlink" x="0px" y="0px"
	 viewBox="0 0 800 800" style="enable-background:new 0 0 800 800;" xml:space="preserve">
<style type="text/css">
	.st0{fill:#002244;}
	.st1{fill:#FFFFFF;}
	.st2{fill:none;}
</style>
<g>
	<polygon class="st0" points="395.78,33.69 301.38,314.19 8.5,314.08 246.3,493.93 157.5,766.31 401.52,598.1 637.8,762.47 
		548.15,490.51 791.5,312.91 492.36,314.04 	"/>
	<polygon class="st1" points="395.78,101.15 315.89,333.4 71.69,334.54 268.65,484.82 199.77,709.11 401.28,574.76 599.95,709.11 
		526.51,483.11 729.73,332.26 476.99,332.26 	"/>
	<polygon class="st2" points="397.47,162.63 331.95,353.13 131.64,354.07 293.2,477.32 229.94,668.12 401.99,551.1 564.94,661.29 
		504.71,475.92 671.39,352.2 464.08,352.2 	"/>
	<polygon class="st2" points="396.66,164.33 331.14,354.83 130.84,355.77 292.39,479.02 229.13,669.82 401.18,552.8 564.13,662.99 
		503.9,477.62 670.58,353.9 463.27,353.9 	"/>
	<polygon class="st2" points="397.47,162.63 331.95,353.13 131.64,354.07 293.2,477.32 229.94,668.12 401.99,551.1 564.94,661.29 
		504.71,475.92 671.39,352.2 464.08,352.2 	"/>
	<polygon class="st2" points="396.66,159.25 331.14,349.75 130.84,350.69 292.39,473.94 229.13,664.74 401.18,547.72 564.13,657.91 
		503.9,472.54 670.58,348.81 463.27,348.81 	"/>
	<polygon class="st0" points="396.66,159.25 328.42,354.84 131.64,354.07 293.2,477.32 229.13,669.82 401.18,547.72 566.36,668.12 
		503.9,472.54 680.78,349.52 464.08,352.2 	"/>
</g>
</svg>
