<?xml version="1.0" encoding="utf-8"?>
<!-- Generator: Adobe Illustrator 27.9.0, SVG Export Plug-In . SVG Version: 6.00 Build 0)  -->
<svg version="1.1" id="Layer_1" xmlns="http://www.w3.org/2000/svg" xmlns:xlink="http://www.w3.org/1999/xlink" x="0px" y="0px"
	 viewBox="0 0 800 800" style="enable-background:new 0 0 800 800;" xml:space="preserve">
<style type="text/css">
	.st0{fill:#004C54;}
	.st1{stroke:#000000;stroke-width:1.7213;}
	.st2{fill:#FFFFFF;}
	.st3{fill:#BCC3C9;}
	.st4{fill:#A5ACAF;}
</style>
<g>
	<path class="st0" d="M432.28,205.79l-35.17,29.43c65.22-20.5,201.48-50.38,201.48-50.38l-42.3,32.97
		c139.26-26.51,226.18-30.99,226.18-30.99s-34.89,59-77.95,107.62c18.17,0.31,56.13,0.17,56.13,0.17s-44.55,58.57-105.93,105.54
		c6.05,1.58,30.53,10.15,30.53,10.15s-38.98,45.8-102.77,90.1c-81.44,56.55-113.42,45.14-113.42,45.14s0.99-2.45,1.35-6.39
		c0.2-2.2-0.06-4.22-0.06-4.37c-63.08,47.24-108.58,23.79-108.58,23.79s26.87-48.72-4.35-62.67c-24.17-10.81-64.9,5.4-69.2,16.03
		c-4.67,11.59-24.33,42.98-42.32,60.64c-31.18,30.64-63.25,42.63-63.25,42.63s-25.17-24.33-8.62-85.32
		c3.6-13.29,1.52-18.88,0.31-21.32c-3.76-7.43-39.87-3.85-50.69,14.85c-7.65,13.21,26.07,28.9,26.07,28.9s-18.17,16.03-47.1,18.63
		c-18.19,1.64-45.6-2.63-71.67-30.92c-15.44-16.75-13.34-67.24-13.34-67.24s25.49-36.32,70.4-65.11
		c-7.52-6.22-12.66-15.92-13.83-19.62c86.94-26.38,104-75.61,203.97-121.5C324.77,245.13,373.63,224.44,432.28,205.79z"/>
	<path d="M632.98,404.86c3.26,1.07,16.6,5.08,23.83,9.06c-33.69,43-129.06,124.13-177.05,122.49c0.35-8.01-1.98-15.15-5.15-20.24
		c-21.55,30.6-78.33,44.51-100.37,36.73c38.84-97.61-82.1-72.39-94.16-45.75c-31.29,69.16-94.03,96.29-94.03,96.29
		s-16.4-23.59-2.89-70.99c9.98-34.96-12.69-36.39-12.69-36.39c-8.93-1.43-43.52-1.14-56.96,21.43
		c-10.82,18.2,18.02,35.09,18.02,35.09s-47.79,30.07-93.63-19.04c-11.25-12.06-10.82-57.52-10.82-57.52
		c28.96-37.69,64.02-59.8,78.43-67.84c-13.53-7.02-17.09-14.85-17.09-14.85c71.63-23.55,104.2-72.46,166.53-104.5
		c68.7-35.32,119.97-50.69,119.97-50.69l-21.09,21.16c0,0,16.2-4.87,23.3-7.41c64.23-23.02,171-43.94,171-43.94l-35.67,27.53
		c0,0,55.37-12.26,124.13-19.04c36.64-3.61,113.14-10.92,113.14-10.92s-23.37,49.63-66.58,97.83c22.72,0.94,47.15,2.36,47.15,2.36
		S698.27,355.26,632.98,404.86z"/>
	<path class="st1" d="M363.88,303.7c-0.82,0.19-1.56,0.39-2.36,0.58c0.7-0.17,1.41-0.34,2.11-0.49
		C363.71,303.76,363.78,303.73,363.88,303.7z"/>
	<path class="st1" d="M361.14,304.38c0.13-0.04,0.25-0.07,0.38-0.1C361.39,304.31,361.27,304.34,361.14,304.38z"/>
	<path class="st2" d="M427.83,434.01c0,0-30.8-19.5-84.07-8.5c0,0,75.59-34.03,163.27-6.06c-55.99-26.11-109.43-22.72-141.53-15.8
		c-18.95,4.97-30.38,9.55-30.38,9.55s4.93-2.82,13.99-6.89c22.75-13.1,53.48-26.58,83.33-35.12c20.72-5.92,61.36-12.01,77.51-11.13
		c0,0-40.49-11.65-79.2-6.39c0,0,62.24-16.54,120.21-11.31c19.42,1.75,63.48,9.08,63.48,9.08
		c-61.78-26.18-127.62-37.37-173.69-35.53c-26.45,3.48-47.45,7.54-47.45,7.54s3.76-1.39,10.88-3.52
		c17.41-7.86,88.41-36.28,215.07-41.68c0,0-15.71-3.68-35.16-5.88c-19.88-2.25-59.78,0.07-59.78,0.07
		c29.8-9.75,84.62-16.28,151.39-15.2c0,0-99.57-23.35-226.05,1.19c-1.09,0.32-1.69,0.51-1.69,0.51s13.95-7.88,29.57-15.9
		c11.53-5.91,28.29-15.25,28.29-15.25s-64.35,7.94-153.74,38.67c-25.22,8.66-38.6,13.99-38.6,13.99
		c4.15-3.84,22.85-16.85,27.57-21.69c-66.45,23.78-91.76,41.63-133.65,77.09c-37.36,31.62-36.55,37.97-90.29,59.64
		c0,0,35.59,19.52,76.18-0.83c7.01-3.51,13.86-8.8,20.42-14.4c15.11-13.99,12.48-30.4,31.52-39.84c-3.19,5.63-8.2,12.64-9.45,20.29
		c9.85-10.78,28.45-24.34,48.47-33.41c50.9-23.07,83.12-24.4,83.12-24.4c-1.27,0.28-2.5,0.58-3.74,0.89
		c-68.26,19.74-82.88,53.98-83.63,57.65c-1.61,7.92,24.68-7.25,44.79-7.43c-21.7,5.02-41.62,20.76-52.6,40.28
		c-4.65,8.27-6.9,18.04-18.07,24.61c-3.2,2.31-7.33,4.5-12.66,6.21c-14.4,4.67-23.52,0.46-26.49-2.05c-1.79-1.49-2.72-3.8-2.72-3.8
		c6.42,2.62,15.63,2.01,24.46-2.27c6.52-3.15,11.61-7.71,14.61-12.58c0.01,0,0.02,0,0.02,0.02c1.64-2.6,4.72-7.68,1.84-14.93
		c-1.45-3.67-5.08-5.99-9.4-7.17c0.36-0.7,3.28-6.24,11.42-14.02c-10.51,5.9-17.75,13.59-21.45,17.02
		c4.55,1.03,8.26,3.63,10.08,7.59c3.55,7.78-1.72,17.79-11.78,22.37c-10.08,4.57-21.12,1.94-24.67-5.86c-0.45-0.98-0.75-2-0.92-3.03
		c-0.55,0.22-1.08,0.46-1.61,0.67c-3.13,1.18-9.37,3.06-9.37,3.06c2.75,0.97,6.49,1.68,8.9,1.49c-0.39,10.44,4.19,27.74,41.63,22.48
		c-11.54,9.06-36.49,5.56-50.76-4.1c1.88,1.78,4.08,3.69,6.71,5.77c42.43,33.47,97.95,12.71,111.62,6.78
		c3.34-1.67,6.73-3.12,10.11-4.34c0,0-14.63,10.23-25.67,27.4C316.29,446.95,366.41,419.42,427.83,434.01z"/>
	<path class="st3" d="M266.1,370.26c1,6.94,13.46,1.3,13.46,1.3s-17.3,11.6-25.27,25.32c-0.13,0.81-0.41,3.71-2.95,7.56
		c1.5,0.53,3.07,0.94,4.44,0.94c4.14,0.02,9.26-2.34,9.26-2.34s-0.87,8.59-10.92,15.87c11.17-6.57,13.42-16.34,18.07-24.61
		c10.99-19.52,30.9-35.26,52.6-40.28c-20.11,0.19-46.4,15.35-44.79,7.43c0.75-3.67,15.37-37.91,83.63-57.65
		c-0.7,0.16-2.37,0.55-2.49,0.59C298.9,319.94,263.49,351.8,266.1,370.26z"/>
	<path class="st0" d="M238.16,394.81c2.52,5.51-1.43,12.71-8.79,16.05c-7.35,3.34-15.39,1.57-17.91-3.95
		c-0.38-0.84-0.57-1.73-0.66-2.64c-1.43,0.78-2.87,1.48-4.34,2.12c0.17,1.03,0.47,2.05,0.92,3.03c3.55,7.81,14.6,10.43,24.67,5.86
		c10.06-4.57,15.34-14.59,11.78-22.37c-1.81-3.97-5.53-6.56-10.08-7.59c-1.19,1.21-2.57,2.56-4.04,4.01
		C233.53,389.82,236.73,391.69,238.16,394.81z"/>
	<path class="st1" d="M229.37,410.86c7.36-3.34,11.3-10.54,8.79-16.05c-1.43-3.12-4.63-4.99-8.45-5.47
		c-3.03,2.98-6.6,6.31-10.63,9.41c-0.49,2.91-0.25,6.69,3.04,9.8c0,0-4.13-0.12-6.57-2.38c-1.4-1.29-1.91-2.69-2.08-3.47
		c-0.87,0.53-1.78,1.07-2.68,1.58c0.09,0.91,0.28,1.8,0.66,2.64C213.99,412.43,222.02,414.2,229.37,410.86z"/>
	<path class="st2" d="M215.55,406.17c2.44,2.26,6.57,2.38,6.57,2.38c-3.29-3.11-3.53-6.9-3.04-9.8c-1.78,1.4-3.64,2.72-5.61,3.95
		C213.65,403.47,214.16,404.88,215.55,406.17z"/>
	<path class="st3" d="M614.44,351.44c0,0-44.06-7.33-63.48-9.08c-57.98-5.23-120.21,11.31-120.21,11.31
		c38.71-5.26,79.2,6.39,79.2,6.39c-16.15-0.88-56.8,5.21-77.51,11.13c-29.86,8.53-60.58,22.02-83.33,35.12
		c35.88-16.18,136.79-52.24,255.28-12.72c0,0,8.62-5.21,32.32-26.01c25.19-22.05,31.66-36.67,31.66-36.67s-101.8-22.66-177.68-19.6
		c-16.38,0.66-34.13,2.53-49.94,4.61C486.82,314.07,552.66,325.27,614.44,351.44z"/>
	<path class="st3" d="M362.86,446.99c86.58-11.38,142.27,20.53,146.31,47.93c0,0,0.3-0.09,0.86-0.33
		c3.64-1.48,17.35-5.58,39.24-22.73c22.97-18.04,37.78-32.93,44.16-43.34c-81.31-52.88-179.32-37.61-227.91-24.88
		c32.1-6.92,85.54-10.3,141.53,15.8c-87.68-27.96-163.27,6.06-163.27,6.06c53.27-11,84.07,8.5,84.07,8.5
		c-61.42-14.6-111.54,12.94-129.83,31.58c-1.49,2.37-2.95,4.84-4.32,7.45C309.65,461.09,326.29,451.81,362.86,446.99z"/>
	<path class="st4" d="M675.69,257.25c-66.77-1.08-121.59,5.45-151.39,15.2c0,0,39.9-2.32,59.78-0.07
		c19.45,2.2,35.16,5.88,35.16,5.88c-126.66,5.39-197.65,33.82-215.07,41.68c17.32-5.15,54.65-14.63,107.07-19
		c49.44-4.14,105.9-0.18,128.78,0.11c35.78-27.53,52.9-65.45,52.9-65.45s-56.72-1.79-121.81,2.86
		c-67.71,4.83-112.5,17.31-121.47,19.97C576.13,233.9,675.69,257.25,675.69,257.25z"/>
	<path class="st3" d="M311.64,475.41c0,0,23.04-13.58,58.4-3.7c52.35,14.54,47.03,47.96,47.03,47.96s25.15-7.61,39.66-27.34
		c0,0-13.43-16.06-40.11-23.94C347.08,447.85,311.64,475.41,311.64,475.41z"/>
	<path class="st3" d="M170.38,420.27c-14.16,2.64-31.39-0.51-40.69-4.18c-11.9,6.37-53.56,18.89-83.7,58.86
		c-0.32,14.67-0.92,33.42,3.9,44.27c20.01,41.15,64.09,31.73,64.09,31.73s-61.32-35.9,12.38-69.88
		c23.52-10.84,85.61-14.01,120.64,1.79c2.95,1.49,6.47,4.65,6.13,5.32c-5.84,18.06-26.94,68.17-53.89,80.05
		c-11.68-22,30.5-64.73-6.95-70.76c0,0,7.74,15.57,1.49,34.62c-2.74,8.36-11.13,30.56-3.38,55.38c0,0,61.07-27.77,86.95-104.85
		c3.07-7.55,5.32-13.97,9.36-19.55C209.95,483.76,170.38,420.27,170.38,420.27z M145.42,442.93c-5.44,0.96-17,1.3-10.68-6.2
		c0,0,7.27-2.93,16.96-6.65c3.57,3.68,7.4,6.4,18.01,8.62C169.7,438.7,149.84,442.14,145.42,442.93z"/>
	<path class="st1" d="M134.73,436.73c-6.32,7.5,5.24,7.15,10.68,6.2c4.42-0.79,24.29-4.23,24.29-4.23
		c-10.61-2.22-14.44-4.94-18.01-8.62C142,433.8,134.73,436.73,134.73,436.73z"/>
</g>
</svg>
