<?xml version="1.0" encoding="utf-8"?>
<!-- Generator: Adobe Illustrator 27.9.0, SVG Export Plug-In . SVG Version: 6.00 Build 0)  -->
<svg version="1.1" id="Layer_1" xmlns="http://www.w3.org/2000/svg" xmlns:xlink="http://www.w3.org/1999/xlink" x="0px" y="0px"
	 viewBox="0 0 800 800" style="enable-background:new 0 0 800 800;" xml:space="preserve">
<style type="text/css">
	.st0{fill:#A30D2D;}
	.st1{fill:#012352;}
</style>
<g>
	<g>
		<path class="st0" d="M758.23,109.85H644.99l0.21,267.66c-0.06,6.42-1.77,39.02-28.73,39.03c-9.97,0.01-14.53-3.44-17.08-6.04
			c-8.46-8.59-10.07-25.11-9.98-30.75l-0.19-269.91H405.5l0.06,109.07l20.86-0.01c19.06,0,25.34,4.88,27.14,6.97
			c1.79,2.07,2.09,4.72,2.09,6.28c0,0.76-0.08,1.27-0.08,1.33c-0.12,0.58-0.28,1.43-0.28,1.43l-0.08,2.43l0.1,179.63
			c0.03,34.9,11.57,64.85,33.38,86.62c22.69,22.66,55.36,35.11,91.95,35.08c26.95-0.02,48.58-6.56,64.88-14.29
			c0.01,2.59,0.05,5.25,0.05,7.77c0,18.35-0.56,34.03-3.39,37.45c-0.73,0.57-4.8,2.79-23.9,2.81H74.46v125.54h585
			c42.83-0.04,75.23-12.46,96.26-36.48c21-23.99,23.63-53.04,23.63-68.06c0-3.8,0.16-6.58,0-8.27c0-1.93,0-475.31,0-475.31
			L758.23,109.85L758.23,109.85z"/>
		<path class="st0" d="M74.46,530.95l130.11-0.1l-0.19-279.04l-0.16-1.43c-0.01-0.11-1.16-11.31,5.15-18.34
			c5.81-6.48,17.05-7.85,25.46-7.86c9.08,0,15.56,2.08,19.81,6.38c6.08,6.15,7.3,16.6,7.26,20.11l-0.01,0.52l0.18,210.43l0.01-0.75
			c-0.11,3.23-0.55,32.11,18.83,52.19c11.2,11.6,26.69,17.73,44.79,17.73c0.01,0,111.55-0.1,111.55-0.1l-0.06-110.05l-23.81,3.1
			c-2.74,0.36-11.6,0.47-16.18-3.55c-3.73-3.27-4.91-10.03-4.92-15.11c0-0.61,0,0,0-198.46v0.85c0.07-1.78,1.65-44.1-27.97-74.9
			c-19.51-20.3-47-30.58-81.67-30.55c-35.74,0.04-61.61,9.96-80.06,22.18c0-6.18-0.01-14.35-0.01-14.35h-182l0.07,114.23l25.35-5.37
			c5.08-1.08,17.39-1.64,23.07,3.47c4.13,3.71,5.4,11.12,5.4,17.69L74.46,530.95L74.46,530.95z"/>
	</g>
	<g>
		<path class="st1" d="M466.83,416.99c0.03,31.8,10.37,58.94,29.96,78.51c20.53,20.49,50.31,31.76,83.85,31.73
			c35.72-0.03,61.16-12.16,76.24-22.28c0.02,3.55,0.06,8.43,0.06,8.43c0.06,7.13,0.13,13.68,0.13,19.68
			c0,23.96-1.01,38.87-6.7,44.62c-4.22,4.27-13.52,6.02-32.06,6.04L85.93,584.1v102.61l573.51-0.44
			c39.39-0.03,68.88-10.91,87.64-32.34c18.56-21.2,21.29-46.87,21.29-60.15c0-4.09-0.25-6.92-0.39-8.17
			c0-1.06-0.35-464.28-0.35-464.28H656.47l0.2,256.18c-0.01,2.04-0.66,50.49-40.2,50.52c-10.76,0.01-19.06-3.11-25.35-9.54
			c-13.61-13.93-13.19-38.7-13.19-38.96c0.02-0.25-0.18-258.2-0.18-258.2H416.97l0.06,86.12l9.37,0
			c17.53-0.01,30.01,3.89,36.11,11.28c6.08,7.36,4.38,16.37,4.31,16.76V416.99z"/>
		<path class="st1" d="M85.94,519.47l107.16-0.08l-0.19-267.02l-0.08-0.64c-0.02-0.16-1.91-16.1,7.84-27.17
			c6.92-7.85,18.4-11.84,34.15-11.86c12.23-0.01,21.69,3.34,28.12,9.93c10.74,11.02,10.43,28.08,10.43,28.25
			c0,0.3,0.18,210.72,0.18,210.72c-0.03,0.75-0.74,26.52,15.63,43.48c9.12,9.44,21.41,14.22,36.53,14.22l100.08-0.08l-0.06-85.68
			l-10.77,1.57c-0.16,0.02-15.56,2.14-25.21-6.2c-5.66-4.9-8.53-12.91-8.53-23.83c0,0-0.14-198.45-0.14-198.45
			c0.06-1.21,1.24-38.8-25.02-66.11c-17.27-17.95-41.97-27.04-73.4-27.02c-47.08,0.05-75.47,18.3-91.53,34.78
			c-0.01-8.1-0.02-26.95-0.02-26.95H32.05l0.06,88.71l11.45-2.54c0.21-0.05,21.17-4.55,33.1,6.08c6.03,5.38,9.28,14.16,9.28,26.18
			V519.47z"/>
	</g>
</g>
</svg>
