<?xml version="1.0" encoding="utf-8"?>
<!-- Generator: Adobe Illustrator 23.1.1, SVG Export Plug-In . SVG Version: 6.00 Build 0)  -->
<svg version="1.1" id="Layer_1" xmlns="http://www.w3.org/2000/svg" xmlns:xlink="http://www.w3.org/1999/xlink" x="0px" y="0px"
	 viewBox="0 0 800 800" style="enable-background:new 0 0 800 800;" xml:space="preserve">
<style type="text/css">
	.st0{fill-rule:evenodd;clip-rule:evenodd;fill:#0088CE;}
	.st1{fill-rule:evenodd;clip-rule:evenodd;fill:#FFFFFF;}
	.st2{fill-rule:evenodd;clip-rule:evenodd;}
	.st3{fill-rule:evenodd;clip-rule:evenodd;fill:#CFD1D4;}
</style>
<g>
	<path class="st0" d="M606.3,610.8l-37.8-0.7c-62.3-1.6-149.1-37.2-149.1-37.2l-68.2-27.7c-64.9-26.3-125.5-33.2-141-34.7l-3.8-0.3
		c-140-7.6-197.2,16-197.2,16C178,325.4,316,278.2,316,278.2c-22.4-26.2-24.4-43.6-24.4-43.6c-2-18.3,17.6-15.8,17.6-15.8
		c23.4,1.1,46.3-5.3,46.3-5.3c25.7-8.1,63-15.1,63-15.1c52.4-10,106.8-9.2,106.8-9.2c72-2.8,144.2,23.4,144.2,23.4
		c15.6,8.1,46.9,10,46.9,10c10.3-1.1,9.8,3.3,9.8,3.3c1.4,24.8-20.4,42.7-20.4,42.7c5,5,3.9,17.9,3.9,17.9
		c42.1,3.1,59.7,15.6,59.7,15.6c-23.2-8.9-60.3-9.8-60.3-9.8c-1.4,11.7-2.2,10.6-2.2,10.6c56.9,2.5,76.4,18.4,76.4,18.4
		c-34.6-13.4-77.5-12-77.5-12c-2.2,8.6-3,11.2-3,11.2c76.4,8.6,87.9,24.7,87.9,24.7c-54.6-21.3-90.7-17.8-90.7-17.8
		c-21.8,65.5-63.2,107.4-70.8,114.7c0,0,3.3,10.8,2.1,29.3c0,0-1.6,55.8-42.4,67.7l0.3,0.8C599.6,569.9,606.3,610.8,606.3,610.8"/>
	<path class="st1" d="M555,251.7c-17.2-0.6-39.2-5.5-61.8-4.2c-2.1-2.7,1.9-5.8,2.1-9.4c-7.7-1.4-15.9-2.3-25.1-2.1
		C499.9,223,538.9,234.9,555,251.7z"/>
	<path class="st1" d="M678.5,250.7c-12.5,0.2-31.7-0.4-39.8,7.3C635.3,239.5,669.6,240.5,678.5,250.7z"/>
	<path class="st1" d="M639.8,273.7c-12.3,8.7-25.2,16.6-31.4,31.4c-6.1-17.6-20.3-27.2-36.6-34.5
		C591.9,263.1,622.1,266.7,639.8,273.7z"/>
	<path class="st1" d="M642.9,341.8c-5.4,19.8-11.9,38.4-24.1,51.3c0.8-10.2,6.5-27.1,3.1-41.9c-12.1-6.6-35.3-4.3-49.2-1
		c-7.8,11.8-15.6,28.1-25.1,39.8c-2.7,3.4-5.9,8.8-9.4,7.3c6.5-14.1,11.2-38.1,5.2-55.5C567.8,329.5,618.8,328.5,642.9,341.8z"/>
	<path class="st1" d="M609.4,438.1c19.4,39.6-30.6,51.6-60.7,38.7c6.9-10.9,13.5-22.1,17.8-35.6c3.2,7.4,3.4,18.2,1,26.2
		C592.1,475.6,609.3,461,609.4,438.1z"/>
	<path class="st1" d="M526.7,276.9c-2.5,3.1-6.2,5-9.4,7.3c-35.8-8.6-84.9-12.5-127.7-7.3c-1.6-0.6-0.1-1.1,1-1
		C431.2,266.7,486.8,268.3,526.7,276.9z"/>
	<path class="st1" d="M508.9,292.6c-0.2,3.9-3.9,4.4-4.2,8.4c-33.3-6.1-85.9-2.4-113.1,0C424.6,292.3,467.5,289.5,508.9,292.6z"/>
	<path class="st1" d="M500.5,316.6c-32.4,0.1-74.3,5.6-106.8,9.4c2.6-0.3-6.4,2.8,0,0c22.7-9,60.1-13.6,89-14.7
		C488.5,311.2,501,306.1,500.5,316.6z"/>
	<path class="st1" d="M364.4,350.1c10.7,55,47.9,85.6,95.3,105.7c1.6,0.7,6.2,0.1,5.2,3.1C404.6,450.2,355.3,425,364.4,350.1z"/>
	<path class="st2" d="M525.7,391c-18.8,54.9-2.7,134.3,60.7,127.7c21.4-2.2,35.1-15.5,41.9-34.5c-3.2,33.4-22,60.3-64.9,57.6
		c14,19.2,32.2,43.1,42.9,69.1c-150.8,4.2-228.8-73.4-357-95.3c13.4-53.2,43.3-90,78.5-121.4c-52.5,26.7-91.8,66.6-121.4,116.2
		c-42.4-3.8-89.2-1.9-129.8,2.1C139,402.9,238,329.8,349.8,269.5c-21.5,7-29.9-4.3-40.8-18.8c-6.8-9-14.6-17.9-13.6-26.2
		c36.7,2.2,96.1,10.2,116.2-15.7c47-21.4,132.3-18.1,153.9,24.1c1.4-24.2-27.3-27.1-40.8-39.8c46.6,6.4,96.9,9.2,116.2,42.9
		c27.6-8.6,54,5.1,63.9,24.1c-3-13.4-9-23.8-18.8-30.4c12.6-1.8,28.6-5.5,40.8-4.2c0.8,16.3-11.2,28.6-20.9,37.7
		c-22.2-4.3-52.7-4.7-63.9,10.5c24.9,4.4,36.9,43.7,15.7,61.8c19.1-4,27.6-38.8,13.6-51.3c42.4,17.3,10.9,72.6-5.2,101.6
		c-12.1,21.8-25.2,42.2-36.6,56.5c2.7,7.8,2.1,18.9,2.1,29.3c-1-40.8-39.3-71.7-17.8-112c-37,30.4,12.8,68.4,6.3,105.7
		c-4.4,24.8-47.5,37.2-73.3,23C520,473.7,519.3,425.7,525.7,391z"/>
	<path class="st3" d="M470.2,236c9.3-0.2,17.4,0.7,25.1,2.1c-0.2,3.6-4.2,6.8-2.1,9.4c22.6-1.3,44.5,3.6,61.8,4.2
		C538.9,234.9,499.9,223,470.2,236z"/>
	<path class="st3" d="M638.7,258c8.1-7.8,27.2-7.1,39.8-7.3C669.6,240.5,635.3,239.5,638.7,258z"/>
	<path class="st0" d="M571.7,270.6c16.4,7.4,30.5,16.9,36.6,34.5c6.2-14.8,19.1-22.7,31.4-31.4C622.1,266.7,591.9,263.1,571.7,270.6
		z"/>
	<path class="st0" d="M390.6,275.8c-1.1,0-2.7,0.5-1,1c42.8-5.2,92-1.2,127.7,7.3c3.2-2.3,6.9-4.2,9.4-7.3
		C486.8,268.3,431.2,266.7,390.6,275.8z"/>
	<path class="st0" d="M391.6,300.9c27.2-2.4,79.8-6.1,113.1,0c0.2-3.9,3.9-4.4,4.2-8.4C467.5,289.5,424.6,292.3,391.6,300.9z"/>
	<path class="st0" d="M482.7,311.4c-28.9,1.1-66.3,5.7-89,14.7c-6.4,2.8,2.6-0.3,0,0c32.5-3.9,74.4-9.3,106.8-9.4
		C501,306.1,488.5,311.2,482.7,311.4z"/>
	<path class="st3" d="M543.5,341.8c6,17.4,1.3,41.4-5.2,55.5c3.5,1.5,6.7-4,9.4-7.3c9.5-11.6,17.4-28,25.1-39.8
		c14-3.2,37.1-5.5,49.2,1c3.4,14.7-2.4,31.7-3.1,41.9c12.2-12.9,18.7-31.5,24.1-51.3C618.8,328.5,567.8,329.5,543.5,341.8z"/>
	<path class="st0" d="M464.9,459c0.9-3-3.6-2.5-5.2-3.1c-47.4-20.1-84.5-50.8-95.3-105.7C355.3,425,404.6,450.2,464.9,459z"/>
	<path class="st3" d="M567.5,467.4c2.4-8,2.2-18.8-1-26.2c-4.3,13.5-10.9,24.7-17.8,35.6c30.1,12.9,80.1,0.9,60.7-38.7
		C609.3,461,592.1,475.6,567.5,467.4z"/>
	<path class="st0" d="M509,231.3c0,0-22.4-3.8-40.9,5.2c0,0,21.3,0.3,27.2,2.2C495.3,238.6,498.3,231.6,509,231.3z"/>
</g>
</svg>
