<?xml version="1.0" encoding="utf-8"?>
<!-- Generator: Adobe Illustrator 27.9.0, SVG Export Plug-In . SVG Version: 6.00 Build 0)  -->
<svg version="1.1" id="Layer_1" xmlns="http://www.w3.org/2000/svg" xmlns:xlink="http://www.w3.org/1999/xlink" x="0px" y="0px"
	 viewBox="0 0 800 800" style="enable-background:new 0 0 800 800;" xml:space="preserve">
<style type="text/css">
	.st0{fill:#FFFFFF;}
	.st1{fill:#C60C30;}
	.st2{fill:#002244;}
	.st3{fill:#B0B7BC;}
</style>
<g>
	<path class="st0" d="M622.89,608.98c0,0,56.03-5.04,52.83-65.05l4.58-10.99l5.04-9.62l17.87-9.24l-6.87-50.77l41.23-14.66
		l49.93-150.71c0,0,0.92-17.87-16.03-18.78c-16.95-0.92-43.39,1.65-54.05,0.92c-33.48-2.31-90.35-39.88-174.07-46.73
		c-209.14-17.09-351.91,64.72-503.64,82.03c-48.57,5.54-22.71,37.07,5.23,43.03c18.37,3.91,96.2,6.87,120.48,2.29
		c-5.73,9.85-1.6,26,158.96,23.36c-12.83,14.2,0.46,15.12,10.54,20.61C344.52,413.38,501.18,434.45,622.89,608.98z"/>
	<g>
		<path class="st0" d="M394.25,301.04c-95.1,5.61-209.25,59.39-354.56,35.43c128.78-17.4,226.97-60.01,346.75-76.98L394.25,301.04
			L394.25,301.04z"/>
		<path class="st0" d="M410.16,356.05c38.49-4.16,72.51-2.85,109.58,19.76c-77.33-8.39-115.15,13.2-163.32,18.01
			c170.23,44.69,232.55,140.12,274.76,193.02c29.54-12.51,31.11-38.19,23.63-47.31l7.57-16.29l0.33-10.48l20.34-9.5l-6.43-50.67
			l38.07-15.6l50.5-138.15c-85.52,17.73-113.2-37.54-234.83-45.08c-49.6-3.07-94.24-0.8-136.12,4.68l6.81,42.31
			c28.02-0.96,54.36,2.57,79.37,13.98c-27.49-1.74-52.22,0.56-76.37,5.04L410.16,356.05L410.16,356.05z"/>
		<path class="st0" d="M404.54,356.63c-52.65,6.21-113.72,20.89-201.72,4.29c75.9-2.04,132.68-27.45,195.24-39.92L404.54,356.63
			L404.54,356.63z"/>
		<path class="st1" d="M394.25,301.04c-95.1,5.61-209.25,59.39-354.56,35.43c128.78-17.4,226.97-60.01,346.75-76.98L394.25,301.04
			L394.25,301.04z"/>
		<path class="st2" d="M410.16,356.05c38.49-4.16,72.51-2.85,109.58,19.76c-77.33-8.39-115.15,13.2-163.32,18.01
			c170.23,44.69,232.55,140.12,274.76,193.02c29.54-12.51,31.11-38.19,23.63-47.31l7.57-16.29l0.33-10.48l20.34-9.5l-6.43-50.67
			l38.07-15.6l50.5-138.15c-85.52,17.73-113.2-37.54-234.83-45.08c-49.6-3.07-94.24-0.8-136.12,4.68l6.81,42.31
			c28.02-0.96,54.36,2.57,79.37,13.98c-27.49-1.74-52.22,0.56-76.37,5.04L410.16,356.05L410.16,356.05z"/>
		<path class="st1" d="M404.54,356.63c-52.65,6.21-113.72,20.89-201.72,4.29c75.9-2.04,132.68-27.45,195.24-39.92L404.54,356.63
			L404.54,356.63z"/>
		<path class="st3" d="M541.47,472.59c46.02,32.23,69.65,67.92,93.62,99.17c12.2-5.07,16.06-19.2,12.01-24.2l-11.58-14.29l13.2,0.76
			l6.05-10.53l-16.39-0.95l-18.53,3.34l18.82-12.84l14.24,0.81l0.52-8.15l-14.58-6.93l4.96-5.5l27.01,1.69l-7.77-60.13
			c-10.67-1.31-19.63,4.3-23.49,19.72l-47.83-2.81c6.72-15.26,17.2-22.13,37.11-19.6c-11.2-15.63-65.56-17.07-73.23,7.42
			l42.21,34.65l5.43,31.61l-17.29-25.16C570.29,467.16,553.95,457.66,541.47,472.59L541.47,472.59z"/>
		<path class="st0" d="M683.01,317.62l3.38,30.17l34.02,12.76l-31.87,8l3.1,40.66l-27.54-34.37l-41.21,9.71l25.44-29.67
			l-20.96-27.82l35.16,12.08L683.01,317.62L683.01,317.62z"/>
	</g>
</g>
</svg>
