<?xml version="1.0" encoding="utf-8"?>
<!-- Generator: Adobe Illustrator 23.1.1, SVG Export Plug-In . SVG Version: 6.00 Build 0)  -->
<svg version="1.1" id="Layer_1" xmlns="http://www.w3.org/2000/svg" xmlns:xlink="http://www.w3.org/1999/xlink" x="0px" y="0px"
	 viewBox="0 0 800 800" style="enable-background:new 0 0 800 800;" xml:space="preserve">
<style type="text/css">
	.st0{fill-rule:evenodd;clip-rule:evenodd;fill:#FFFFFF;}
	.st1{fill-rule:evenodd;clip-rule:evenodd;fill:#8E7831;}
	.st2{fill-rule:evenodd;clip-rule:evenodd;}
	.st3{fill-rule:evenodd;clip-rule:evenodd;fill:#24125F;}
	.st4{fill-rule:evenodd;clip-rule:evenodd;fill:#2F388B;}
	.st5{fill-rule:evenodd;clip-rule:evenodd;fill:#C8102E;}
</style>
<g>
	<path class="st0" d="M791,443.6c-3.1-19.3-15.9-47.7-58.6-73.2c-3-1.7-6-3.4-9-5l16.2-5.5l-47.3-18.5c-4.2-1.6-8.4-3-12.6-4.4
		c3.1-3.2,6.4-6.5,6.4-6.5l-36.3-5.1c-15.7-2.2-28.1-2.7-37.5-2.6c-0.1-1.4-0.2-2.8-0.4-4.2l-6.1-45.4c0,0-14,19.2-15.4,21.1
		c-3-5-6.4-9.7-10.2-14L541,236c0,0,1.6,13,2.8,23.4c-13.2-9.2-27.3-17-42.1-23.4c-63-27-142.6-32.6-218.5-15.4
		C219.8,235,128.1,272.5,52,369.5l-43.9,56l66.1-26.3c0.5-0.2,51.6-20.1,92.8-25.9c15.3-2.2,27.1-2.3,17.6,18.7
		c-7.5,16.6-24.6,40.8-24.8,41l-33.1,48.2l55.2-19.2c26.5-9.2,50.4-13.8,62.5-14.2c4.3,0.1,5.1,2.9,3.7,6c-0.4,1.1-0.6,1.6-3.6,6.2
		l-34.6,49.4l56.8-20.4c41.2-14.8,95.4-24.5,114.8-17.1c1.6,0.6,6.7,3.3,1.6,10.8l-22.3,35.5c0,0,32.9-5,37.6-5.7
		c2.6,32.4,18.8,50.1,20.8,52.1l23.9,24.5l8.4-33.3c6-23.9,17.4-36.9,27.5-44l1.9,13.7l22.2-8c18.7-6.7,33.4-14.9,44.1-24.1
		c14.1-1.1,48.4-3.2,81.4,0.1c56.9,5.6,95-1.9,105.4-4.4c13.9-3.3,25.5,2.6,25.6,2.7c0,0,16.9,9.2,16.9,9.2l9.1-17.1
		c1.1-2.1,6.2-12.7,6.2-28.6C791.9,451.5,791.7,447.5,791,443.6L791,443.6z"/>
	<path class="st1" d="M783.1,446.9c-2.8-17.1-14.4-42.4-53.7-65.9c-10.5-6.3-21.9-11.6-33.5-16.2l13.9-4.7l-19.1-7.5
		c-9.7-3.7-19.6-6.8-29.7-9.2c2-2,4.1-4.2,4.1-4.2l-14.6-2.1c-22.6-3.1-38.1-2.8-47.3-1.9c0.1-2,0.1-4.1,0.1-6.2
		c0-3-0.1-5.9-0.4-8.2l-2.5-18.3l-10.2,13.9c-3-8.2-7.8-18.3-16.6-28.3l-15.8-17.9l1.8,15c-14.2-13.2-33.9-27.1-60.9-38.7
		c-61.2-26.3-138.8-31.7-212.8-14.9c-62.1,14.1-151.7,50.8-226.2,145.8l-18.8,24l28.3-11.3c0.5-0.2,53.1-21,95.9-26.8
		c16.8-2.2,28.3-0.2,32.6,5.6c4,5.5,2.7,16.3-3.5,29c-8.4,17.4-25.6,42.5-25.7,42.7l-14.2,20.6l23.6-8.2
		c31.1-10.8,70.3-18.8,79.4-12.9c2.1,1.4,3.2,3,3.7,5.3c1.5,7.6-5,19-7.4,22.4l-14.9,21.1l24.3-8.7c38.8-13.9,108.4-29.9,129.9-13.4
		c10,7.6,0.6,22.7,0.2,23.3l-9.5,15.2l17.7-2.7c0,0,4.4-0.7,8.7-1.3c-0.1,1.4-0.1,2.8-0.1,4.1c0,34.3,17.4,52.6,18.2,53.4l10.3,10.5
		l3.6-14.2c10.1-40,33.9-53.8,47.2-58.5c0.4,2.7,2.2,15.6,2.2,15.6l9.5-3.4c23.2-8.4,36.3-17.6,43.4-24.5
		c10.7-0.9,49.9-3.9,87.6-0.2c55.5,5.5,92.3-1.8,102.2-4.2c18.4-4.3,33.4,3.6,33.5,3.7l7.3,4l3.9-7.3c0.3-0.5,5-9.7,5-23.5
		C783.9,453.6,783.6,450.2,783.1,446.9L783.1,446.9z"/>
	<path class="st2" d="M724.5,389.3c-16.4-11.6-38.5-20-59.9-26.1c8.9-2.9,17.9-2.7,17.9-2.7c-13.7-5.3-28.1-8.5-41.4-10.6l5-4.5
		c-24.4-4.2-41.5-3.8-51.6-2.8c1.3-5,2.3-12.7,1-22.8c0,0-3,8.8-10.2,14.3c-1-11.4-4.6-27.9-17-39.2l2.3,20.2
		c-10.9-16.5-31.7-37.5-71-55.9c-106.8-49.9-295-31-398.3,102.4c0,0,40.2-20.1,95.8-21.4c29.1-0.7,36.2,15.6,25.6,43.2
		c-10.7,27.6-29.4,51.9-29.4,51.9s125.9-44.6,86.2,17.4c0,0,95.1-28.5,123.6,4.9c13.3,15.5-2.2,37.2-2.2,37.2l26.9-5.9
		c-8.7,34.3,6.6,56.1,6.6,56.1c11.1-44.8,49.9-56.7,63.6-58.9l3,12.1c23-8.3,33.9-17.2,40.1-24.5c48.8-7.7,81.9-1.1,119.5,0.9
		c54.7,3,83-6.6,92.1-6.5c6.6,0.1,14.5,5.8,14.5,5.8S790,435.7,724.5,389.3L724.5,389.3z"/>
	<path class="st0" d="M679.6,462.1c27.3-0.1,47.7-2.6,63.7-6.4c-59.2-25.4-175.2-36.2-193.2-34.8c0,0-9.8,2.8,1.5,13.6
		c-15.8-6.2-31.6-18.1-32.7-24.1c-1.1-6.4,10.4-8.2,37.8-4.9c102.4,12.1,190.9,29.2,203,54.3c0,0,6.2-31.4-44.8-61.3
		C671.1,369.5,604,364.7,604,364.7l17,13.7l-31.5-2.7l25,18c-26.8-8.8-99-32.4-158.8-17.4c0,0,65.6-0.7,95.6,17.1
		c-110.8-18.1-168.5,20.4-168.5,20.4c62.3-17.8,112.1-12.9,128.4-10.5c-26.2,6.2,4.7,25.5,23.5,35.5c2.2,5.3,7.3,16,2.3,25.1
		c0,0,5.7-7.2,9.8-17.9l15.4,12.3C607.9,452.7,641.7,462.3,679.6,462.1L679.6,462.1z"/>
	<path class="st2" d="M545.5,449.1c0-0.1,0-0.1,0.1-0.1C545.5,449,545.5,449,545.5,449.1z"/>
	<path class="st3" d="M469.9,263.5c-121.2-36.2-247.6-1.2-317.8,66c0,0,70.6-22.2,91.8-0.4c24.6,25.4-12.7,85.1-12.7,85.1l24.4-3.8
		c-0.9,0.1-1.9,0.2-2.8,0.3c19.1-66.8,36.3-90.2,47.9-101.6c6.9-8.4,19-14,28.7-17.3c-65.3,3.1-128.8,16.6-128.8,16.6
		c41.1-31.9,136.3-54.2,191.2-48.5c54.9,5.6,51.2,27.9,45.5,40.6c-4.6,10.3-27,24.2-48.1,28.7c21.8,2.8,34.2,19.7,26.4,36.5
		c-0.7,1.4-1.4,2.8-2.3,4.2c-21.3,5.1-41.8,13.1-60.9,23.9c-0.6,0.3-1.2,0.7-1.8,1l-2.4,1.4c-0.6,0.4-1.2,0.7-1.8,1.1
		c-0.7,0.5-1.5,0.9-2.2,1.4c-0.6,0.4-1.2,0.8-1.8,1.1c-0.7,0.4-1.4,0.9-2.1,1.3c-0.6,0.4-1.2,0.8-1.7,1.1c-0.7,0.5-1.3,0.9-1.9,1.3
		c-14,9.6-24.1,19.2-29.3,26.6c0,0,142.7-28.9,118,43l36.9-10.1c-2.6,4.5-6.7,9.7-12.3,16c-17.4,19.4-16.2,37.8-16.2,37.8
		s5.1-20.1,38.1-33.9c30.1-12.6,37-33.9,37-33.9s10,14.8,1.8,35.5c0,0,13.9-3.5,26.3-20.4c5.1-9.1-0.1-19.8-2.3-25.1
		c-18.8-10-49.7-29.2-23.5-35.5c-16.3-2.4-66.1-7.4-128.4,10.5c0,0,57.6-38.5,168.5-20.4c-30-17.9-95.6-17.1-95.6-17.1
		c22.8-5.7,47.5-5.8,70.7-3.2c-12.1-3.4-24.5-6-36.9-7.9c-21.5-2.5-43.3-1.8-64.6,2.2c22.5-23.4,63.6-20.3,63.6-20.3
		c-27.4-18.5-63.1-12.6-63.1-12.6c40.1-20.7,84.6-13.7,84.6-13.7c-14-18.5-47.1-22.6-47.1-22.6c65.5-2.6,88.5,31.8,88.5,31.8
		c-16.3-7.1-28-6-28-6s15.7,2.5,26.4,22.5c11.3,21.1,20.9,20.5,20.9,20.5S588.6,298.9,469.9,263.5L469.9,263.5z"/>
	<path class="st2" d="M545.5,449.1c-2.3,5.2-5.2,10.2-8.5,14.8h0C536.9,463.9,541.1,458.7,545.5,449.1L545.5,449.1z"/>
	<path class="st0" d="M340.4,400.9c0.7-0.4,3.3-2.1,3.9-2.4c0.7-0.4,1.4-0.9,2.2-1.4c0.6-0.4,1.2-0.7,1.8-1.1l2.4-1.4
		c0.6-0.3,1.2-0.7,1.8-1c19.1-10.8,39.6-18.8,60.9-23.9c0.8-1.3,1.6-2.7,2.3-4.2c7.8-16.8-4.5-33.7-26.4-36.5
		c21.1-4.5,43.5-18.4,48.1-28.7c5.7-12.7,9.4-35-45.5-40.6c-54.9-5.6-150.1,16.7-191.2,48.5c0,0,63.5-13.4,128.8-16.6
		c-9.7,3.3-21.8,9-28.7,17.3c-11.5,11.4-28.8,34.9-47.9,101.6c0,0,1-0.1,2.8-0.3c8.2-1,32.8-4,47.4-4.7l24.5-1.4
		c2.7,0,5.4-0.1,8.2-0.2c0.3-0.2,0.6-0.4,0.9-0.6c0.6-0.4,1.3-0.8,1.9-1.3L340.4,400.9L340.4,400.9z"/>
	<path class="st2" d="M372.6,317.9c-0.7,1.7-1.6,3.3-2.7,4.7c7.9-2.3,13.9-6.7,16.9-11.9c6.6-11.5,1.5-19.7-9.1-20.8l-11,0
		c0,0-1.9,1.6-5.4,6.8C374.2,296.9,379.4,303.3,372.6,317.9L372.6,317.9z M353.6,372.7c-1.9,4.1-4.6,7.7-8,10.6
		c8.3-2,17.3-7,22.2-17.7c8.2-17.5,0.9-24.9-12.2-24.9h-16.2c-1.2,2.4-2.4,4.7-3.5,7.1h5.5C354.5,347.8,361.8,355.1,353.6,372.7z"/>
	<path class="st4" d="M345.6,383.2c3.4-2.9,6.2-6.5,8-10.6c8.1-17.5,0.9-24.9-12.2-24.9h-5.5c-9.1,19.2-14.7,36.7-14.7,36.7h14
		C338.3,384.5,341.9,384.2,345.6,383.2L345.6,383.2z M369.9,322.6c0.9-1.3,1.9-2.9,2.7-4.7c6.8-14.6,1.6-21-11.2-21.1
		c-3.4,5.1-8.2,13.7-14.3,27.7h9.8C361.3,324.5,365.7,323.9,369.9,322.6z"/>
	<path class="st1" d="M432.3,282.8c-5.1-8.4-17.6-13.4-39.9-14.5c0,0-22.5-3.1-51,0.8c-11.3,1.5-66.1,7.1-112.8,29.9
		c40.8-10,89.1-13.6,119.6-14.7c12.8-0.5,26.9-0.1,26.9-0.1c9.1,0,17.6,2.7,20.8,8c3.4,5.5,4.3,12.1-2,20.2
		c-3.5,4.5-7.6,9.2-19.4,14l13.7-2.9c20.5-4.4,39-15.9,43.3-24.8C434.7,292.2,434.8,286.9,432.3,282.8L432.3,282.8z"/>
	<path class="st1" d="M345.1,398c18.6-11.4,38.8-20.2,59.8-26.1c1.5-1.9,2.7-4,3.8-6.2c2.3-5,2.6-11.2,0.9-16.2
		c-2.5-7.5-7.5-12.5-23.3-16.2c-20.8-4.8-51-2.7-51-2.7c6.9-16.9,12.1-26.8,17.4-35.4c-4.5-0.3-27,2.1-44.4,18.7
		c-15.1,13.3-31.4,48-44.4,89.3c22.3-2.3,42.6-3.4,42.6-3.4l21.3-0.9C333.3,399,339.2,398.7,345.1,398L345.1,398z M333.3,335h22.5
		c11.7,0,17,4.8,19.4,8.8c3.8,6.3,3.2,14.8-1.6,25.4c-9.2,20.5-31.4,22.3-38.1,22.3l-25.6,1C321.1,357.3,333.3,335,333.3,335
		L333.3,335z"/>
	<path class="st5" d="M534.1,341.6c3.4,8-1.3,17-10.4,20c-9.2,3-19.4-1.1-22.8-9.2c-3.4-8,1.3-17,10.5-20
		C520.5,329.4,530.7,333.5,534.1,341.6L534.1,341.6z"/>
	<path class="st0" d="M510.5,353.4c-2.6-6,1.1-12.9,8.2-15.2c2.6-0.9,5.5-1,8.2-0.4c-3.5-2.2-8.4-3-12.9-1.5
		c-7.1,2.3-10.8,9.1-8.2,15.2c1.6,3.7,5.2,6.3,9.3,7.2C513,357.5,511.4,355.6,510.5,353.4L510.5,353.4z"/>
	<path class="st2" d="M533.2,346.5c1.9,4.8-0.8,10.2-5.9,12c-5.1,1.8-10.7-0.6-12.6-5.4c-1.8-4.8,0.8-10.2,5.9-12
		C525.8,339.2,531.4,341.6,533.2,346.5L533.2,346.5z"/>
	<path class="st0" d="M677.2,460.5c27.1-0.2,47.4-2.6,63.4-6.3c-58.9-25.3-174.3-36-192.2-34.6c0,0-9.8,2.7,1.5,13.5
		c-15.7-6.2-31.4-18-32.5-24c-1.1-6.3,10.3-8.1,37.6-4.9c101.8,12,190,29,201.9,54c0,0,6.2-31.2-44.6-61
		c-43.5-29-110.2-33.7-110.2-33.7l16.9,13.6l-31.4-2.7l24.8,17.9c-26.6-8.7-98.4-32.2-157.9-17.3c0,0,65.2-0.7,95,17
		c-110.3-18-167.6,20.3-167.6,20.3c62-17.7,111.5-12.8,127.8-10.4c-26.1,6.2,4.6,25.3,23.4,35.3c2.1,5.2,7.3,15.9,2.2,24.9
		c0,0,5.7-7.2,9.8-17.8l15.3,12.2C605.9,451.1,639.5,460.7,677.2,460.5L677.2,460.5z"/>
</g>
</svg>
