<?xml version="1.0" encoding="utf-8"?>
<!-- Generator: Adobe Illustrator 27.9.0, SVG Export Plug-In . SVG Version: 6.00 Build 0)  -->
<svg version="1.1" id="Layer_1" xmlns="http://www.w3.org/2000/svg" xmlns:xlink="http://www.w3.org/1999/xlink" x="0px" y="0px"
	 viewBox="0 0 800 800" style="enable-background:new 0 0 800 800;" xml:space="preserve">
<style type="text/css">
	.st0{fill:#101820;}
	.st1{fill:#A5ACAF;}
	.st2{fill:#FFFFFF;}
	.st3{fill:#003087;}
	.st4{fill:#FFB612;}
	.st5{fill:#C60C30;}
</style>
<g>
	
		<ellipse transform="matrix(0.7071 -0.7071 0.7071 0.7071 -165.6858 400.0001)" class="st0" cx="400" cy="400" rx="359.5" ry="359.5"/>
	
		<ellipse transform="matrix(0.7071 -0.7071 0.7071 0.7071 -165.6858 400.0001)" class="st1" cx="400" cy="400" rx="351.21" ry="351.21"/>
	<path class="st2" d="M691.82,400c0,161.17-130.65,291.81-291.82,291.81c-161.16,0-291.82-130.65-291.82-291.81
		c0-161.16,130.65-291.82,291.82-291.82C561.17,108.18,691.82,238.84,691.82,400z"/>
	<path class="st3" d="M255.38,543.9c144.46-6.79,145.76-146.64,145.76-146.64s1.3,139.85,145.76,146.64
		c-144.46,6.78-145.76,146.63-145.76,146.63S399.84,550.68,255.38,543.9z"/>
	<path class="st4" d="M255.38,252c144.46-6.79,145.76-146.63,145.76-146.63S402.44,245.21,546.9,252
		c-144.46,6.79-145.76,146.63-145.76,146.63S399.84,258.78,255.38,252z"/>
	<path class="st5" d="M400.54,398.48C545.01,391.7,546.3,251.85,546.3,251.85s1.3,139.85,145.76,146.63
		C547.6,405.26,546.3,545.11,546.3,545.11S545.01,405.26,400.54,398.48z"/>
	<path class="st0" d="M166.51,372.48V369c0-3.56-1.13-5.13-3.67-5.13c-2.62,0-3.67,1.48-3.67,5.13c0,10.87,20.09,10.87,20.09,31.13
		c0,12.96-4.02,16.95-16.51,16.95c-11.62,0-16.34-3.48-16.34-14.95v-5.83h12.76v4.35c0,3.56,1.14,5.13,3.67,5.13
		c2.62,0,3.67-1.48,3.67-5.13c-0.08-12.87-20.09-11.56-20.09-32.26c0-11.13,4.2-15.83,16.43-15.83c10.83,0,16.07,4,16.07,15.04v4.87
		H166.51z"/>
	<path class="st0" d="M198.59,359.09V371h6.24v10.09h-6.24v18.26c0,4.87,0.49,5.56,3.08,5.56h3.16v10.96h-11.34
		c-4.29,0-6.4-2.96-6.4-7.65v-27.13h-3.64V371h3.64L198.59,359.09z"/>
	<path class="st0" d="M219.43,387.87v-4.09c0-2.87,1.15-4.26,2.92-4.26c1.77,0,2.92,1.39,2.92,4.26v4.09H219.43z M235.28,396.39
		v-11.56c0-10.26-3.39-15.04-13.39-15.04c-10,0-13.39,4.78-13.39,15.04v20.08c0,8,4.08,12.17,13.39,12.17
		c9.31,0,13.39-4.17,13.39-12.17v-4h-10v2.43c0,2.96-1.15,4-2.92,4c-1.69,0-2.92-1.04-2.92-4v-6.95H235.28z"/>
	<path class="st0" d="M251.8,387.87v-4.09c0-2.87,1.15-4.26,2.92-4.26c1.77,0,2.92,1.39,2.92,4.26v4.09H251.8z M267.65,396.39
		v-11.56c0-10.26-3.39-15.04-13.39-15.04c-10,0-13.39,4.78-13.39,15.04v20.08c0,8,4.08,12.17,13.39,12.17
		c9.31,0,13.39-4.17,13.39-12.17v-4h-10v2.43c0,2.96-1.15,4-2.92,4c-1.69,0-2.92-1.04-2.92-4v-6.95H267.65z"/>
	<path class="st0" d="M298.95,387.87v-4.09c0-2.87,1.15-4.26,2.92-4.26c1.77,0,2.92,1.39,2.92,4.26v4.09H298.95z M314.8,396.39
		v-11.56c0-10.26-3.39-15.04-13.39-15.04c-10,0-13.39,4.78-13.39,15.04v20.08c0,8,4.08,12.17,13.39,12.17s13.39-4.17,13.39-12.17v-4
		h-10v2.43c0,2.96-1.15,4-2.92,4c-1.69,0-2.92-1.04-2.92-4v-6.95H314.8z"/>
	<path class="st0" d="M283.68,353.79v62.08h-11.5v-62.08H283.68z"/>
	<path class="st0" d="M320.82,371h11.1v8.87h0.16c3.16-7.48,5.1-8.87,9.56-9.56v15.04h-0.16c-0.73-0.17-1.46-0.26-2.19-0.26
		c-3.89,0-6.97,2.87-6.97,8.26v22.52h-11.5V371z"/>
	<path class="st0" d="M360.84,385.26v-2.78c0-1.83-1.29-2.96-2.83-2.96c-1.78,0-2.67,1.04-2.67,2.7c0,7.39,17.01,5.91,17.01,19.91
		c0.41,9.91-3.97,14.95-14.01,14.95c-9.8,0-14.01-5.04-14.01-13.22v-3.48h11.02v1.91c0,3.91,1.22,5.04,3,5.04
		c1.78,0,2.51-1.04,2.51-3.57c0-9.04-16.52-4.78-16.52-21.82c0-7.22,4.46-12.17,14.01-12.17c8.51,0,13.04,3.74,13.04,11.3v4.17
		H360.84z"/>
</g>
</svg>
