<?xml version="1.0" encoding="utf-8"?>
<!-- Generator: Adobe Illustrator 27.9.0, SVG Export Plug-In . SVG Version: 6.00 Build 0)  -->
<svg version="1.1" id="Layer_1" xmlns="http://www.w3.org/2000/svg" xmlns:xlink="http://www.w3.org/1999/xlink" x="0px" y="0px"
	 viewBox="0 0 800 800" style="enable-background:new 0 0 800 800;" xml:space="preserve">
<style type="text/css">
	.st0{fill:#FFFFFF;}
	.st1{fill:#232E5D;}
	.st2{fill:#4B92DB;}
	.st3{fill:#0C2340;}
	.st4{fill:#A2AAAD;}
	.st5{fill:#C8102E;}
</style>
<g>
	<path class="st0" d="M259,453.15c0.77,9.15,4.02,27.39,14.59,47.73c13,25.14,40.32,58.63,96.6,77.59
		c8.94,14.05,19.45,27.14,31.35,38.99c42.79,42.67,99.64,66.11,160.07,66.03c60.41-0.09,117.19-23.71,159.87-66.49
		c42.63-42.79,66.11-99.63,66.02-160.07c-0.1-60.43-23.72-117.19-66.51-159.86c-33.9-33.79-76.42-55.55-123.21-63.1
		c-63.32-57.35-137.29-36.8-140.44-35.87c-1.08,0.3-2.65,0.77-4.65,1.34c-22.75,7.58-34.5-1.1-42.13-7.07
		c-8.46-6.62-17.66-13.34-26.56-18.36c-30.22-16.99-73.16-17.6-109.33-3.03c-23.82,8.15-35.81-2.36-42.94-7.27
		C184.56,131.17,126.54,123.4,65,136.96c-41.44,9.11-58,17.57-58,17.57s28.38,4.11,58.03,16.49c24.36,10.19,43.73,23.25,58.38,46.68
		c0,0,9.22,13.57,3.22,17.57c-6.69,4.47-13.71-6.48-13.71-6.48c-0.22,7.86-0.2,15.72,0.3,21.66
		c3.42,62.55,16.18,100.14,46.36,128.84c13.71,13.08,36.87,25.77,72.68,39.84C248.59,425.66,257.41,434.02,259,453.15z"/>
	<path class="st1" d="M710.81,307.3c-32.83-32.72-74.49-53.37-119.61-59.72c-58.76-56.24-129.87-35.61-129.87-35.61
		c15.07,2.23,25.08,11.21,21.23,21.15c-2.57,6.59-13.52,6.94-18.5,6.99c-15.9,0.17-29.59-9.56-40.54-18.46
		c-11.39-9.26-29.96-25.68-46.6-35.03c-30.96-17.44-80.17-15.26-115.74,7.47c21.28,1.45,46.88,7.56,62.15,20.21
		c8.54,7.07,19.41,21.27,10.52,27.93c-7.83,5.81-27.03,2.79-36.78-2.86c-15.54-8.99-29.51-22.59-37.9-32.47
		c-56.33-66.37-136.16-70.06-202-53.82c43.21,12.13,72.04,36.75,89.85,79.16c17.82,42.43,31.66,60.49,61,71.99
		c18.37,7.2,23.34,8.53,21.91,16.66c-2.13,11.93-23.88,6.19-40.48-0.28c-20.22-7.89-46.87-29.7-62.74-70.59
		c2.88,52.92,12.98,90.44,42.8,118.82c12.66,12.04,35.95,24.52,72.36,38.53c23.27,8.93,41.65,14.34,58.98,29.87
		c20.2,18.09,11.58,30.05-1.81,27.78c-15.16-2.55-25.98-18.04-25.98-18.04s0.02,86.21,106.59,119.39
		c8.86,14.7,19.6,28.44,32.07,40.89c40.07,39.92,93.29,61.91,149.85,61.79c56.59-0.08,109.73-22.19,149.66-62.24
		c39.97-40.06,61.91-93.27,61.82-149.85C772.95,400.39,750.87,347.24,710.81,307.3z"/>
	<path class="st2" d="M699.54,318.03c-31.8-31.78-72.57-51.26-116.63-56.09c-37.89-37.76-75.69-36-75.69-36
		c16.58,10.41,8.05,33.57-28.87,38.68c-36.56,5.03-82.99-7.34-105.58-33.67c-23.3-27.15-40.89-28.39-40.89-28.39
		c20.19,12.64,21.64,27.79,33.91,50.88c12.27,23.09,37.51,31.39,59.53,32.84c23.19,1.51,23.73,12.01,5.05,23.09
		c-20.39,12.08-38.43,0.65-51.54-12.25c-20.71-20.42-41.34-24.36-69.84-23.99c-28.49,0.37-66.18,4.11-97.96-7.78
		c-31.8-11.91-52.8-53.76-52.8-53.76c15.76,55.57,50.68,81.9,83.11,88.26c42.86,8.42,72.46,18.6,90.6,33.28
		c17.68,14.35,27.1,28.68,33.77,48.41c5.13,15.22,6.05,35.45,0.98,36.67c-5.89,1.41-7.13-6.74-14.09-20.92
		c-7.68-15.68-16.88-27.96-35.37-37.86c-25.11-13.38-49.66-12.6-74.7-12.26c-19.84,0.29-31.47-1.98-31.47-1.98s0.83,2.66,33.15,9.92
		c36.02,8.1,70.83,28.39,94.03,77.87c19.71,42.08,9.41,71.71-34.29,58.32c0,0,20.43,45.36,87.08,61.52
		c8.6,15.12,19.3,29.17,31.94,41.81c36.95,36.93,86.05,57.29,138.28,57.29c52.24,0,101.35-20.36,138.29-57.29
		c36.94-36.93,57.27-86.04,57.27-138.28C756.81,404.07,736.48,354.97,699.54,318.03z"/>
	<path class="st0" d="M561.24,270.32c49.69,0,96.4,19.35,131.53,54.48c35.13,35.12,54.47,81.84,54.47,131.52
		c0,102.58-83.45,186.01-186,186.01c-49.66,0-96.38-19.37-131.52-54.5C394.6,552.7,375.24,506,375.24,456.31
		c0-49.68,19.36-96.4,54.48-131.52C464.86,289.66,511.58,270.32,561.24,270.32z"/>
	<g>
		<g>
			<g>
				<g>
					<g>
						<g>
							<path class="st3" d="M561.5,626.28c-93.86,0.14-170.08-75.85-170.2-169.7c-0.14-93.88,75.83-170.07,169.71-170.22
								c93.85-0.14,170.05,75.85,170.19,169.69C731.34,549.94,655.35,626.14,561.5,626.28z"/>
						</g>
					</g>
				</g>
			</g>
		</g>
		<path class="st0" d="M519.67,421.94h-50.33l-16.6,29.59l-22.32-63.3h261.21l-22.3,63.3l-16.46-29.59h-49.51l-41.94,183.45
			L519.67,421.94z"/>
		<polygon class="st4" points="691.62,388.23 430.41,388.23 434.64,400.21 559.18,400.21 519.67,421.94 561.42,605.38 
			561.42,400.21 687.39,400.21 		"/>
	</g>
	<path class="st5" d="M433,241.44c-37.88-1.09-53.32-16.1-76.83-35c-28.81-23.12-60.73-16.7-60.73-16.7
		c19.12-10.93,56.73-11.39,83.82,12.37C403.45,223.33,415.34,234.84,433,241.44z"/>
	<path class="st5" d="M109.68,158c0,0,35.45-0.85,66.43,54.73c26.03,46.71,75.69,56.06,112.05,45.78c0,0-47.87-1.24-74.09-47.67
		C187.31,163.38,151.91,150.21,109.68,158z"/>
	<g>
		<g>
			<path class="st5" d="M310.34,427.14c0,0-5.03-51.66-78.66-66.63c-74.1-15.09-83.65-53.65-83.65-53.65s0.49,55.64,64.28,72.73
				C256.85,391.5,289.51,398.36,310.34,427.14z"/>
		</g>
	</g>
	<g>
		<polygon class="st5" points="586.78,371.89 576.77,342.1 602.08,323.48 570.66,323.79 560.79,293.94 551.36,323.94 519.94,324.11 
			545.57,342.34 536,372.28 561.24,353.55 		"/>
		<polygon class="st5" points="474.63,477.24 453.82,500.8 425.05,488.17 441.04,515.21 420.13,538.7 450.81,531.86 466.68,559 
			469.64,527.72 500.36,521 471.53,508.5 		"/>
		<polygon class="st5" points="621.91,521.69 652.73,527.9 656.19,559.15 671.63,531.77 702.43,538.14 681.16,515 696.73,487.69 
			668.14,500.75 646.99,477.5 650.57,508.72 		"/>
	</g>
</g>
</svg>
