<svg xmlns="http://www.w3.org/2000/svg" xmlns:xlink="http://www.w3.org/1999/xlink" width="2000" zoomAndPan="magnify" viewBox="0 0 1500 1499.999933" height="2000" preserveAspectRatio="xMidYMid meet" version="1.0"><defs><g/><clipPath id="f4dfdaf685"><path d="M 141.601562 141.601562 L 1358.398438 141.601562 L 1358.398438 1358.398438 L 141.601562 1358.398438 Z M 141.601562 141.601562 " clip-rule="nonzero"/></clipPath><clipPath id="0b996e3006"><path d="M 750 141.601562 C 413.992188 141.601562 141.601562 413.992188 141.601562 750 C 141.601562 1086.007812 413.992188 1358.398438 750 1358.398438 C 1086.007812 1358.398438 1358.398438 1086.007812 1358.398438 750 C 1358.398438 413.992188 1086.007812 141.601562 750 141.601562 Z M 750 141.601562 " clip-rule="nonzero"/></clipPath><clipPath id="207dc0f8b0"><path d="M 0.601562 0.601562 L 1217.398438 0.601562 L 1217.398438 1217.398438 L 0.601562 1217.398438 Z M 0.601562 0.601562 " clip-rule="nonzero"/></clipPath><clipPath id="db30b3f18b"><path d="M 609 0.601562 C 272.992188 0.601562 0.601562 272.992188 0.601562 609 C 0.601562 945.007812 272.992188 1217.398438 609 1217.398438 C 945.007812 1217.398438 1217.398438 945.007812 1217.398438 609 C 1217.398438 272.992188 945.007812 0.601562 609 0.601562 Z M 609 0.601562 " clip-rule="nonzero"/></clipPath><clipPath id="097b4ac1d5"><rect x="0" width="1218" y="0" height="1218"/></clipPath><clipPath id="0010ed8a05"><path d="M 141.601562 141.601562 L 1358.101562 141.601562 L 1358.101562 1358.101562 L 141.601562 1358.101562 Z M 141.601562 141.601562 " clip-rule="nonzero"/></clipPath><clipPath id="6746c31222"><path d="M 750 141.601562 C 413.992188 141.601562 141.601562 413.992188 141.601562 750 C 141.601562 1086.007812 413.992188 1358.394531 750 1358.394531 C 1086.007812 1358.394531 1358.394531 1086.007812 1358.394531 750 C 1358.394531 413.992188 1086.007812 141.601562 750 141.601562 Z M 750 141.601562 " clip-rule="nonzero"/></clipPath><clipPath id="33fc93f3c9"><path d="M 348.21875 348.21875 L 1151.78125 348.21875 L 1151.78125 1151.78125 L 348.21875 1151.78125 Z M 348.21875 348.21875 " clip-rule="nonzero"/></clipPath><clipPath id="d69b514d3d"><path d="M 750 348.21875 C 528.101562 348.21875 348.21875 528.101562 348.21875 750 C 348.21875 971.898438 528.101562 1151.78125 750 1151.78125 C 971.898438 1151.78125 1151.78125 971.898438 1151.78125 750 C 1151.78125 528.101562 971.898438 348.21875 750 348.21875 Z M 750 348.21875 " clip-rule="nonzero"/></clipPath><clipPath id="05faabdbdc"><path d="M 0.21875 0.21875 L 803.78125 0.21875 L 803.78125 803.78125 L 0.21875 803.78125 Z M 0.21875 0.21875 " clip-rule="nonzero"/></clipPath><clipPath id="56cd47a44e"><path d="M 402 0.21875 C 180.101562 0.21875 0.21875 180.101562 0.21875 402 C 0.21875 623.898438 180.101562 803.78125 402 803.78125 C 623.898438 803.78125 803.78125 623.898438 803.78125 402 C 803.78125 180.101562 623.898438 0.21875 402 0.21875 Z M 402 0.21875 " clip-rule="nonzero"/></clipPath><clipPath id="6f5e2d1531"><rect x="0" width="804" y="0" height="804"/></clipPath><clipPath id="f156b4bd34"><path d="M 348.21875 348.21875 L 1151.46875 348.21875 L 1151.46875 1151.46875 L 348.21875 1151.46875 Z M 348.21875 348.21875 " clip-rule="nonzero"/></clipPath><clipPath id="825914b809"><path d="M 749.996094 348.21875 C 528.101562 348.21875 348.21875 528.101562 348.21875 749.996094 C 348.21875 971.890625 528.101562 1151.773438 749.996094 1151.773438 C 971.890625 1151.773438 1151.773438 971.890625 1151.773438 749.996094 C 1151.773438 528.101562 971.890625 348.21875 749.996094 348.21875 Z M 749.996094 348.21875 " clip-rule="nonzero"/></clipPath><clipPath id="7fc61c2ab5"><rect x="0" width="1080" y="0" height="453"/></clipPath><clipPath id="62be023d32"><path d="M 832 562 L 1079.265625 562 L 1079.265625 1049 L 832 1049 Z M 832 562 " clip-rule="nonzero"/></clipPath><clipPath id="6dbead9351"><path d="M 420.765625 562 L 669 562 L 669 1049 L 420.765625 1049 Z M 420.765625 562 " clip-rule="nonzero"/></clipPath><clipPath id="d678010693"><path d="M 710 450.84375 L 791 450.84375 L 791 528 L 710 528 Z M 710 450.84375 " clip-rule="nonzero"/></clipPath><clipPath id="0fc2d5436e"><path d="M 576.019531 638.652344 L 923.980469 638.652344 L 923.980469 986.613281 L 576.019531 986.613281 Z M 576.019531 638.652344 " clip-rule="nonzero"/></clipPath><clipPath id="443567088b"><path d="M 750 638.652344 C 653.914062 638.652344 576.019531 716.546875 576.019531 812.632812 C 576.019531 908.71875 653.914062 986.613281 750 986.613281 C 846.085938 986.613281 923.980469 908.71875 923.980469 812.632812 C 923.980469 716.546875 846.085938 638.652344 750 638.652344 Z M 750 638.652344 " clip-rule="nonzero"/></clipPath><clipPath id="107e1912b9"><path d="M 0.0195312 0.652344 L 347.980469 0.652344 L 347.980469 348.613281 L 0.0195312 348.613281 Z M 0.0195312 0.652344 " clip-rule="nonzero"/></clipPath><clipPath id="e5b7be8ac5"><path d="M 174 0.652344 C 77.914062 0.652344 0.0195312 78.546875 0.0195312 174.632812 C 0.0195312 270.71875 77.914062 348.613281 174 348.613281 C 270.085938 348.613281 347.980469 270.71875 347.980469 174.632812 C 347.980469 78.546875 270.085938 0.652344 174 0.652344 Z M 174 0.652344 " clip-rule="nonzero"/></clipPath><clipPath id="52d627d878"><rect x="0" width="348" y="0" height="349"/></clipPath><clipPath id="0d959e7e42"><path d="M 795.730469 601.796875 L 892.0625 601.796875 L 892.0625 702.644531 L 795.730469 702.644531 Z M 795.730469 601.796875 " clip-rule="nonzero"/></clipPath><clipPath id="ac2b67b396"><path d="M 843.894531 601.796875 C 817.292969 601.796875 795.730469 624.292969 795.730469 652.042969 C 795.730469 679.792969 817.292969 702.289062 843.894531 702.289062 C 870.496094 702.289062 892.0625 679.792969 892.0625 652.042969 C 892.0625 624.292969 870.496094 601.796875 843.894531 601.796875 Z M 843.894531 601.796875 " clip-rule="nonzero"/></clipPath><clipPath id="6cf952e37b"><path d="M 0.730469 0.796875 L 97.0625 0.796875 L 97.0625 101.480469 L 0.730469 101.480469 Z M 0.730469 0.796875 " clip-rule="nonzero"/></clipPath><clipPath id="5d330b363b"><path d="M 48.894531 0.796875 C 22.292969 0.796875 0.730469 23.292969 0.730469 51.042969 C 0.730469 78.792969 22.292969 101.289062 48.894531 101.289062 C 75.496094 101.289062 97.0625 78.792969 97.0625 51.042969 C 97.0625 23.292969 75.496094 0.796875 48.894531 0.796875 Z M 48.894531 0.796875 " clip-rule="nonzero"/></clipPath><clipPath id="6b30f3f746"><rect x="0" width="98" y="0" height="102"/></clipPath><clipPath id="0cda9dc9d3"><path d="M 216 757 L 317 757 L 317 850 L 216 850 Z M 216 757 " clip-rule="nonzero"/></clipPath><clipPath id="b8eb915a04"><path d="M 196.945312 778.730469 L 320.0625 745.585938 L 343.457031 832.492188 L 220.339844 865.636719 Z M 196.945312 778.730469 " clip-rule="nonzero"/></clipPath><clipPath id="b41ece1958"><path d="M 196.945312 778.730469 L 320.0625 745.585938 L 343.457031 832.492188 L 220.339844 865.636719 Z M 196.945312 778.730469 " clip-rule="nonzero"/></clipPath><clipPath id="dcb6e20382"><path d="M 1183 764 L 1284 764 L 1284 857 L 1183 857 Z M 1183 764 " clip-rule="nonzero"/></clipPath><clipPath id="56c4ad49c4"><path d="M 1179.964844 752.945312 L 1303.339844 785.101562 L 1280.640625 872.191406 L 1157.265625 840.035156 Z M 1179.964844 752.945312 " clip-rule="nonzero"/></clipPath><clipPath id="86014f19a5"><path d="M 1179.964844 752.945312 L 1303.339844 785.101562 L 1280.640625 872.191406 L 1157.265625 840.035156 Z M 1179.964844 752.945312 " clip-rule="nonzero"/></clipPath></defs><g clip-path="url(#f4dfdaf685)"><g clip-path="url(#0b996e3006)"><g transform="matrix(1, 0, 0, 1, 141, 141)"><g clip-path="url(#097b4ac1d5)"><g clip-path="url(#207dc0f8b0)"><g clip-path="url(#db30b3f18b)"><path fill="#fcf5df" d="M 0.601562 0.601562 L 1217.398438 0.601562 L 1217.398438 1217.398438 L 0.601562 1217.398438 Z M 0.601562 0.601562 " fill-opacity="1" fill-rule="nonzero"/></g></g></g></g></g></g><g clip-path="url(#0010ed8a05)"><g clip-path="url(#6746c31222)"><path stroke-linecap="butt" transform="matrix(0.75, 0, 0, 0.75, 141.602467, 141.602413)" fill="none" stroke-linejoin="miter" d="M 811.196781 -0.00113454 C 363.186326 -0.00113454 -0.00120567 363.186397 -0.00120567 811.196852 C -0.00120567 1259.207307 363.186326 1622.38963 811.196781 1622.38963 C 1259.207236 1622.38963 1622.389559 1259.207307 1622.389559 811.196852 C 1622.389559 363.186397 1259.207236 -0.00113454 811.196781 -0.00113454 Z M 811.196781 -0.00113454 " stroke="#dc3d2f" stroke-width="64" stroke-opacity="1" stroke-miterlimit="4"/></g></g><g clip-path="url(#33fc93f3c9)"><g clip-path="url(#d69b514d3d)"><g transform="matrix(1, 0, 0, 1, 348, 348)"><g clip-path="url(#6f5e2d1531)"><g clip-path="url(#05faabdbdc)"><g clip-path="url(#56cd47a44e)"><path fill="#fffdf6" d="M 0.21875 0.21875 L 803.78125 0.21875 L 803.78125 803.78125 L 0.21875 803.78125 Z M 0.21875 0.21875 " fill-opacity="1" fill-rule="nonzero"/></g></g></g></g></g></g><g clip-path="url(#f156b4bd34)"><g clip-path="url(#825914b809)"><path stroke-linecap="butt" transform="matrix(0.75, 0, 0, 0.75, 348.219203, 348.219149)" fill="none" stroke-linejoin="miter" d="M 535.702568 -0.000532276 C 239.843167 -0.000532276 -0.000603409 239.843238 -0.000603409 535.702639 C -0.000603409 831.562039 239.843167 1071.40581 535.702568 1071.40581 C 831.561968 1071.40581 1071.405739 831.562039 1071.405739 535.702639 C 1071.405739 239.843238 831.561968 -0.000532276 535.702568 -0.000532276 Z M 535.702568 -0.000532276 " stroke="#dc3d2f" stroke-width="56" stroke-opacity="1" stroke-miterlimit="4"/></g></g><g transform="matrix(1, 0, 0, 1, 210, 890)"><g clip-path="url(#7fc61c2ab5)"><g fill="#3d74b6" fill-opacity="1"><g transform="translate(30.690898, 38.904744)"><g><path d="M 2.46875 6.015625 L 88.59375 -29.234375 L 125.8125 61.703125 L 103.5625 70.8125 L 79.328125 11.625 L 63.6875 18.015625 L 84.96875 70 L 66.921875 77.390625 L 45.640625 25.40625 L 15.453125 37.765625 Z M 2.46875 6.015625 "/></g></g></g><g fill="#3d74b6" fill-opacity="1"><g transform="translate(76.852392, 152.835614)"><g><path d="M 41.65625 59.46875 C 35.414062 51.363281 30.675781 43.253906 27.4375 35.140625 C 24.207031 27.023438 22.488281 19.242188 22.28125 11.796875 C 22.082031 4.347656 23.410156 -2.519531 26.265625 -8.8125 C 29.128906 -15.113281 33.507812 -20.535156 39.40625 -25.078125 C 47.375 -31.203125 56.039062 -34.285156 65.40625 -34.328125 C 74.78125 -34.378906 84.226562 -31.585938 93.75 -25.953125 C 103.269531 -20.328125 112.207031 -12.09375 120.5625 -1.25 C 128.90625 9.59375 134.578125 20.335938 137.578125 30.984375 C 140.578125 41.640625 140.851562 51.488281 138.40625 60.53125 C 135.96875 69.582031 130.765625 77.171875 122.796875 83.296875 C 116.898438 87.835938 110.535156 90.679688 103.703125 91.828125 C 96.878906 92.984375 89.898438 92.507812 82.765625 90.40625 C 75.628906 88.3125 68.5625 84.675781 61.5625 79.5 C 54.570312 74.320312 47.9375 67.644531 41.65625 59.46875 Z M 60.71875 44.796875 C 64.882812 50.222656 69.351562 54.300781 74.125 57.03125 C 78.90625 59.757812 83.695312 61.046875 88.5 60.890625 C 93.300781 60.742188 97.726562 59.113281 101.78125 56 C 105.90625 52.832031 108.640625 48.957031 109.984375 44.375 C 111.328125 39.789062 111.289062 34.84375 109.875 29.53125 C 108.46875 24.21875 105.679688 18.847656 101.515625 13.421875 C 97.390625 8.066406 92.925781 4.003906 88.125 1.234375 C 83.320312 -1.523438 78.519531 -2.859375 73.71875 -2.765625 C 68.914062 -2.679688 64.453125 -1.054688 60.328125 2.109375 C 56.273438 5.222656 53.578125 9.101562 52.234375 13.75 C 50.890625 18.394531 50.9375 23.390625 52.375 28.734375 C 53.8125 34.085938 56.59375 39.441406 60.71875 44.796875 Z M 60.71875 44.796875 "/></g></g></g><g fill="#3d74b6" fill-opacity="1"><g transform="translate(177.823432, 278.451916)"><g><path d="M 51.65625 39.921875 C 36.1875 28.785156 26.460938 17.003906 22.484375 4.578125 C 18.515625 -7.835938 20.734375 -19.878906 29.140625 -31.546875 L 58.625 -72.453125 L 86.46875 -52.390625 L 58.125 -13.0625 C 53.820312 -7.082031 52.4375 -1.269531 53.96875 4.375 C 55.5 10.019531 59.535156 15.195312 66.078125 19.90625 C 72.546875 24.570312 78.703125 26.738281 84.546875 26.40625 C 90.398438 26.082031 95.476562 22.929688 99.78125 16.953125 L 128.125 -22.375 L 155.953125 -2.328125 L 126.46875 38.578125 C 118.0625 50.242188 107.335938 56.160156 94.296875 56.328125 C 81.265625 56.492188 67.050781 51.023438 51.65625 39.921875 Z M 51.65625 39.921875 "/></g></g></g><g fill="#3d74b6" fill-opacity="1"><g transform="translate(297.612006, 362.530948)"><g><path d="M 6.125 2.1875 L 37.359375 -85.46875 L 76.171875 -71.640625 L 102.90625 2.03125 L 103.03125 2.078125 L 123.3125 -54.84375 L 153.796875 -43.984375 L 122.5625 43.671875 L 83.75 29.84375 L 57.28125 -44.578125 L 57.15625 -44.625 L 36.609375 13.046875 Z M 6.125 2.1875 "/></g></g></g><g fill="#3d74b6" fill-opacity="1"><g transform="translate(442.202571, 411.377631)"><g><path d="M 6.484375 0.375 L 11.8125 -92.53125 L 78 -88.734375 C 96.070312 -87.703125 109.742188 -82.90625 119.015625 -74.34375 C 128.296875 -65.789062 132.503906 -54.03125 131.640625 -39.0625 C 130.785156 -24.175781 125.257812 -12.988281 115.0625 -5.5 C 104.875 1.976562 90.742188 5.203125 72.671875 4.171875 Z M 41.046875 -20.828125 L 69.078125 -19.234375 C 78.066406 -18.710938 85.078125 -20.34375 90.109375 -24.125 C 95.140625 -27.914062 97.867188 -33.53125 98.296875 -40.96875 C 98.734375 -48.5 96.664062 -54.4375 92.09375 -58.78125 C 87.53125 -63.125 80.753906 -65.554688 71.765625 -66.078125 L 43.734375 -67.671875 Z M 41.046875 -20.828125 "/></g></g></g><g fill="#3d74b6" fill-opacity="1"><g transform="translate(591.269723, 417.575998)"><g><path d="M 0 0 L 24.8125 -101.046875 L 63.609375 -109.84375 L 128.296875 -29.078125 L 93.6875 -21.234375 L 83.140625 -35.375 L 38.015625 -25.140625 L 34.734375 -7.875 Z M 40.140625 -45.203125 L 72.59375 -52.5625 L 48.453125 -84.953125 L 48.203125 -84.890625 Z M 40.140625 -45.203125 "/></g></g></g><g fill="#3d74b6" fill-opacity="1"><g transform="translate(733.319399, 381.94025)"><g><path d="M 33.125 -17.171875 L 1.359375 -78.4375 L -30.71875 -61.8125 L -41.796875 -83.15625 L 52.8125 -132.21875 L 63.890625 -110.875 L 31.8125 -94.234375 L 63.578125 -32.96875 Z M 33.125 -17.171875 "/></g></g></g><g fill="#3d74b6" fill-opacity="1"><g transform="translate(838.803507, 323.131657)"><g><path d="M 5.171875 -3.921875 L -51.078125 -78.0625 L -23.828125 -98.734375 L 32.421875 -24.59375 Z M 5.171875 -3.921875 "/></g></g></g><g fill="#3d74b6" fill-opacity="1"><g transform="translate(889.554532, 289.220674)"><g><path d="M 50 -52.65625 C 43.289062 -44.925781 36.28125 -38.664062 28.96875 -33.875 C 21.65625 -29.09375 14.375 -25.863281 7.125 -24.1875 C -0.125 -22.507812 -7.117188 -22.441406 -13.859375 -23.984375 C -20.609375 -25.535156 -26.796875 -28.753906 -32.421875 -33.640625 C -40.015625 -40.234375 -44.757812 -48.113281 -46.65625 -57.28125 C -48.5625 -66.457031 -47.703125 -76.269531 -44.078125 -86.71875 C -40.453125 -97.175781 -34.15625 -107.578125 -25.1875 -117.921875 C -16.21875 -128.253906 -6.8125 -135.945312 3.03125 -141 C 12.875 -146.0625 22.46875 -148.289062 31.8125 -147.6875 C 41.15625 -147.09375 49.625 -143.5 57.21875 -136.90625 C 62.84375 -132.019531 66.894531 -126.347656 69.375 -119.890625 C 71.863281 -113.441406 72.785156 -106.507812 72.140625 -99.09375 C 71.503906 -91.675781 69.34375 -84.023438 65.65625 -76.140625 C 61.976562 -68.265625 56.757812 -60.4375 50 -52.65625 Z M 31.84375 -68.40625 C 36.332031 -73.570312 39.4375 -78.765625 41.15625 -83.984375 C 42.875 -89.210938 43.179688 -94.164062 42.078125 -98.84375 C 40.984375 -103.519531 38.503906 -107.535156 34.640625 -110.890625 C 30.710938 -114.296875 26.367188 -116.203125 21.609375 -116.609375 C 16.859375 -117.015625 12.019531 -116 7.09375 -113.5625 C 2.164062 -111.125 -2.539062 -107.320312 -7.03125 -102.15625 C -11.46875 -97.039062 -14.554688 -91.859375 -16.296875 -86.609375 C -18.046875 -81.359375 -18.398438 -76.382812 -17.359375 -71.6875 C -16.328125 -67 -13.847656 -62.953125 -9.921875 -59.546875 C -6.054688 -56.191406 -1.71875 -54.316406 3.09375 -53.921875 C 7.914062 -53.535156 12.800781 -54.570312 17.75 -57.03125 C 22.707031 -59.5 27.40625 -63.289062 31.84375 -68.40625 Z M 31.84375 -68.40625 "/></g></g></g><g fill="#3d74b6" fill-opacity="1"><g transform="translate(993.058619, 165.296453)"><g><path d="M 2.640625 -5.9375 L -82.40625 -43.71875 L -65.6875 -81.375 L 9.8125 -102.46875 L 9.875 -102.578125 L -45.359375 -127.109375 L -32.234375 -156.6875 L 52.8125 -118.90625 L 36.09375 -81.25 L -40.125 -60.484375 L -40.171875 -60.359375 L 15.78125 -35.515625 Z M 2.640625 -5.9375 "/></g></g></g></g></g><g fill="#3d74b6" fill-opacity="1"><g transform="translate(315.277595, 568.001221)"><g><path d="M 2.890625 -4.375 L -59.859375 -45.796875 L -44.59375 -68.9375 L -22.40625 -54.296875 L 0.21875 -88.5625 L -21.96875 -103.203125 L -6.65625 -126.421875 L 56.09375 -85 L 40.78125 -61.78125 L 15.8125 -78.265625 L -6.8125 -44 L 18.15625 -27.515625 Z M 2.890625 -4.375 "/></g></g></g><g fill="#3d74b6" fill-opacity="1"><g transform="translate(374.890585, 477.932586)"><g><path d="M 0 0 L -25.0625 -80.234375 L -1.921875 -102.515625 L 76.546875 -73.703125 L 55.890625 -53.8125 L 42.703125 -59.1875 L 15.78125 -33.265625 L 20.71875 -19.953125 Z M 8.859375 -48.03125 L 28.21875 -66.671875 L -2 -78.984375 L -2.15625 -78.828125 Z M 8.859375 -48.03125 "/></g></g></g><g fill="#3d74b6" fill-opacity="1"><g transform="translate(439.902052, 413.466163)"><g><path d="M 31.109375 -20.359375 L -41.171875 -62.921875 L -17.171875 -78.625 L 31.453125 -48.1875 L 31.546875 -48.25 L 23.140625 -105 L 47.140625 -120.703125 L 57.203125 -37.421875 Z M 31.109375 -20.359375 "/></g></g></g><g fill="#3d74b6" fill-opacity="1"><g transform="translate(529.792361, 355.867508)"><g><path d="M 4.875 -1.9375 L -22.875 -71.8125 L 51 -101.140625 L 57.28125 -85.328125 L 8.390625 -65.921875 L 13.046875 -54.203125 L 58.03125 -72.0625 L 63.421875 -58.5 L 18.4375 -40.640625 L 23.578125 -27.671875 L 73.4375 -47.46875 L 79.71875 -31.65625 Z M 4.875 -1.9375 "/></g></g></g><g fill="#3d74b6" fill-opacity="1"><g transform="translate(612.341246, 321.988716)"><g><path d="M 5.171875 -0.890625 L -7.6875 -74.96875 L 25.109375 -80.671875 L 73.203125 -39.453125 L 73.296875 -39.46875 L 64.9375 -87.578125 L 90.703125 -92.046875 L 103.5625 -17.96875 L 70.75 -12.28125 L 22.578125 -54.109375 L 22.46875 -54.09375 L 30.921875 -5.375 Z M 5.171875 -0.890625 "/></g></g></g><g fill="#3d74b6" fill-opacity="1"><g transform="translate(723.981709, 305.932888)"><g/></g></g><g fill="#3d74b6" fill-opacity="1"><g transform="translate(751.366338, 302.465528)"><g><path d="M 5.21875 0.59375 L 13.734375 -74.109375 L 41.265625 -70.96875 L 38.25 -44.5625 L 79.046875 -39.921875 L 82.0625 -66.328125 L 109.703125 -63.171875 L 101.1875 11.53125 L 73.546875 8.375 L 76.9375 -21.359375 L 36.140625 -26 L 32.75 3.734375 Z M 5.21875 0.59375 "/></g></g></g><g fill="#3d74b6" fill-opacity="1"><g transform="translate(858.664839, 314.831791)"><g><path d="M 0 0 L 60.203125 -58.671875 L 90.546875 -48.125 L 100.375 34.875 L 73.296875 25.46875 L 72.09375 11.28125 L 36.796875 -1 L 27.171875 9.4375 Z M 46.828125 -13.84375 L 72.21875 -5.03125 L 69.515625 -37.53125 L 69.3125 -37.609375 Z M 46.828125 -13.84375 "/></g></g></g><g fill="#3d74b6" fill-opacity="1"><g transform="translate(960.00409, 349.916823)"><g><path d="M 4.453125 2.78125 L 44.3125 -60.96875 L 72.53125 -43.328125 L 80.84375 19.4375 L 80.921875 19.484375 L 106.8125 -21.90625 L 128.984375 -8.03125 L 89.125 55.71875 L 60.890625 38.0625 L 52.921875 -25.234375 L 52.84375 -25.296875 L 26.625 16.640625 Z M 4.453125 2.78125 "/></g></g></g><g fill="#3d74b6" fill-opacity="1"><g transform="translate(1054.137235, 409.041366)"><g><path d="M 3.71875 3.703125 L 56.8125 -49.53125 L 94.71875 -11.703125 C 105.082031 -1.367188 110.765625 8.867188 111.765625 19.015625 C 112.765625 29.171875 108.988281 38.535156 100.4375 47.109375 C 91.9375 55.628906 82.597656 59.410156 72.421875 58.453125 C 62.253906 57.503906 51.988281 51.863281 41.625 41.53125 Z M 35.953125 9.453125 L 52.015625 25.46875 C 57.160156 30.613281 62.269531 33.394531 67.34375 33.8125 C 72.425781 34.226562 77.09375 32.304688 81.34375 28.046875 C 85.644531 23.734375 87.578125 19.039062 87.140625 13.96875 C 86.710938 8.894531 83.925781 3.785156 78.78125 -1.359375 L 62.71875 -17.375 Z M 35.953125 9.453125 "/></g></g></g><g fill="#3d74b6" fill-opacity="1"><g transform="translate(1130.66038, 486.317902)"><g><path d="M 25 42.734375 C 21.769531 37.742188 18.972656 32.425781 16.609375 26.78125 C 14.253906 21.132812 12.515625 15.628906 11.390625 10.265625 C 10.265625 4.910156 9.84375 0.140625 10.125 -4.046875 L 28.921875 -5.328125 C 28.628906 -1.546875 28.910156 2.648438 29.765625 7.265625 C 30.617188 11.878906 31.953125 16.554688 33.765625 21.296875 C 35.585938 26.046875 37.804688 30.445312 40.421875 34.5 C 43.347656 39.03125 46.140625 42.289062 48.796875 44.28125 C 51.460938 46.269531 53.648438 46.710938 55.359375 45.609375 C 56.710938 44.734375 57.132812 42.9375 56.625 40.21875 C 56.113281 37.507812 54.5625 33.617188 51.96875 28.546875 L 45.765625 16.0625 C 40.328125 5.320312 37.613281 -3.28125 37.625 -9.75 C 37.644531 -16.226562 40.453125 -21.273438 46.046875 -24.890625 C 50.609375 -27.753906 55.503906 -28.625 60.734375 -27.5 C 65.960938 -26.375 71.25 -23.476562 76.59375 -18.8125 C 81.945312 -14.144531 87.078125 -8.019531 91.984375 -0.4375 C 96.234375 6.132812 99.570312 12.847656 102 19.703125 C 104.425781 26.554688 105.65625 32.769531 105.6875 38.34375 L 88.25 40.59375 C 88.300781 35.65625 87.421875 30.328125 85.609375 24.609375 C 83.804688 18.898438 81.296875 13.628906 78.078125 8.796875 C 75.085938 4.316406 72.15625 0.921875 69.28125 -1.390625 C 66.40625 -3.710938 64.109375 -4.359375 62.390625 -3.328125 C 61.160156 -2.609375 60.773438 -1.085938 61.234375 1.234375 C 61.703125 3.566406 63.0625 6.914062 65.3125 11.28125 L 71.5625 23.875 C 77.414062 35.257812 80.375 44.347656 80.4375 51.140625 C 80.5 57.941406 77.648438 63.207031 71.890625 66.9375 C 67.578125 69.800781 62.734375 70.71875 57.359375 69.6875 C 51.984375 68.664062 46.507812 65.875 40.9375 61.3125 C 35.363281 56.75 30.050781 50.554688 25 42.734375 Z M 25 42.734375 "/></g></g></g><path fill="#3d74b6" d="M 770.035156 687.824219 C 764.433594 686.621094 758.832031 686.21875 753.234375 686.21875 C 753.234375 687.824219 753.632812 689.417969 753.632812 691.015625 C 755.230469 699.015625 757.230469 705.820312 759.636719 711.824219 C 761.636719 715.417969 759.636719 719.824219 756.035156 721.824219 C 752.433594 723.425781 748.03125 721.421875 746.03125 717.824219 C 743.230469 711.019531 740.429688 702.621094 739.230469 693.414062 C 738.828125 691.015625 738.429688 689.015625 738.03125 686.621094 C 734.832031 687.019531 731.230469 687.421875 728.03125 688.214844 C 728.03125 696.222656 728.832031 703.019531 730.03125 709.421875 C 732.027344 718.617188 734.832031 725.824219 738.429688 732.222656 C 740.429688 735.421875 739.230469 740.222656 735.632812 742.226562 C 732.027344 744.222656 727.628906 743.023438 725.628906 739.425781 C 721.226562 732.222656 717.628906 723.023438 715.628906 712.617188 C 714.425781 706.222656 713.226562 699.417969 713.226562 691.820312 C 709.226562 693.023438 705.628906 694.21875 702.027344 695.820312 C 701.226562 708.21875 702.425781 718.617188 704.027344 727.421875 C 706.425781 737.824219 710.027344 746.226562 714.425781 752.628906 C 716.429688 756.230469 715.628906 761.027344 712.429688 763.027344 C 708.824219 765.425781 704.425781 764.628906 702.027344 761.027344 C 696.425781 753.027344 692.027344 743.023438 689.625 730.222656 C 688.027344 722.625 686.824219 713.820312 686.824219 703.421875 C 665.222656 716.621094 647.21875 737.027344 637.21875 762.226562 C 613.21875 821.835938 640.417969 894.640625 704.425781 920.648438 C 766.835938 945.847656 837.640625 915.441406 862.84375 853.035156 C 883.644531 801.03125 866.449219 743.421875 823.636719 711.019531 C 822.042969 709.816406 821.640625 706.625 824.039062 705.417969 C 850.84375 693.023438 862.042969 680.617188 868.042969 645.414062 C 872.84375 667.015625 873.246094 683.816406 868.445312 698.222656 C 909.25 742.628906 923.652344 808.234375 899.644531 867.839844 C 866.046875 950.652344 772.4375 990.65625 689.625 957.046875 C 607.21875 923.84375 567.210938 830.238281 600.414062 747.425781 C 631.21875 670.617188 715.226562 630.609375 793.234375 652.21875 C 824.84375 650.613281 840.042969 643.015625 858.046875 611.40625 C 851.644531 661.816406 828.839844 681.417969 782.433594 688.617188 C 776.433594 689.015625 776.039062 688.617188 770.035156 687.824219 " fill-opacity="1" fill-rule="evenodd"/><path fill="#3d74b6" d="M 733.230469 798.628906 C 740.429688 798.230469 746.832031 807.03125 747.632812 817.832031 C 748.03125 829.035156 742.832031 838.238281 735.230469 838.636719 C 728.03125 839.035156 721.628906 830.238281 721.226562 819.4375 C 720.828125 808.234375 726.027344 799.03125 733.230469 798.628906 " fill-opacity="1" fill-rule="evenodd"/><path fill="#3d74b6" d="M 785.234375 782.230469 C 792.441406 781.828125 798.835938 790.628906 799.234375 801.832031 C 800.039062 813.035156 794.4375 822.230469 787.234375 822.632812 C 780.035156 823.03125 773.628906 814.230469 772.835938 803.035156 C 772.4375 791.835938 778.035156 782.628906 785.234375 782.230469 " fill-opacity="1" fill-rule="evenodd"/><path fill="#3d74b6" d="M 780.4375 867.039062 C 790.835938 863.835938 793.234375 854.640625 798.835938 850.234375 C 804.835938 845.839844 814.441406 846.238281 817.238281 855.4375 C 818.839844 861.4375 818.839844 867.4375 817.238281 873.441406 C 814.039062 885.042969 804.035156 895.445312 790.433594 899.84375 C 778.035156 903.445312 765.632812 901.839844 756.433594 895.847656 C 750.03125 891.839844 745.230469 885.839844 743.230469 878.640625 C 739.628906 867.4375 750.433594 863.433594 761.636719 863.835938 C 768.429688 864.238281 772.835938 869.4375 780.4375 867.039062 " fill-opacity="1" fill-rule="evenodd"/><g clip-path="url(#62be023d32)"><path fill="#3d74b6" d="M 895.25 660.617188 C 896.453125 654.617188 900.046875 639.410156 902.847656 635.011719 C 904.050781 633.015625 904.050781 631.410156 904.847656 629.410156 C 905.648438 627.414062 907.253906 625.808594 908.046875 623.8125 C 933.25 553.007812 1031.261719 523.796875 1036.460938 642.613281 C 1032.0625 649.414062 1028.863281 655.414062 1030.46875 657.015625 C 1033.265625 659.816406 1033.265625 659.816406 1033.265625 662.617188 L 1034.863281 683.015625 L 1035.265625 685.816406 C 1036.066406 695.421875 1039.261719 705.417969 1043.265625 714.222656 L 1049.269531 728.625 C 1049.667969 730.625 1049.269531 729.421875 1050.0625 731.425781 C 1054.867188 741.023438 1057.667969 751.824219 1062.066406 761.429688 C 1062.464844 762.226562 1062.464844 761.832031 1062.867188 762.625 L 1069.667969 782.628906 C 1073.667969 790.230469 1072.867188 784.226562 1074.867188 794.230469 L 1076.871094 802.234375 C 1078.066406 808.628906 1079.269531 815.03125 1079.269531 821.4375 L 1078.46875 834.636719 C 1078.066406 838.238281 1076.871094 842.234375 1075.667969 845.839844 C 1074.070312 850.636719 1068.871094 859.4375 1065.269531 863.433594 C 1051.265625 878.640625 1055.269531 877.042969 1051.667969 881.84375 C 1050.0625 883.839844 1048.464844 885.839844 1047.261719 887.441406 C 1044.863281 891.039062 1040.066406 895.847656 1036.863281 899.039062 C 1027.664062 908.644531 1024.0625 916.644531 1012.859375 929.042969 L 1004.058594 940.648438 C 1003.261719 942.25 1000.859375 944.25 1000.464844 946.246094 L 978.058594 970.648438 L 976.855469 970.648438 L 976.457031 971.050781 L 972.859375 972.652344 C 970.460938 973.851562 970.855469 973.851562 968.453125 974.652344 C 964.859375 975.847656 962.453125 979.050781 958.855469 981.050781 C 955.65625 982.652344 952.453125 985.855469 949.253906 987.449219 L 921.648438 1008.257812 C 918.445312 1010.660156 914.449219 1015.054688 912.050781 1016.660156 L 902.847656 1023.054688 C 900.449219 1025.054688 900.046875 1024.257812 898.046875 1025.457031 L 879.246094 1034.257812 C 877.644531 1035.0625 876.449219 1036.253906 874.449219 1037.058594 L 851.242188 1047.054688 C 848.441406 1048.660156 849.644531 1048.660156 846.445312 1048.660156 C 839.238281 1049.0625 832.042969 1040.660156 832.042969 1033.0625 C 832.042969 1027.855469 832.441406 1023.859375 835.644531 1019.453125 C 840.441406 1012.65625 847.246094 1006.253906 853.238281 1000.652344 L 881.246094 982.25 C 886.046875 979.453125 890.851562 976.652344 894.445312 971.050781 C 903.648438 957.847656 926.457031 937.050781 929.648438 932.242188 C 930.453125 930.648438 930.453125 929.042969 932.054688 927.042969 C 933.652344 925.046875 934.453125 924.246094 935.25 922.246094 L 941.253906 912.640625 C 945.257812 906.644531 945.257812 899.441406 952.054688 897.042969 C 955.253906 900.242188 965.65625 913.042969 971.257812 913.84375 C 977.257812 914.644531 978.855469 916.644531 986.0625 915.441406 C 992.0625 914.246094 1004.863281 904.246094 1005.261719 896.238281 L 1006.859375 881.441406 C 1008.0625 873.039062 1006.066406 873.839844 1003.65625 863.835938 L 1000.859375 863.039062 C 998.859375 867.039062 999.660156 872.238281 999.261719 876.242188 C 999.261719 880.238281 998.457031 894.242188 997.660156 897.042969 C 996.460938 899.84375 988.457031 907.046875 984.855469 907.441406 C 983.660156 907.839844 982.855469 907.839844 982.054688 907.839844 L 980.460938 907.839844 C 978.460938 908.242188 978.460938 908.242188 976.457031 907.441406 C 975.257812 906.644531 974.859375 906.644531 973.65625 906.246094 C 970.460938 905.042969 967.660156 902.640625 964.859375 900.242188 C 963.253906 898.242188 960.855469 896.238281 959.257812 894.640625 L 952.453125 883.839844 C 951.652344 881.441406 951.257812 881.042969 950.054688 878.640625 C 948.054688 875.039062 947.253906 871.445312 946.453125 867.839844 C 945.65625 864.238281 944.453125 860.242188 944.453125 856.640625 C 944.855469 855.4375 944.453125 854.640625 944.855469 853.835938 L 946.453125 839.835938 C 947.253906 837.035156 947.253906 836.636719 947.253906 833.832031 C 947.65625 831.835938 947.65625 830.238281 947.65625 828.230469 L 947.65625 805.433594 L 940.851562 773.023438 L 929.253906 751.023438 C 927.648438 749.023438 927.648438 747.828125 926.457031 745.824219 C 925.253906 743.824219 923.25 742.226562 922.050781 740.222656 C 918.445312 734.226562 917.25 733.824219 914.050781 729.421875 C 912.453125 727.023438 912.050781 725.824219 910.847656 723.820312 C 909.652344 721.421875 908.449219 720.625 907.644531 718.617188 C 906.851562 716.621094 907.644531 717.824219 906.453125 715.820312 C 905.648438 714.621094 905.246094 714.222656 904.453125 713.019531 C 902.445312 710.21875 903.648438 710.21875 902.054688 707.417969 C 899.644531 703.820312 898.851562 701.023438 897.648438 697.019531 C 895.648438 686.621094 893.25 676.621094 894.445312 666.214844 L 895.25 660.617188 " fill-opacity="1" fill-rule="evenodd"/></g><path fill="#3d74b6" d="M 807.640625 986.648438 C 814.835938 985.453125 822.042969 983.453125 830.839844 981.851562 C 836.042969 981.449219 841.246094 980.253906 846.042969 978.253906 L 869.242188 965.449219 C 870.847656 964.652344 871.648438 963.851562 873.246094 963.449219 L 886.847656 957.046875 C 893.25 954.648438 902.054688 947.449219 907.253906 943.042969 C 907.644531 945.050781 906.851562 945.847656 905.246094 947.851562 L 893.25 961.050781 C 889.648438 965.050781 888.84375 967.050781 885.652344 970.25 C 884.046875 972.253906 878.445312 976.652344 876.847656 977.453125 L 868.042969 982.25 C 862.84375 984.652344 864.84375 985.054688 859.644531 987.851562 L 842.441406 1000.652344 L 833.242188 1010.257812 C 830.042969 1013.859375 829.238281 1021.457031 823.636719 1022.253906 L 797.238281 1024.257812 L 794.4375 1024.257812 C 788.035156 1024.660156 780.835938 1021.859375 779.230469 1015.457031 C 778.035156 1009.855469 780.4375 1005.457031 784.433594 1001.054688 C 790.835938 993.855469 790.433594 995.050781 796.4375 991.855469 C 799.234375 990.253906 804.4375 987.050781 807.640625 986.648438 " fill-opacity="1" fill-rule="evenodd"/><g clip-path="url(#6dbead9351)"><path fill="#3d74b6" d="M 604.414062 660.617188 C 603.214844 654.617188 600.015625 639.410156 597.214844 635.011719 C 595.613281 633.015625 595.613281 631.410156 594.816406 629.410156 C 594.414062 627.414062 592.8125 625.808594 592.011719 623.8125 C 566.410156 553.007812 468.800781 523.796875 463.597656 642.613281 C 467.601562 649.414062 471.199219 655.414062 469.199219 657.015625 C 466.800781 659.816406 466.800781 659.816406 466.398438 662.617188 L 464.796875 683.015625 L 464.796875 685.816406 C 464 695.421875 460.800781 705.417969 456.796875 714.222656 L 450.796875 728.625 C 450 730.625 450.796875 729.421875 449.597656 731.425781 C 444.796875 741.023438 441.996094 751.824219 437.996094 761.429688 C 437.597656 762.226562 437.597656 761.832031 437.195312 762.625 L 430.394531 782.628906 C 425.996094 790.230469 427.195312 784.226562 425.195312 794.230469 L 422.792969 802.234375 C 421.59375 808.628906 420.792969 815.03125 420.792969 821.4375 L 421.59375 834.636719 C 421.59375 838.238281 423.195312 842.234375 423.996094 845.839844 C 425.59375 850.636719 431.195312 859.4375 434.796875 863.433594 C 448.398438 878.640625 444.796875 877.042969 448 881.84375 C 449.597656 883.839844 451.195312 885.839844 452.398438 887.441406 C 455.199219 891.039062 460 895.847656 463.199219 899.039062 C 472 908.644531 476 916.644531 487.203125 929.042969 L 495.601562 940.648438 C 496.804688 942.25 499.203125 944.25 499.605469 946.246094 L 522.007812 970.648438 L 522.808594 970.648438 L 523.207031 971.050781 L 527.207031 972.652344 C 529.605469 973.851562 529.207031 973.851562 531.605469 974.652344 C 535.207031 975.847656 537.605469 979.050781 541.207031 981.050781 C 544.40625 982.652344 547.609375 985.855469 550.808594 987.449219 L 578.414062 1008.257812 C 581.613281 1010.660156 585.210938 1015.054688 588.015625 1016.660156 L 596.8125 1023.054688 C 599.214844 1025.054688 599.613281 1024.257812 602.015625 1025.457031 L 620.816406 1034.257812 C 622.417969 1035.0625 623.617188 1036.253906 625.21875 1037.058594 L 648.820312 1047.054688 C 651.621094 1048.660156 650.019531 1048.660156 653.21875 1048.660156 C 660.820312 1049.0625 667.625 1040.660156 668.023438 1033.0625 C 668.023438 1027.855469 667.625 1023.859375 664.421875 1019.453125 C 659.222656 1012.65625 652.820312 1006.253906 646.820312 1000.652344 L 618.816406 982.25 C 613.617188 979.453125 609.214844 976.652344 605.214844 971.050781 C 596.015625 957.847656 573.210938 937.050781 570.414062 932.242188 C 569.613281 930.648438 569.613281 929.042969 568.011719 927.042969 C 566.410156 925.046875 565.613281 924.246094 564.410156 922.246094 L 558.8125 912.640625 C 554.808594 906.644531 554.808594 899.441406 548.007812 897.042969 C 544.808594 900.242188 534.410156 913.042969 528.40625 913.84375 C 522.808594 914.644531 520.804688 916.644531 514.003906 915.441406 C 508.003906 914.246094 494.800781 904.246094 494.800781 896.238281 L 492.800781 881.441406 C 492.003906 873.039062 494.003906 873.839844 496.402344 863.835938 L 499.203125 863.039062 C 501.203125 867.039062 500.402344 872.238281 500.402344 876.242188 C 500.800781 880.238281 501.601562 894.242188 502.402344 897.042969 C 503.605469 899.84375 511.203125 907.046875 515.207031 907.441406 C 516.007812 907.839844 516.804688 907.839844 518.003906 907.839844 L 519.203125 907.839844 C 521.605469 908.242188 521.605469 908.242188 523.605469 907.441406 C 524.40625 906.644531 525.207031 906.644531 526.40625 906.246094 C 529.207031 905.042969 532.40625 902.640625 535.207031 900.242188 C 536.808594 898.242188 539.207031 896.238281 540.808594 894.640625 L 547.609375 883.839844 C 548.410156 881.441406 548.410156 881.042969 549.609375 878.640625 C 551.609375 875.039062 552.410156 871.445312 553.609375 867.839844 C 554.410156 864.238281 555.609375 860.242188 555.210938 856.640625 C 555.210938 855.4375 555.210938 854.640625 555.210938 853.835938 L 553.210938 839.835938 C 552.808594 837.035156 552.808594 836.636719 552.410156 833.832031 C 552.410156 831.835938 552.410156 830.238281 552.011719 828.230469 L 552.011719 805.433594 L 559.210938 773.023438 L 570.414062 751.023438 C 572.410156 749.023438 572.410156 747.828125 573.609375 745.824219 C 574.8125 743.824219 576.8125 742.226562 578.011719 740.222656 C 581.613281 734.226562 582.8125 733.824219 586.011719 729.421875 C 587.613281 727.023438 588.015625 725.824219 589.214844 723.820312 C 590.414062 721.421875 591.613281 720.625 592.414062 718.617188 C 593.214844 716.621094 592.414062 717.824219 593.613281 715.820312 C 594.015625 714.621094 594.816406 714.222656 595.613281 713.019531 C 597.214844 710.21875 596.015625 710.21875 598.011719 707.417969 C 600.414062 703.820312 601.214844 701.023438 602.015625 697.019531 C 604.414062 686.621094 606.414062 676.621094 605.613281 666.214844 L 604.414062 660.617188 " fill-opacity="1" fill-rule="evenodd"/></g><path fill="#3d74b6" d="M 692.027344 986.648438 C 685.222656 985.453125 677.625 983.453125 669.222656 981.851562 C 664.023438 981.449219 658.421875 980.253906 653.621094 978.253906 L 630.417969 965.449219 C 629.214844 964.652344 628.019531 963.851562 626.816406 963.449219 L 613.21875 957.046875 C 606.816406 954.648438 597.613281 947.449219 592.8125 943.042969 C 592.414062 945.050781 593.214844 945.847656 594.414062 947.851562 L 606.816406 961.050781 C 610.414062 965.050781 611.214844 967.050781 614.417969 970.25 C 616.015625 972.253906 621.214844 976.652344 622.816406 977.453125 L 631.617188 982.25 C 636.820312 984.652344 634.816406 985.054688 640.417969 987.851562 L 657.621094 1000.652344 L 666.421875 1010.257812 C 670.023438 1013.859375 670.820312 1021.457031 676.421875 1022.253906 L 702.824219 1024.257812 L 705.628906 1024.257812 C 712.027344 1024.660156 719.226562 1021.859375 720.828125 1015.457031 C 722.027344 1009.855469 719.628906 1005.457031 715.628906 1001.054688 C 709.226562 993.855469 709.226562 995.050781 703.625 991.855469 C 700.425781 990.253906 695.625 987.050781 692.027344 986.648438 " fill-opacity="1" fill-rule="evenodd"/><g clip-path="url(#d678010693)"><path fill="#3d74b6" d="M 750.03125 450.992188 L 761.234375 477.792969 L 790.035156 480.191406 L 768.03125 498.992188 L 774.835938 527.398438 L 750.03125 512.199219 L 725.230469 527.398438 L 731.628906 498.992188 L 710.027344 480.191406 L 738.828125 477.792969 L 750.03125 450.992188 " fill-opacity="1" fill-rule="evenodd"/></g><path fill="#3d74b6" d="M 863.246094 500.597656 L 874.449219 527.398438 L 903.246094 529.796875 L 881.648438 548.601562 L 888.050781 577.007812 L 863.246094 561.808594 L 838.441406 577.007812 L 845.242188 548.601562 L 823.238281 529.796875 L 852.046875 527.398438 L 863.246094 500.597656 " fill-opacity="1" fill-rule="evenodd"/><path fill="#3d74b6" d="M 639.617188 500.597656 L 650.820312 527.398438 L 680.023438 529.796875 L 658.019531 548.601562 L 664.421875 577.007812 L 639.617188 561.808594 L 614.816406 577.007812 L 621.617188 548.601562 L 599.613281 529.796875 L 628.417969 527.398438 L 639.617188 500.597656 " fill-opacity="1" fill-rule="evenodd"/><g clip-path="url(#0fc2d5436e)"><g clip-path="url(#443567088b)"><g transform="matrix(1, 0, 0, 1, 576, 638)"><g clip-path="url(#52d627d878)"><g clip-path="url(#107e1912b9)"><g clip-path="url(#e5b7be8ac5)"><path fill="#fffdf6" d="M 0.0195312 0.652344 L 347.980469 0.652344 L 347.980469 348.613281 L 0.0195312 348.613281 Z M 0.0195312 0.652344 " fill-opacity="1" fill-rule="nonzero"/></g></g></g></g></g></g><g clip-path="url(#0d959e7e42)"><g clip-path="url(#ac2b67b396)"><g transform="matrix(1, 0, 0, 1, 795, 601)"><g clip-path="url(#6b30f3f746)"><g clip-path="url(#6cf952e37b)"><g clip-path="url(#5d330b363b)"><path fill="#fffdf6" d="M 0.730469 0.796875 L 97.0625 0.796875 L 97.0625 101.269531 L 0.730469 101.269531 Z M 0.730469 0.796875 " fill-opacity="1" fill-rule="nonzero"/></g></g></g></g></g></g><path fill="#dc3d2f" d="M 890.953125 726.832031 C 860.863281 693.226562 809.050781 691.121094 777.464844 723.28125 C 761.257812 739.78125 753.15625 761.71875 753.15625 783.652344 C 753.15625 761.71875 745.050781 739.78125 728.847656 723.28125 C 697.261719 691.121094 645.445312 693.226562 615.355469 726.832031 C 547.105469 803.0625 620.40625 921.414062 739.703125 979.164062 C 748.210938 983.28125 758.097656 983.28125 766.605469 979.164062 C 885.90625 921.414062 959.207031 803.058594 890.953125 726.832031 Z M 890.953125 726.832031 " fill-opacity="1" fill-rule="nonzero"/><g clip-path="url(#0cda9dc9d3)"><g clip-path="url(#b8eb915a04)"><g clip-path="url(#b41ece1958)"><path fill="#dc3d2f" d="M 302.296875 761.796875 C 290.628906 754.195312 275.019531 757.726562 268.183594 769.84375 C 264.679688 776.0625 264.023438 783.25 265.785156 789.789062 C 264.023438 783.25 259.847656 777.363281 253.695312 773.746094 C 241.699219 766.695312 226.425781 771.480469 220.152344 783.910156 C 205.929688 812.105469 237.273438 841.5 277.464844 849.140625 C 280.328125 849.683594 283.273438 848.890625 285.480469 846.980469 C 316.402344 820.195312 328.753906 779.039062 302.296875 761.796875 Z M 302.296875 761.796875 " fill-opacity="1" fill-rule="nonzero"/></g></g></g><g clip-path="url(#dcb6e20382)"><g clip-path="url(#56c4ad49c4)"><g clip-path="url(#86014f19a5)"><path fill="#dc3d2f" d="M 1279.878906 790.390625 C 1273.507812 778.011719 1258.195312 773.347656 1246.257812 780.496094 C 1240.132812 784.160156 1236.007812 790.082031 1234.296875 796.632812 C 1236.007812 790.082031 1235.292969 782.898438 1231.738281 776.710938 C 1224.808594 764.644531 1209.167969 761.238281 1197.5625 768.933594 C 1171.242188 786.390625 1183.925781 827.445312 1215.0625 853.980469 C 1217.28125 855.875 1220.234375 856.644531 1223.09375 856.074219 C 1263.222656 848.113281 1294.332031 818.472656 1279.878906 790.390625 Z M 1279.878906 790.390625 " fill-opacity="1" fill-rule="nonzero"/></g></g></g></svg>