<svg xmlns="http://www.w3.org/2000/svg" data-name="Layer 1" width="16" height="16" viewBox="0 0 95 95"><title>gly</title><path d="M9.99591,67.79449H23.94153l28.37024,26.415a2.92668,2.92668,0,0,0,4.921-2.14209V7.93262a2.92668,2.92668,0,0,0-4.921-2.14209l-28.37024,26.415H9.99591A4.996,4.996,0,0,0,5,37.20166V62.79834A4.996,4.996,0,0,0,9.99591,67.79449Z" style="fill:#fff;" /><path d="M84.22113,49.99994,94.121,40.09973a2.99956,2.99956,0,0,0-.00006-4.242l-.00006-.00006a2.99953,2.99953,0,0,0-4.24207.00006L79.979,45.758l-9.90033-9.89985a2.99957,2.99957,0,0,0-4.24194,4.24213l9.90027,9.8999-9.89984,9.90015a2.99957,2.99957,0,1,0,4.24212,4.24194l9.89985-9.90014,9.90026,9.89978a2.99952,2.99952,0,0,0,4.242-.00013l.00012-.00006a2.99956,2.99956,0,0,0-.00012-4.242Z" style="fill:#fff;" /></svg>